<svg width="32" height="32" viewBox="0 0 32 32" fill="none" xmlns="http://www.w3.org/2000/svg">
<path d="M30.5104 16.221C30.5104 24.3701 23.9043 30.9763 15.7552 30.9763C7.60614 30.9763 1 24.3701 1 16.221C1 8.07196 7.60614 1.46582 15.7552 1.46582C23.9043 1.46582 30.5104 8.07196 30.5104 16.221Z" stroke="white" stroke-width="2"/>
<path fill-rule="evenodd" clip-rule="evenodd" d="M7.13173 16.0549C11.7247 14.0539 14.7874 12.7346 16.3198 12.0972C20.6952 10.2774 21.6044 9.96123 22.197 9.95079C22.3273 9.9485 22.6187 9.9808 22.8075 10.134C22.9669 10.2633 23.0107 10.438 23.0317 10.5606C23.0527 10.6833 23.0788 10.9626 23.0581 11.1809C22.8209 13.6721 21.795 19.7178 21.2731 22.5081C21.0522 23.6887 20.6173 24.0846 20.1963 24.1234C19.2814 24.2075 18.5866 23.5187 17.7005 22.9378C16.3138 22.0288 15.5304 21.463 14.1844 20.576C12.6289 19.5509 13.6373 18.9875 14.5238 18.0668C14.7558 17.8258 18.787 14.1591 18.865 13.8265C18.8748 13.7849 18.8839 13.6298 18.7917 13.5479C18.6996 13.466 18.5636 13.494 18.4655 13.5163C18.3265 13.5479 16.1112 15.0121 11.8199 17.9088C11.1911 18.3406 10.6216 18.551 10.1113 18.54C9.54876 18.5278 8.46665 18.2219 7.66222 17.9604C6.67554 17.6397 5.89136 17.4701 5.95964 16.9254C5.99521 16.6417 6.38591 16.3515 7.13173 16.0549Z" fill="white"/>
</svg>
