<svg width="65" height="65" viewBox="0 0 65 65" fill="none" xmlns="http://www.w3.org/2000/svg">
<path d="M32.5 0.5625C41.5307 0.79975 49.052 3.9243 55.0638 9.93616C61.0757 15.948 64.2002 23.4693 64.4375 32.5C64.2002 41.5307 61.0757 49.052 55.0638 55.0638C49.052 61.0757 41.5307 64.2002 32.5 64.4375C23.4693 64.2002 15.948 61.0757 9.93616 55.0638C3.9243 49.052 0.79975 41.5307 0.5625 32.5C0.79975 23.4693 3.9243 15.948 9.93616 9.93616C15.948 3.9243 23.4693 0.79975 32.5 0.5625ZM32.5 59.875C40.2471 59.6849 46.6985 57.0113 51.8541 51.8541C57.0097 46.697 59.6834 40.2456 59.875 32.5C59.6849 24.7529 57.0113 18.3015 51.8541 13.1459C46.697 7.99025 40.2456 5.31663 32.5 5.125C24.7529 5.3151 18.3015 7.98873 13.1459 13.1459C7.99025 18.303 5.31663 24.7544 5.125 32.5C5.3151 40.2471 7.98873 46.6985 13.1459 51.8541C18.303 57.0097 24.7544 59.6834 32.5 59.875ZM29.0781 42.1953L43.6918 32.5L29.0781 22.8047V42.1953ZM29.8629 17.8156L47.6133 29.6507C48.6109 30.364 49.1098 31.3145 49.1098 32.5023C49.1098 33.6901 48.6109 34.6406 47.6133 35.3538L29.8629 47.189C29.2926 47.5692 28.6987 47.7714 28.0812 47.7958C27.4638 47.8201 26.8813 47.6772 26.3338 47.3669C25.7863 47.0567 25.3468 46.6407 25.0152 46.1191C24.6837 45.5974 24.5171 45.0035 24.5156 44.3374V20.6694C24.5156 20.0033 24.6822 19.4094 25.0152 18.8878C25.3483 18.3661 25.7878 17.9502 26.3338 17.6399C26.8798 17.3297 27.4622 17.1867 28.0812 17.2111C28.7002 17.2354 29.2941 17.4377 29.8629 17.8179V17.8156Z" fill="#2157F2"/>
</svg>
