<svg width="425" height="152" viewBox="0 0 425 152" fill="none" xmlns="http://www.w3.org/2000/svg">
<mask id="mask0_334_1153" style="mask-type:alpha" maskUnits="userSpaceOnUse" x="0" y="0" width="425" height="152">
<rect width="425" height="152" fill="#D9D9D9"/>
</mask>
<g mask="url(#mask0_334_1153)">
<mask id="mask1_334_1153" style="mask-type:alpha" maskUnits="userSpaceOnUse" x="-84" y="63" width="586" height="89">
<rect x="-84" y="63" width="586" height="89" fill="#D9D9D9"/>
</mask>
<g mask="url(#mask1_334_1153)">
<path d="M-572.792 90.3323C-572.792 90.3323 -531.488 67.3359 -474.563 65.3417C-407.769 63.0018 -408.517 89.8019 -340.973 90.3323C-270.428 90.8862 -268.141 65.5503 -197.56 65.3417C-125.755 65.1296 -121.947 91.1078 -50.2175 90.3323C17.2903 89.6024 15.8986 66.2167 83.373 65.3417C155.991 64.4 160.932 90.5417 233.662 90.3323C305.16 90.1264 308.531 65.648 380.022 65.3417C453.366 65.0276 459.237 91.8816 532.276 90.3323C597.238 88.9544 593.321 67.2752 658.008 65.3417C734.8 63.0465 745.6 89.913 823.032 90.3323C903.358 90.7673 916.556 65.0553 996.896 65.3417C1075.3 65.6213 1086.57 89.3701 1164.87 90.3323C1250.34 91.3827 1269.77 62.4972 1354.45 65.3417C1428.13 67.8169 1498.84 93.6792 1498.84 93.6792V105.637V152H-572.792V90.3323Z" fill="#A5BBF8"/>
</g>
<mask id="mask2_334_1153" style="mask-type:alpha" maskUnits="userSpaceOnUse" x="-84" y="13" width="586" height="89">
<rect x="-84" y="13" width="586" height="89" fill="#D9D9D9"/>
</mask>
<g mask="url(#mask2_334_1153)">
<path d="M-572.792 40.3323C-572.792 40.3323 -531.488 17.3359 -474.563 15.3417C-407.769 13.0018 -408.517 39.8019 -340.973 40.3323C-270.428 40.8862 -268.141 15.5503 -197.56 15.3417C-125.755 15.1296 -121.947 41.1078 -50.2175 40.3323C17.2903 39.6024 15.8986 16.2167 83.373 15.3417C155.991 14.4 160.932 40.5417 233.662 40.3323C305.16 40.1264 308.531 15.648 380.022 15.3417C453.366 15.0276 459.237 41.8816 532.276 40.3323C597.238 38.9544 593.321 17.2752 658.008 15.3417C734.8 13.0465 745.6 39.913 823.032 40.3323C903.358 40.7673 916.556 15.0553 996.896 15.3417C1075.3 15.6213 1086.57 39.3701 1164.87 40.3323C1250.34 41.3827 1269.77 12.4972 1354.45 15.3417C1428.13 17.8169 1498.84 43.6792 1498.84 43.6792V55.6372V102H-572.792V40.3323Z" fill="#A5BBF8"/>
</g>
<path d="M88.3313 75.402H85.831C85.7853 75.0786 85.6921 74.7912 85.5513 74.5401C85.4105 74.2851 85.2297 74.0682 85.009 73.8893C84.7882 73.7104 84.5333 73.5734 84.244 73.4783C83.9586 73.3831 83.6485 73.3356 83.3136 73.3356C82.7085 73.3356 82.1814 73.4859 81.7323 73.7865C81.2832 74.0834 80.935 74.5172 80.6877 75.0881C80.4403 75.6551 80.3166 76.3439 80.3166 77.1545C80.3166 77.988 80.4403 78.6882 80.6877 79.2552C80.9388 79.8223 81.289 80.2504 81.738 80.5397C82.1871 80.8289 82.7066 80.9735 83.2964 80.9735C83.6275 80.9735 83.9339 80.9297 84.2155 80.8422C84.5009 80.7547 84.754 80.6272 84.9747 80.4597C85.1954 80.2885 85.3781 80.0811 85.5227 79.8375C85.6712 79.594 85.7739 79.3161 85.831 79.0041L88.3313 79.0155C88.2666 79.5521 88.1049 80.0697 87.8461 80.5682C87.5911 81.0629 87.2467 81.5063 86.8128 81.8983C86.3828 82.2864 85.869 82.5947 85.2716 82.823C84.6779 83.0476 84.0062 83.1598 83.2565 83.1598C82.2137 83.1598 81.2813 82.9239 80.4593 82.452C79.6411 81.9801 78.9942 81.297 78.5185 80.4027C78.0466 79.5083 77.8106 78.4256 77.8106 77.1545C77.8106 75.8796 78.0504 74.795 78.5299 73.9007C79.0094 73.0064 79.6601 72.3252 80.4822 71.8571C81.3042 71.3852 82.229 71.1492 83.2565 71.1492C83.9339 71.1492 84.5618 71.2444 85.1403 71.4347C85.7225 71.6249 86.2382 71.9028 86.6873 72.2681C87.1363 72.6296 87.5017 73.073 87.7833 73.5982C88.0687 74.1233 88.2514 74.7246 88.3313 75.402ZM94.0198 83.1713C93.1331 83.1713 92.3662 82.9829 91.7193 82.6061C91.0761 82.2256 90.5795 81.6966 90.2294 81.0192C89.8792 80.338 89.7042 79.5483 89.7042 78.6502C89.7042 77.7444 89.8792 76.9528 90.2294 76.2754C90.5795 75.5942 91.0761 75.0652 91.7193 74.6885C92.3662 74.3079 93.1331 74.1176 94.0198 74.1176C94.9065 74.1176 95.6714 74.3079 96.3146 74.6885C96.9615 75.0652 97.4601 75.5942 97.8102 76.2754C98.1603 76.9528 98.3354 77.7444 98.3354 78.6502C98.3354 79.5483 98.1603 80.338 97.8102 81.0192C97.4601 81.6966 96.9615 82.2256 96.3146 82.6061C95.6714 82.9829 94.9065 83.1713 94.0198 83.1713ZM94.0312 81.2875C94.4346 81.2875 94.7714 81.1733 95.0416 80.945C95.3118 80.7128 95.5154 80.3969 95.6524 79.9973C95.7932 79.5978 95.8636 79.143 95.8636 78.633C95.8636 78.1231 95.7932 77.6683 95.6524 77.2687C95.5154 76.8691 95.3118 76.5532 95.0416 76.3211C94.7714 76.089 94.4346 75.9729 94.0312 75.9729C93.624 75.9729 93.2815 76.089 93.0037 76.3211C92.7297 76.5532 92.5223 76.8691 92.3814 77.2687C92.2444 77.6683 92.1759 78.1231 92.1759 78.633C92.1759 79.143 92.2444 79.5978 92.3814 79.9973C92.5223 80.3969 92.7297 80.7128 93.0037 80.945C93.2815 81.1733 93.624 81.2875 94.0312 81.2875ZM103.148 83.1427C102.482 83.1427 101.878 82.9715 101.338 82.629C100.801 82.2826 100.375 81.7746 100.059 81.1048C99.7473 80.4312 99.5912 79.6054 99.5912 78.6273C99.5912 77.6226 99.753 76.7873 100.076 76.1213C100.4 75.4515 100.83 74.9511 101.367 74.62C101.907 74.2851 102.499 74.1176 103.142 74.1176C103.633 74.1176 104.042 74.2014 104.369 74.3688C104.7 74.5324 104.967 74.738 105.168 74.9853C105.374 75.2289 105.53 75.4686 105.636 75.7046H105.711V71.3091H108.137V83H105.739V81.5957H105.636C105.522 81.8393 105.361 82.0809 105.151 82.3207C104.946 82.5566 104.677 82.7526 104.346 82.9087C104.019 83.0647 103.62 83.1427 103.148 83.1427ZM103.918 81.2075C104.31 81.2075 104.641 81.101 104.912 80.8879C105.186 80.6709 105.395 80.3684 105.539 79.9802C105.688 79.592 105.762 79.1373 105.762 78.6159C105.762 78.0945 105.69 77.6417 105.545 77.2573C105.401 76.8729 105.191 76.5761 104.917 76.3668C104.643 76.1575 104.31 76.0528 103.918 76.0528C103.519 76.0528 103.182 76.1613 102.908 76.3782C102.634 76.5951 102.426 76.8958 102.286 77.2801C102.145 77.6645 102.074 78.1098 102.074 78.6159C102.074 79.1259 102.145 79.5768 102.286 79.9688C102.43 80.357 102.638 80.6614 102.908 80.8822C103.182 81.0991 103.519 81.2075 103.918 81.2075ZM114.132 83.1713C113.23 83.1713 112.454 82.9886 111.803 82.6232C111.156 82.2541 110.658 81.7327 110.307 81.0591C109.957 80.3817 109.782 79.5806 109.782 78.6559C109.782 77.7539 109.957 76.9624 110.307 76.2811C110.658 75.5999 111.15 75.069 111.786 74.6885C112.425 74.3079 113.175 74.1176 114.035 74.1176C114.614 74.1176 115.152 74.2109 115.651 74.3973C116.153 74.58 116.591 74.8559 116.964 75.2251C117.34 75.5942 117.633 76.0585 117.843 76.6179C118.052 77.1736 118.157 77.8243 118.157 78.5702V79.2381H110.753V77.7311H115.867C115.867 77.381 115.791 77.0708 115.639 76.8006C115.487 76.5304 115.276 76.3192 115.006 76.167C114.739 76.0109 114.429 75.9329 114.075 75.9329C113.706 75.9329 113.379 76.0186 113.093 76.1898C112.812 76.3573 112.591 76.5837 112.431 76.8691C112.271 77.1507 112.189 77.4647 112.186 77.811V79.2438C112.186 79.6777 112.265 80.0525 112.425 80.3684C112.589 80.6843 112.819 80.9278 113.116 81.0991C113.413 81.2703 113.765 81.356 114.172 81.356C114.442 81.356 114.69 81.3179 114.914 81.2418C115.139 81.1657 115.331 81.0515 115.491 80.8993C115.651 80.7471 115.772 80.5606 115.856 80.3399L118.105 80.4883C117.991 81.0287 117.757 81.5006 117.403 81.904C117.053 82.3036 116.6 82.6156 116.044 82.8402C115.493 83.0609 114.855 83.1713 114.132 83.1713ZM122.975 83.1427C122.309 83.1427 121.705 82.9715 121.165 82.629C120.628 82.2826 120.202 81.7746 119.886 81.1048C119.574 80.4312 119.418 79.6054 119.418 78.6273C119.418 77.6226 119.58 76.7873 119.903 76.1213C120.227 75.4515 120.657 74.9511 121.193 74.62C121.734 74.2851 122.326 74.1176 122.969 74.1176C123.46 74.1176 123.869 74.2014 124.196 74.3688C124.527 74.5324 124.794 74.738 124.995 74.9853C125.201 75.2289 125.357 75.4686 125.463 75.7046H125.538V71.3091H127.964V83H125.566V81.5957H125.463C125.349 81.8393 125.187 82.0809 124.978 82.3207C124.773 82.5566 124.504 82.7526 124.173 82.9087C123.846 83.0647 123.446 83.1427 122.975 83.1427ZM123.745 81.2075C124.137 81.2075 124.468 81.101 124.738 80.8879C125.012 80.6709 125.222 80.3684 125.366 79.9802C125.515 79.592 125.589 79.1373 125.589 78.6159C125.589 78.0945 125.517 77.6417 125.372 77.2573C125.227 76.8729 125.018 76.5761 124.744 76.3668C124.47 76.1575 124.137 76.0528 123.745 76.0528C123.346 76.0528 123.009 76.1613 122.735 76.3782C122.461 76.5951 122.253 76.8958 122.113 77.2801C121.972 77.6645 121.901 78.1098 121.901 78.6159C121.901 79.1259 121.972 79.5768 122.113 79.9688C122.257 80.357 122.465 80.6614 122.735 80.8822C123.009 81.0991 123.346 81.2075 123.745 81.2075ZM133.729 83V71.3091H136.161V75.7046H136.235C136.342 75.4686 136.496 75.2289 136.698 74.9853C136.903 74.738 137.17 74.5324 137.497 74.3688C137.828 74.2014 138.239 74.1176 138.73 74.1176C139.369 74.1176 139.959 74.2851 140.499 74.62C141.04 74.9511 141.472 75.4515 141.795 76.1213C142.119 76.7873 142.281 77.6226 142.281 78.6273C142.281 79.6054 142.123 80.4312 141.807 81.1048C141.495 81.7746 141.068 82.2826 140.528 82.629C139.991 82.9715 139.39 83.1427 138.724 83.1427C138.252 83.1427 137.851 83.0647 137.52 82.9087C137.192 82.7526 136.924 82.5566 136.715 82.3207C136.505 82.0809 136.346 81.8393 136.235 81.5957H136.127V83H133.729ZM136.11 78.6159C136.11 79.1373 136.182 79.592 136.327 79.9802C136.471 80.3684 136.681 80.6709 136.955 80.8879C137.229 81.101 137.562 81.2075 137.954 81.2075C138.349 81.2075 138.684 81.0991 138.958 80.8822C139.232 80.6614 139.44 80.357 139.58 79.9688C139.725 79.5768 139.797 79.1259 139.797 78.6159C139.797 78.1098 139.727 77.6645 139.586 77.2801C139.445 76.8958 139.238 76.5951 138.964 76.3782C138.69 76.1613 138.353 76.0528 137.954 76.0528C137.558 76.0528 137.223 76.1575 136.949 76.3668C136.679 76.5761 136.471 76.8729 136.327 77.2573C136.182 77.6417 136.11 78.0945 136.11 78.6159ZM145.122 86.2881C144.814 86.2881 144.524 86.2633 144.254 86.2139C143.988 86.1682 143.767 86.1092 143.592 86.0369L144.14 84.2216C144.425 84.3091 144.682 84.3567 144.911 84.3643C145.143 84.3719 145.343 84.3187 145.51 84.2045C145.681 84.0903 145.82 83.8962 145.927 83.6222L146.07 83.2512L142.924 74.2318H145.482L147.297 80.6709H147.388L149.221 74.2318H151.795L148.387 83.9476C148.224 84.4195 148.001 84.8305 147.719 85.1806C147.441 85.5346 147.089 85.8067 146.663 85.9969C146.237 86.191 145.723 86.2881 145.122 86.2881ZM158.821 83H156.172L160.208 71.3091H163.393L167.423 83H164.775L161.846 73.9806H161.755L158.821 83ZM158.655 78.4047H164.912V80.3341H158.655V78.4047ZM171.217 71.3091V83H168.785V71.3091H171.217ZM173.165 83V74.2318H175.597V83H173.165ZM174.386 73.1015C174.025 73.1015 173.715 72.9817 173.456 72.7419C173.201 72.4983 173.073 72.2072 173.073 71.8685C173.073 71.5336 173.201 71.2463 173.456 71.0065C173.715 70.763 174.025 70.6412 174.386 70.6412C174.748 70.6412 175.056 70.763 175.311 71.0065C175.57 71.2463 175.699 71.5336 175.699 71.8685C175.699 72.2072 175.57 72.4983 175.311 72.7419C175.056 72.9817 174.748 73.1015 174.386 73.1015ZM177.545 83V74.2318H179.902V75.7617H179.993C180.153 75.2175 180.422 74.8065 180.798 74.5286C181.175 74.247 181.609 74.1062 182.1 74.1062C182.222 74.1062 182.353 74.1138 182.494 74.1291C182.635 74.1443 182.758 74.1652 182.865 74.1918V76.3496C182.751 76.3154 182.593 76.2849 182.391 76.2583C182.189 76.2317 182.005 76.2183 181.837 76.2183C181.48 76.2183 181.16 76.2964 180.878 76.4524C180.6 76.6046 180.38 76.8177 180.216 77.0917C180.056 77.3657 179.976 77.6816 179.976 78.0393V83H177.545ZM187.71 83.1713C186.808 83.1713 186.032 82.9886 185.381 82.6232C184.734 82.2541 184.235 81.7327 183.885 81.0591C183.535 80.3817 183.36 79.5806 183.36 78.6559C183.36 77.7539 183.535 76.9624 183.885 76.2811C184.235 75.5999 184.728 75.069 185.364 74.6885C186.003 74.3079 186.753 74.1176 187.613 74.1176C188.191 74.1176 188.73 74.2109 189.228 74.3973C189.731 74.58 190.168 74.8559 190.541 75.2251C190.918 75.5942 191.211 76.0585 191.42 76.6179C191.63 77.1736 191.734 77.8243 191.734 78.5702V79.2381H184.33V77.7311H189.445C189.445 77.381 189.369 77.0708 189.217 76.8006C189.065 76.5304 188.853 76.3192 188.583 76.167C188.317 76.0109 188.007 75.9329 187.653 75.9329C187.284 75.9329 186.956 76.0186 186.671 76.1898C186.389 76.3573 186.169 76.5837 186.009 76.8691C185.849 77.1507 185.767 77.4647 185.763 77.811V79.2438C185.763 79.6777 185.843 80.0525 186.003 80.3684C186.167 80.6843 186.397 80.9278 186.694 81.0991C186.991 81.2703 187.343 81.356 187.75 81.356C188.02 81.356 188.267 81.3179 188.492 81.2418C188.716 81.1657 188.909 81.0515 189.069 80.8993C189.228 80.7471 189.35 80.5606 189.434 80.3399L191.683 80.4883C191.569 81.0287 191.335 81.5006 190.981 81.904C190.631 82.3036 190.178 82.6156 189.622 82.8402C189.07 83.0609 188.433 83.1713 187.71 83.1713ZM193.276 83V81.5501L197.568 76.2355V76.1727H193.424V74.2318H200.497V75.813L196.467 80.9963V81.0591H200.645V83H193.276ZM205.005 83.1655C204.446 83.1655 203.947 83.0685 203.509 82.8744C203.072 82.6765 202.726 82.3854 202.471 82.001C202.219 81.6128 202.094 81.1295 202.094 80.5511C202.094 80.0639 202.183 79.6548 202.362 79.3238C202.541 78.9927 202.785 78.7263 203.093 78.5246C203.401 78.3229 203.751 78.1706 204.143 78.0679C204.539 77.9651 204.954 77.8928 205.388 77.851C205.898 77.7977 206.309 77.7482 206.621 77.7025C206.933 77.6531 207.159 77.5808 207.3 77.4856C207.441 77.3905 207.511 77.2497 207.511 77.0632V77.0289C207.511 76.6674 207.397 76.3877 207.169 76.1898C206.944 75.9919 206.624 75.893 206.21 75.893C205.772 75.893 205.424 75.99 205.165 76.1841C204.906 76.3744 204.735 76.6141 204.651 76.9034L202.402 76.7207C202.516 76.1879 202.741 75.7274 203.076 75.3392C203.411 74.9473 203.842 74.6466 204.371 74.4373C204.904 74.2242 205.521 74.1176 206.221 74.1176C206.708 74.1176 207.174 74.1747 207.62 74.2889C208.069 74.4031 208.466 74.58 208.813 74.8198C209.163 75.0595 209.439 75.3678 209.64 75.7445C209.842 76.1175 209.943 76.5647 209.943 77.086V83H207.637V81.7841H207.568C207.427 82.0581 207.239 82.2998 207.003 82.5091C206.767 82.7146 206.484 82.8763 206.153 82.9943C205.821 83.1085 205.439 83.1655 205.005 83.1655ZM205.702 81.4873C206.059 81.4873 206.375 81.4169 206.649 81.276C206.923 81.1314 207.138 80.9373 207.294 80.6938C207.45 80.4502 207.528 80.1743 207.528 79.8661V78.9356C207.452 78.985 207.347 79.0307 207.214 79.0726C207.085 79.1106 206.938 79.1468 206.775 79.181C206.611 79.2115 206.447 79.24 206.284 79.2667C206.12 79.2895 205.972 79.3104 205.839 79.3295C205.553 79.3713 205.304 79.4379 205.091 79.5293C204.878 79.6206 204.712 79.7443 204.594 79.9003C204.476 80.0525 204.417 80.2428 204.417 80.4712C204.417 80.8022 204.537 81.0553 204.777 81.2304C205.02 81.4016 205.329 81.4873 205.702 81.4873ZM215.596 83V71.3091H218.067V76.4638H218.222L222.429 71.3091H225.391L221.053 76.5437L225.443 83H222.486L219.283 78.1935L218.067 79.6777V83H215.596ZM229.133 83.1655C228.574 83.1655 228.075 83.0685 227.638 82.8744C227.2 82.6765 226.854 82.3854 226.599 82.001C226.348 81.6128 226.222 81.1295 226.222 80.5511C226.222 80.0639 226.311 79.6548 226.49 79.3238C226.669 78.9927 226.913 78.7263 227.221 78.5246C227.529 78.3229 227.879 78.1706 228.271 78.0679C228.667 77.9651 229.082 77.8928 229.516 77.851C230.026 77.7977 230.437 77.7482 230.749 77.7025C231.061 77.6531 231.287 77.5808 231.428 77.4856C231.569 77.3905 231.639 77.2497 231.639 77.0632V77.0289C231.639 76.6674 231.525 76.3877 231.297 76.1898C231.072 75.9919 230.753 75.893 230.338 75.893C229.9 75.893 229.552 75.99 229.293 76.1841C229.034 76.3744 228.863 76.6141 228.779 76.9034L226.53 76.7207C226.644 76.1879 226.869 75.7274 227.204 75.3392C227.539 74.9473 227.971 74.6466 228.5 74.4373C229.032 74.2242 229.649 74.1176 230.349 74.1176C230.836 74.1176 231.303 74.1747 231.748 74.2889C232.197 74.4031 232.595 74.58 232.941 74.8198C233.291 75.0595 233.567 75.3678 233.769 75.7445C233.97 76.1175 234.071 76.5647 234.071 77.086V83H231.765V81.7841H231.696C231.556 82.0581 231.367 82.2998 231.131 82.5091C230.895 82.7146 230.612 82.8763 230.281 82.9943C229.95 83.1085 229.567 83.1655 229.133 83.1655ZM229.83 81.4873C230.188 81.4873 230.503 81.4169 230.777 81.276C231.051 81.1314 231.266 80.9373 231.422 80.6938C231.578 80.4502 231.656 80.1743 231.656 79.8661V78.9356C231.58 78.985 231.476 79.0307 231.343 79.0726C231.213 79.1106 231.067 79.1468 230.903 79.181C230.739 79.2115 230.576 79.24 230.412 79.2667C230.248 79.2895 230.1 79.3104 229.967 79.3295C229.681 79.3713 229.432 79.4379 229.219 79.5293C229.006 79.6206 228.84 79.7443 228.722 79.9003C228.604 80.0525 228.545 80.2428 228.545 80.4712C228.545 80.8022 228.665 81.0553 228.905 81.2304C229.149 81.4016 229.457 81.4873 229.83 81.4873ZM243.818 74.2318L240.753 83H238.013L234.947 74.2318H237.516L239.337 80.5054H239.429L241.244 74.2318H243.818ZM248.742 83.1713C247.855 83.1713 247.088 82.9829 246.441 82.6061C245.798 82.2256 245.302 81.6966 244.951 81.0192C244.601 80.338 244.426 79.5483 244.426 78.6502C244.426 77.7444 244.601 76.9528 244.951 76.2754C245.302 75.5942 245.798 75.0652 246.441 74.6885C247.088 74.3079 247.855 74.1176 248.742 74.1176C249.629 74.1176 250.394 74.3079 251.037 74.6885C251.684 75.0652 252.182 75.5942 252.532 76.2754C252.882 76.9528 253.057 77.7444 253.057 78.6502C253.057 79.5483 252.882 80.338 252.532 81.0192C252.182 81.6966 251.684 82.2256 251.037 82.6061C250.394 82.9829 249.629 83.1713 248.742 83.1713ZM248.753 81.2875C249.157 81.2875 249.494 81.1733 249.764 80.945C250.034 80.7128 250.238 80.3969 250.375 79.9973C250.515 79.5978 250.586 79.143 250.586 78.633C250.586 78.1231 250.515 77.6683 250.375 77.2687C250.238 76.8691 250.034 76.5532 249.764 76.3211C249.494 76.089 249.157 75.9729 248.753 75.9729C248.346 75.9729 248.004 76.089 247.726 76.3211C247.452 76.5532 247.244 76.8691 247.104 77.2687C246.967 77.6683 246.898 78.1231 246.898 78.633C246.898 79.143 246.967 79.5978 247.104 79.9973C247.244 80.3969 247.452 80.7128 247.726 80.945C248.004 81.1733 248.346 81.2875 248.753 81.2875ZM260.262 79.2667V74.2318H262.693V83H260.359V81.4073H260.267C260.069 81.9211 259.74 82.334 259.28 82.6461C258.823 82.9581 258.266 83.1142 257.607 83.1142C257.021 83.1142 256.505 82.981 256.06 82.7146C255.615 82.4482 255.267 82.0695 255.016 81.5786C254.768 81.0877 254.643 80.4997 254.639 79.8147V74.2318H257.071V79.3808C257.074 79.8984 257.213 80.3075 257.487 80.6082C257.761 80.9088 258.129 81.0591 258.589 81.0591C258.882 81.0591 259.156 80.9925 259.411 80.8593C259.666 80.7223 259.871 80.5206 260.028 80.2542C260.187 79.9878 260.265 79.6586 260.262 79.2667ZM271.934 76.7321L269.708 76.8691C269.67 76.6788 269.588 76.5076 269.462 76.3554C269.337 76.1993 269.171 76.0756 268.966 75.9843C268.764 75.8892 268.522 75.8416 268.241 75.8416C267.864 75.8416 267.546 75.9215 267.287 76.0813C267.028 76.2374 266.899 76.4467 266.899 76.7093C266.899 76.9186 266.983 77.0955 267.15 77.2402C267.318 77.3848 267.605 77.5008 268.012 77.5884L269.599 77.9081C270.452 78.0831 271.087 78.3647 271.506 78.7529C271.924 79.1411 272.134 79.651 272.134 80.2828C272.134 80.8574 271.964 81.3617 271.626 81.7955C271.291 82.2294 270.83 82.5681 270.244 82.8116C269.662 83.0514 268.99 83.1713 268.229 83.1713C267.068 83.1713 266.144 82.9296 265.455 82.4463C264.77 81.9592 264.368 81.297 264.25 80.4597L266.642 80.3341C266.715 80.6881 266.89 80.9583 267.167 81.1448C267.445 81.3274 267.801 81.4188 268.235 81.4188C268.661 81.4188 269.004 81.3369 269.262 81.1733C269.525 81.0058 269.658 80.7908 269.662 80.5282C269.658 80.3075 269.565 80.1267 269.382 79.9859C269.2 79.8413 268.918 79.731 268.537 79.6548L267.019 79.3523C266.163 79.181 265.525 78.8842 265.107 78.4618C264.692 78.0393 264.484 77.5008 264.484 76.8463C264.484 76.283 264.637 75.7978 264.941 75.3906C265.249 74.9834 265.681 74.6695 266.237 74.4487C266.796 74.228 267.451 74.1176 268.201 74.1176C269.308 74.1176 270.18 74.3517 270.815 74.8198C271.454 75.2879 271.827 75.9253 271.934 76.7321ZM275.166 86.2881C274.858 86.2881 274.569 86.2633 274.299 86.2139C274.032 86.1682 273.812 86.1092 273.636 86.0369L274.185 84.2216C274.47 84.3091 274.727 84.3567 274.955 84.3643C275.187 84.3719 275.387 84.3187 275.555 84.2045C275.726 84.0903 275.865 83.8962 275.971 83.6222L276.114 83.2512L272.969 74.2318H275.526L277.341 80.6709H277.433L279.265 74.2318H281.84L278.432 83.9476C278.268 84.4195 278.045 84.8305 277.764 85.1806C277.486 85.5346 277.134 85.8067 276.708 85.9969C276.281 86.191 275.768 86.2881 275.166 86.2881ZM289.236 77.9309V83H286.804V74.2318H289.122V75.7788H289.225C289.419 75.2688 289.744 74.8654 290.201 74.5686C290.658 74.268 291.211 74.1176 291.862 74.1176C292.471 74.1176 293.002 74.2508 293.455 74.5172C293.908 74.7836 294.26 75.1642 294.511 75.6589C294.762 76.1498 294.888 76.7359 294.888 77.4171V83H292.456V77.851C292.46 77.3144 292.323 76.8958 292.045 76.5951C291.767 76.2907 291.385 76.1384 290.897 76.1384C290.57 76.1384 290.281 76.2088 290.03 76.3496C289.782 76.4905 289.588 76.696 289.448 76.9662C289.31 77.2326 289.24 77.5541 289.236 77.9309ZM300.8 83.1713C299.898 83.1713 299.122 82.9886 298.471 82.6232C297.824 82.2541 297.326 81.7327 296.976 81.0591C296.625 80.3817 296.45 79.5806 296.45 78.6559C296.45 77.7539 296.625 76.9624 296.976 76.2811C297.326 75.5999 297.818 75.069 298.454 74.6885C299.093 74.3079 299.843 74.1176 300.703 74.1176C301.282 74.1176 301.82 74.2109 302.319 74.3973C302.821 74.58 303.259 74.8559 303.632 75.2251C304.008 75.5942 304.301 76.0585 304.511 76.6179C304.72 77.1736 304.825 77.8243 304.825 78.5702V79.2381H297.421V77.7311H302.536C302.536 77.381 302.459 77.0708 302.307 76.8006C302.155 76.5304 301.944 76.3192 301.674 76.167C301.407 76.0109 301.097 75.9329 300.743 75.9329C300.374 75.9329 300.047 76.0186 299.761 76.1898C299.48 76.3573 299.259 76.5837 299.099 76.8691C298.939 77.1507 298.857 77.4647 298.854 77.811V79.2438C298.854 79.6777 298.934 80.0525 299.093 80.3684C299.257 80.6843 299.487 80.9278 299.784 81.0991C300.081 81.2703 300.433 81.356 300.84 81.356C301.11 81.356 301.358 81.3179 301.582 81.2418C301.807 81.1657 301.999 81.0515 302.159 80.8993C302.319 80.7471 302.44 80.5606 302.524 80.3399L304.773 80.4883C304.659 81.0287 304.425 81.5006 304.071 81.904C303.721 82.3036 303.268 82.6156 302.713 82.8402C302.161 83.0609 301.523 83.1713 300.8 83.1713ZM306.366 83V81.5501L310.659 76.2355V76.1727H306.514V74.2318H313.587V75.813L309.557 80.9963V81.0591H313.736V83H306.366ZM318.027 77.9309V83H315.595V71.3091H317.958V75.7788H318.061C318.259 75.2612 318.579 74.8559 319.02 74.5629C319.462 74.2661 320.015 74.1176 320.681 74.1176C321.29 74.1176 321.821 74.2508 322.274 74.5172C322.731 74.7798 323.085 75.1585 323.336 75.6532C323.591 76.1441 323.716 76.7321 323.713 77.4171V83H321.281V77.851C321.285 77.3106 321.148 76.89 320.87 76.5894C320.596 76.2888 320.211 76.1384 319.717 76.1384C319.386 76.1384 319.092 76.2088 318.838 76.3496C318.586 76.4905 318.388 76.696 318.244 76.9662C318.103 77.2326 318.031 77.5541 318.027 77.9309ZM328.127 83.1655C327.567 83.1655 327.069 83.0685 326.631 82.8744C326.193 82.6765 325.847 82.3854 325.592 82.001C325.341 81.6128 325.215 81.1295 325.215 80.5511C325.215 80.0639 325.305 79.6548 325.484 79.3238C325.662 78.9927 325.906 78.7263 326.214 78.5246C326.523 78.3229 326.873 78.1706 327.265 78.0679C327.66 77.9651 328.075 77.8928 328.509 77.851C329.019 77.7977 329.43 77.7482 329.742 77.7025C330.054 77.6531 330.281 77.5808 330.421 77.4856C330.562 77.3905 330.633 77.2497 330.633 77.0632V77.0289C330.633 76.6674 330.518 76.3877 330.29 76.1898C330.066 75.9919 329.746 75.893 329.331 75.893C328.893 75.893 328.545 75.99 328.286 76.1841C328.028 76.3744 327.856 76.6141 327.773 76.9034L325.524 76.7207C325.638 76.1879 325.862 75.7274 326.197 75.3392C326.532 74.9473 326.964 74.6466 327.493 74.4373C328.026 74.2242 328.642 74.1176 329.343 74.1176C329.83 74.1176 330.296 74.1747 330.741 74.2889C331.19 74.4031 331.588 74.58 331.934 74.8198C332.284 75.0595 332.56 75.3678 332.762 75.7445C332.964 76.1175 333.064 76.5647 333.064 77.086V83H330.758V81.7841H330.69C330.549 82.0581 330.361 82.2998 330.125 82.5091C329.889 82.7146 329.605 82.8763 329.274 82.9943C328.943 83.1085 328.56 83.1655 328.127 83.1655ZM328.823 81.4873C329.181 81.4873 329.497 81.4169 329.771 81.276C330.045 81.1314 330.26 80.9373 330.416 80.6938C330.572 80.4502 330.65 80.1743 330.65 79.8661V78.9356C330.574 78.985 330.469 79.0307 330.336 79.0726C330.206 79.1106 330.06 79.1468 329.896 79.181C329.733 79.2115 329.569 79.24 329.405 79.2667C329.242 79.2895 329.093 79.3104 328.96 79.3295C328.675 79.3713 328.425 79.4379 328.212 79.5293C327.999 79.6206 327.834 79.7443 327.716 79.9003C327.598 80.0525 327.539 80.2428 327.539 80.4712C327.539 80.8022 327.659 81.0553 327.898 81.2304C328.142 81.4016 328.45 81.4873 328.823 81.4873ZM338.182 83.1427C337.516 83.1427 336.913 82.9715 336.372 82.629C335.836 82.2826 335.41 81.7746 335.094 81.1048C334.782 80.4312 334.626 79.6054 334.626 78.6273C334.626 77.6226 334.787 76.7873 335.111 76.1213C335.434 75.4515 335.864 74.9511 336.401 74.62C336.941 74.2851 337.533 74.1176 338.176 74.1176C338.667 74.1176 339.076 74.2014 339.404 74.3688C339.735 74.5324 340.001 74.738 340.203 74.9853C340.408 75.2289 340.564 75.4686 340.671 75.7046H340.745V71.3091H343.171V83H340.774V81.5957H340.671C340.557 81.8393 340.395 82.0809 340.186 82.3207C339.98 82.5566 339.712 82.7526 339.381 82.9087C339.054 83.0647 338.654 83.1427 338.182 83.1427ZM338.953 81.2075C339.345 81.2075 339.676 81.101 339.946 80.8879C340.22 80.6709 340.429 80.3684 340.574 79.9802C340.722 79.592 340.797 79.1373 340.797 78.6159C340.797 78.0945 340.724 77.6417 340.58 77.2573C340.435 76.8729 340.226 76.5761 339.952 76.3668C339.678 76.1575 339.345 76.0528 338.953 76.0528C338.553 76.0528 338.216 76.1613 337.942 76.3782C337.668 76.5951 337.461 76.8958 337.32 77.2801C337.179 77.6645 337.109 78.1098 337.109 78.6159C337.109 79.1259 337.179 79.5768 337.32 79.9688C337.465 80.357 337.672 80.6614 337.942 80.8822C338.216 81.0991 338.553 81.2075 338.953 81.2075Z" fill="white"/>
<path d="M138.354 105.359H137.294L140.36 97.0082H141.404L144.47 105.359H143.41L140.914 98.3293H140.849L138.354 105.359ZM138.745 102.097H143.018V102.994H138.745V102.097ZM146.602 97.0082V105.359H145.64V97.0082H146.602ZM149.327 97.0082V105.359H148.365V97.0082H149.327ZM154.45 105.359V97.0082H157.271C157.924 97.0082 158.459 97.1197 158.878 97.3426C159.296 97.5628 159.606 97.8659 159.807 98.2519C160.008 98.6379 160.109 99.0769 160.109 99.5689C160.109 100.061 160.008 100.497 159.807 100.878C159.606 101.258 159.298 101.557 158.882 101.775C158.466 101.99 157.934 102.097 157.287 102.097H155.004V101.184H157.255C157.701 101.184 158.059 101.118 158.331 100.988C158.606 100.857 158.804 100.673 158.927 100.433C159.052 100.191 159.114 99.9032 159.114 99.5689C159.114 99.2345 159.052 98.9423 158.927 98.6922C158.802 98.4421 158.602 98.2491 158.327 98.1132C158.053 97.9746 157.69 97.9053 157.239 97.9053H155.461V105.359H154.45ZM158.38 101.608L160.435 105.359H159.261L157.239 101.608H158.38ZM161.664 105.359V99.0959H162.626V105.359H161.664ZM162.153 98.0521C161.965 98.0521 161.804 97.9882 161.668 97.8604C161.534 97.7327 161.468 97.5791 161.468 97.3997C161.468 97.2203 161.534 97.0667 161.668 96.9389C161.804 96.8111 161.965 96.7473 162.153 96.7473C162.34 96.7473 162.501 96.8111 162.634 96.9389C162.77 97.0667 162.838 97.2203 162.838 97.3997C162.838 97.5791 162.77 97.7327 162.634 97.8604C162.501 97.9882 162.34 98.0521 162.153 98.0521ZM166.916 107.838C166.452 107.838 166.052 107.778 165.718 107.659C165.383 107.542 165.105 107.387 164.882 107.194C164.662 107.003 164.486 106.8 164.356 106.582L165.122 106.044C165.209 106.158 165.319 106.289 165.453 106.435C165.586 106.585 165.768 106.714 165.999 106.823C166.233 106.934 166.539 106.99 166.916 106.99C167.422 106.99 167.839 106.868 168.168 106.623C168.497 106.378 168.662 105.995 168.662 105.473V104.201H168.58C168.509 104.315 168.409 104.456 168.278 104.625C168.151 104.791 167.966 104.939 167.724 105.069C167.485 105.197 167.161 105.261 166.753 105.261C166.248 105.261 165.794 105.141 165.391 104.902C164.992 104.663 164.675 104.315 164.441 103.858C164.21 103.402 164.095 102.847 164.095 102.195C164.095 101.553 164.208 100.995 164.433 100.519C164.659 100.041 164.973 99.6708 165.375 99.4099C165.777 99.1462 166.242 99.0143 166.77 99.0143C167.177 99.0143 167.501 99.0823 167.74 99.2182C167.982 99.3514 168.167 99.5036 168.295 99.6749C168.425 99.8434 168.526 99.9821 168.596 100.091H168.694V99.0959H169.624V105.538C169.624 106.077 169.502 106.514 169.257 106.851C169.015 107.191 168.689 107.44 168.278 107.597C167.871 107.758 167.417 107.838 166.916 107.838ZM166.884 104.397C167.27 104.397 167.596 104.308 167.862 104.132C168.129 103.955 168.331 103.701 168.47 103.369C168.609 103.037 168.678 102.641 168.678 102.178C168.678 101.727 168.61 101.329 168.474 100.984C168.338 100.639 168.137 100.368 167.871 100.172C167.604 99.9766 167.275 99.8788 166.884 99.8788C166.476 99.8788 166.136 99.9821 165.864 100.189C165.595 100.395 165.393 100.673 165.257 101.02C165.124 101.368 165.057 101.754 165.057 102.178C165.057 102.613 165.125 102.998 165.261 103.332C165.4 103.664 165.603 103.925 165.873 104.115C166.144 104.303 166.481 104.397 166.884 104.397ZM172.348 101.591V105.359H171.385V97.0082H172.348V100.074H172.429C172.576 99.751 172.796 99.4941 173.09 99.3038C173.386 99.1108 173.78 99.0143 174.272 99.0143C174.699 99.0143 175.073 99.1 175.393 99.2712C175.714 99.4398 175.963 99.6994 176.14 100.05C176.319 100.398 176.409 100.841 176.409 101.379V105.359H175.446V101.445C175.446 100.947 175.317 100.562 175.059 100.291C174.804 100.016 174.449 99.8788 173.995 99.8788C173.68 99.8788 173.397 99.9454 173.147 100.079C172.899 100.212 172.704 100.406 172.56 100.662C172.418 100.917 172.348 101.227 172.348 101.591ZM180.893 99.0959V99.9114H177.647V99.0959H180.893ZM178.593 97.5954H179.556V103.565C179.556 103.837 179.595 104.041 179.674 104.176C179.755 104.31 179.859 104.399 179.984 104.446C180.111 104.489 180.246 104.511 180.387 104.511C180.493 104.511 180.58 104.505 180.648 104.494C180.716 104.481 180.771 104.47 180.811 104.462L181.007 105.326C180.942 105.351 180.851 105.375 180.734 105.4C180.617 105.427 180.469 105.44 180.289 105.44C180.018 105.44 179.751 105.382 179.49 105.265C179.232 105.148 179.017 104.97 178.846 104.731C178.678 104.492 178.593 104.19 178.593 103.826V97.5954ZM186.665 100.499L185.8 100.743C185.746 100.599 185.666 100.459 185.56 100.323C185.456 100.185 185.315 100.07 185.136 99.9807C184.956 99.891 184.726 99.8461 184.446 99.8461C184.063 99.8461 183.744 99.9345 183.488 100.111C183.235 100.285 183.109 100.507 183.109 100.776C183.109 101.015 183.196 101.204 183.37 101.343C183.544 101.481 183.816 101.597 184.186 101.689L185.115 101.918C185.675 102.053 186.092 102.261 186.367 102.541C186.642 102.819 186.779 103.176 186.779 103.614C186.779 103.973 186.675 104.293 186.469 104.576C186.265 104.859 185.98 105.082 185.613 105.245C185.246 105.408 184.819 105.489 184.332 105.489C183.694 105.489 183.165 105.351 182.746 105.073C182.328 104.796 182.063 104.391 181.951 103.858L182.864 103.63C182.951 103.967 183.116 104.22 183.358 104.388C183.602 104.557 183.922 104.641 184.316 104.641C184.765 104.641 185.121 104.546 185.384 104.356C185.651 104.163 185.784 103.932 185.784 103.663C185.784 103.445 185.708 103.263 185.556 103.116C185.403 102.967 185.17 102.855 184.854 102.782L183.81 102.537C183.237 102.401 182.815 102.191 182.546 101.905C182.28 101.617 182.147 101.257 182.147 100.825C182.147 100.471 182.246 100.159 182.444 99.8869C182.646 99.6151 182.919 99.4017 183.264 99.2468C183.612 99.0918 184.006 99.0143 184.446 99.0143C185.066 99.0143 185.553 99.1503 185.906 99.4221C186.262 99.6939 186.515 100.053 186.665 100.499ZM191.587 105.359V97.0082H194.409C195.061 97.0082 195.597 97.1197 196.015 97.3426C196.434 97.5628 196.744 97.8659 196.945 98.2519C197.146 98.6379 197.247 99.0769 197.247 99.5689C197.247 100.061 197.146 100.497 196.945 100.878C196.744 101.258 196.435 101.557 196.019 101.775C195.603 101.99 195.072 102.097 194.425 102.097H192.142V101.184H194.392C194.838 101.184 195.197 101.118 195.469 100.988C195.743 100.857 195.942 100.673 196.064 100.433C196.189 100.191 196.252 99.9032 196.252 99.5689C196.252 99.2345 196.189 98.9423 196.064 98.6922C195.939 98.4421 195.739 98.2491 195.465 98.1132C195.19 97.9746 194.827 97.9053 194.376 97.9053H192.598V105.359H191.587ZM195.518 101.608L197.573 105.359H196.399L194.376 101.608H195.518ZM201.36 105.489C200.756 105.489 200.236 105.356 199.798 105.09C199.363 104.821 199.028 104.446 198.791 103.964C198.557 103.481 198.44 102.918 198.44 102.276C198.44 101.635 198.557 101.069 198.791 100.58C199.028 100.088 199.356 99.7048 199.778 99.4302C200.202 99.153 200.697 99.0143 201.262 99.0143C201.588 99.0143 201.91 99.0687 202.228 99.1774C202.546 99.2862 202.836 99.4629 203.097 99.7075C203.358 99.9494 203.566 100.27 203.721 100.67C203.876 101.069 203.953 101.561 203.953 102.146V102.554H199.125V101.722H202.975C202.975 101.368 202.904 101.053 202.762 100.776C202.624 100.499 202.425 100.28 202.167 100.119C201.912 99.959 201.61 99.8788 201.262 99.8788C200.879 99.8788 200.547 99.9739 200.267 100.164C199.99 100.352 199.776 100.596 199.627 100.898C199.477 101.2 199.403 101.523 199.403 101.869V102.423C199.403 102.896 199.484 103.297 199.647 103.626C199.813 103.952 200.043 104.201 200.336 104.372C200.63 104.541 200.971 104.625 201.36 104.625C201.613 104.625 201.841 104.59 202.045 104.519C202.251 104.446 202.429 104.337 202.579 104.193C202.729 104.046 202.844 103.864 202.926 103.646L203.855 103.907C203.757 104.223 203.593 104.5 203.362 104.739C203.131 104.976 202.845 105.16 202.506 105.294C202.166 105.424 201.784 105.489 201.36 105.489ZM209.853 100.499L208.989 100.743C208.934 100.599 208.854 100.459 208.748 100.323C208.645 100.185 208.504 100.07 208.324 99.9807C208.145 99.891 207.915 99.8461 207.635 99.8461C207.252 99.8461 206.932 99.9345 206.677 100.111C206.424 100.285 206.298 100.507 206.298 100.776C206.298 101.015 206.385 101.204 206.559 101.343C206.733 101.481 207.004 101.597 207.374 101.689L208.304 101.918C208.864 102.053 209.281 102.261 209.556 102.541C209.83 102.819 209.967 103.176 209.967 103.614C209.967 103.973 209.864 104.293 209.657 104.576C209.454 104.859 209.168 105.082 208.801 105.245C208.434 105.408 208.007 105.489 207.521 105.489C206.882 105.489 206.353 105.351 205.935 105.073C205.516 104.796 205.251 104.391 205.14 103.858L206.053 103.63C206.14 103.967 206.304 104.22 206.546 104.388C206.791 104.557 207.11 104.641 207.505 104.641C207.953 104.641 208.309 104.546 208.573 104.356C208.839 104.163 208.972 103.932 208.972 103.663C208.972 103.445 208.896 103.263 208.744 103.116C208.592 102.967 208.358 102.855 208.043 102.782L206.999 102.537C206.425 102.401 206.004 102.191 205.735 101.905C205.469 101.617 205.335 101.257 205.335 100.825C205.335 100.471 205.435 100.159 205.633 99.8869C205.834 99.6151 206.107 99.4017 206.453 99.2468C206.801 99.0918 207.195 99.0143 207.635 99.0143C208.255 99.0143 208.741 99.1503 209.095 99.4221C209.451 99.6939 209.704 100.053 209.853 100.499ZM214.042 105.489C213.438 105.489 212.918 105.356 212.48 105.09C212.045 104.821 211.709 104.446 211.473 103.964C211.239 103.481 211.122 102.918 211.122 102.276C211.122 101.635 211.239 101.069 211.473 100.58C211.709 100.088 212.038 99.7048 212.46 99.4302C212.884 99.153 213.379 99.0143 213.944 99.0143C214.27 99.0143 214.592 99.0687 214.91 99.1774C215.228 99.2862 215.518 99.4629 215.779 99.7075C216.04 99.9494 216.248 100.27 216.403 100.67C216.558 101.069 216.635 101.561 216.635 102.146V102.554H211.807V101.722H215.656C215.656 101.368 215.586 101.053 215.444 100.776C215.306 100.499 215.107 100.28 214.849 100.119C214.594 99.959 214.292 99.8788 213.944 99.8788C213.561 99.8788 213.229 99.9739 212.949 100.164C212.672 100.352 212.458 100.596 212.309 100.898C212.159 101.2 212.085 101.523 212.085 101.869V102.423C212.085 102.896 212.166 103.297 212.329 103.626C212.495 103.952 212.725 104.201 213.018 104.372C213.312 104.541 213.653 104.625 214.042 104.625C214.295 104.625 214.523 104.59 214.727 104.519C214.933 104.446 215.111 104.337 215.261 104.193C215.41 104.046 215.526 103.864 215.608 103.646L216.537 103.907C216.439 104.223 216.275 104.5 216.044 104.739C215.813 104.976 215.527 105.16 215.188 105.294C214.848 105.424 214.466 105.489 214.042 105.489ZM218.099 105.359V99.0959H219.029V100.042H219.094C219.208 99.732 219.415 99.4805 219.714 99.2875C220.013 99.0945 220.35 98.998 220.725 98.998C220.795 98.998 220.884 98.9994 220.99 99.0021C221.096 99.0048 221.176 99.0089 221.23 99.0143V99.9929C221.198 99.9848 221.123 99.9725 221.006 99.9562C220.892 99.9372 220.771 99.9277 220.643 99.9277C220.339 99.9277 220.067 99.9916 219.828 100.119C219.591 100.244 219.404 100.418 219.265 100.641C219.129 100.861 219.061 101.113 219.061 101.396V105.359H218.099ZM227.683 99.0959L225.367 105.359H224.388L222.072 99.0959H223.116L224.845 104.087H224.91L226.639 99.0959H227.683ZM231.355 105.489C230.751 105.489 230.231 105.356 229.793 105.09C229.358 104.821 229.022 104.446 228.786 103.964C228.552 103.481 228.435 102.918 228.435 102.276C228.435 101.635 228.552 101.069 228.786 100.58C229.022 100.088 229.351 99.7048 229.773 99.4302C230.197 99.153 230.691 99.0143 231.257 99.0143C231.583 99.0143 231.905 99.0687 232.223 99.1774C232.541 99.2862 232.831 99.4629 233.092 99.7075C233.353 99.9494 233.561 100.27 233.716 100.67C233.871 101.069 233.948 101.561 233.948 102.146V102.554H229.12V101.722H232.969C232.969 101.368 232.899 101.053 232.757 100.776C232.619 100.499 232.42 100.28 232.162 100.119C231.907 99.959 231.605 99.8788 231.257 99.8788C230.874 99.8788 230.542 99.9739 230.262 100.164C229.985 100.352 229.771 100.596 229.622 100.898C229.472 101.2 229.398 101.523 229.398 101.869V102.423C229.398 102.896 229.479 103.297 229.642 103.626C229.808 103.952 230.038 104.201 230.331 104.372C230.625 104.541 230.966 104.625 231.355 104.625C231.608 104.625 231.836 104.59 232.04 104.519C232.246 104.446 232.424 104.337 232.574 104.193C232.723 104.046 232.839 103.864 232.92 103.646L233.85 103.907C233.752 104.223 233.588 104.5 233.357 104.739C233.126 104.976 232.84 105.16 232.501 105.294C232.161 105.424 231.779 105.489 231.355 105.489ZM237.777 105.489C237.255 105.489 236.794 105.358 236.394 105.094C235.995 104.827 235.682 104.452 235.457 103.968C235.231 103.482 235.118 102.907 235.118 102.244C235.118 101.586 235.231 101.015 235.457 100.531C235.682 100.047 235.996 99.6735 236.399 99.4099C236.801 99.1462 237.266 99.0143 237.793 99.0143C238.201 99.0143 238.523 99.0823 238.759 99.2182C238.999 99.3514 239.181 99.5036 239.306 99.6749C239.434 99.8434 239.533 99.9821 239.603 100.091H239.685V97.0082H240.647V105.359H239.718V104.397H239.603C239.533 104.511 239.432 104.655 239.302 104.829C239.171 105 238.985 105.154 238.743 105.29C238.501 105.423 238.179 105.489 237.777 105.489ZM237.907 104.625C238.293 104.625 238.619 104.524 238.886 104.323C239.152 104.119 239.355 103.838 239.493 103.479C239.632 103.118 239.701 102.7 239.701 102.227C239.701 101.76 239.633 101.351 239.497 101C239.362 100.647 239.16 100.372 238.894 100.176C238.628 99.978 238.299 99.8788 237.907 99.8788C237.499 99.8788 237.16 99.9834 236.888 100.193C236.619 100.399 236.416 100.681 236.28 101.037C236.147 101.39 236.081 101.787 236.081 102.227C236.081 102.673 236.148 103.078 236.284 103.442C236.423 103.804 236.627 104.092 236.896 104.307C237.168 104.519 237.505 104.625 237.907 104.625ZM245.756 105.359V104.625L248.513 101.608C248.836 101.254 249.103 100.947 249.312 100.686C249.521 100.422 249.676 100.175 249.777 99.944C249.88 99.7102 249.932 99.4656 249.932 99.2101C249.932 98.9165 249.861 98.6623 249.72 98.4476C249.581 98.2328 249.391 98.067 249.149 97.9501C248.907 97.8332 248.635 97.7748 248.333 97.7748C248.013 97.7748 247.733 97.8414 247.493 97.9746C247.257 98.1051 247.073 98.2886 246.943 98.525C246.815 98.7615 246.751 99.0388 246.751 99.3568H245.789C245.789 98.8676 245.902 98.4381 246.127 98.0684C246.353 97.6987 246.66 97.4105 247.049 97.2039C247.44 96.9974 247.879 96.8941 248.366 96.8941C248.855 96.8941 249.289 96.9974 249.667 97.2039C250.045 97.4105 250.341 97.6892 250.556 98.0398C250.77 98.3905 250.878 98.7806 250.878 99.2101C250.878 99.5172 250.822 99.8176 250.71 100.111C250.602 100.402 250.411 100.727 250.14 101.086C249.871 101.442 249.497 101.877 249.018 102.39L247.143 104.397V104.462H251.024V105.359H245.756ZM255.432 105.473C254.818 105.473 254.295 105.306 253.862 104.972C253.43 104.634 253.1 104.147 252.872 103.508C252.643 102.866 252.529 102.091 252.529 101.184C252.529 100.281 252.643 99.5104 252.872 98.8716C253.103 98.2301 253.434 97.7408 253.866 97.4037C254.301 97.0639 254.823 96.8941 255.432 96.8941C256.041 96.8941 256.562 97.0639 256.994 97.4037C257.429 97.7408 257.76 98.2301 257.989 98.8716C258.22 99.5104 258.335 100.281 258.335 101.184C258.335 102.091 258.221 102.866 257.993 103.508C257.765 104.147 257.434 104.634 257.002 104.972C256.57 105.306 256.047 105.473 255.432 105.473ZM255.432 104.576C256.041 104.576 256.514 104.282 256.851 103.695C257.188 103.108 257.357 102.271 257.357 101.184C257.357 100.46 257.279 99.8448 257.124 99.3365C256.972 98.8281 256.752 98.4408 256.464 98.1744C256.178 97.908 255.835 97.7748 255.432 97.7748C254.829 97.7748 254.357 98.0724 254.017 98.6678C253.678 99.2603 253.508 100.099 253.508 101.184C253.508 101.907 253.584 102.521 253.736 103.027C253.888 103.532 254.107 103.917 254.392 104.18C254.681 104.444 255.027 104.576 255.432 104.576ZM259.885 105.359V104.625L262.641 101.608C262.965 101.254 263.231 100.947 263.44 100.686C263.65 100.422 263.805 100.175 263.905 99.944C264.008 99.7102 264.06 99.4656 264.06 99.2101C264.06 98.9165 263.989 98.6623 263.848 98.4476C263.709 98.2328 263.519 98.067 263.277 97.9501C263.035 97.8332 262.764 97.7748 262.462 97.7748C262.141 97.7748 261.861 97.8414 261.622 97.9746C261.385 98.1051 261.202 98.2886 261.071 98.525C260.944 98.7615 260.88 99.0388 260.88 99.3568H259.917C259.917 98.8676 260.03 98.4381 260.256 98.0684C260.481 97.6987 260.789 97.4105 261.177 97.2039C261.569 96.9974 262.008 96.8941 262.494 96.8941C262.984 96.8941 263.417 96.9974 263.795 97.2039C264.173 97.4105 264.469 97.6892 264.684 98.0398C264.899 98.3905 265.006 98.7806 265.006 99.2101C265.006 99.5172 264.95 99.8176 264.839 100.111C264.73 100.402 264.54 100.727 264.268 101.086C263.999 101.442 263.625 101.877 263.147 102.39L261.271 104.397V104.462H265.153V105.359H259.885ZM266.837 105.359V104.625L269.593 101.608C269.917 101.254 270.183 100.947 270.392 100.686C270.602 100.422 270.757 100.175 270.857 99.944C270.961 99.7102 271.012 99.4656 271.012 99.2101C271.012 98.9165 270.942 98.6623 270.8 98.4476C270.662 98.2328 270.471 98.067 270.229 97.9501C269.987 97.8332 269.716 97.7748 269.414 97.7748C269.093 97.7748 268.813 97.8414 268.574 97.9746C268.337 98.1051 268.154 98.2886 268.023 98.525C267.896 98.7615 267.832 99.0388 267.832 99.3568H266.87C266.87 98.8676 266.982 98.4381 267.208 98.0684C267.434 97.6987 267.741 97.4105 268.129 97.2039C268.521 96.9974 268.96 96.8941 269.446 96.8941C269.936 96.8941 270.369 96.9974 270.747 97.2039C271.125 97.4105 271.421 97.6892 271.636 98.0398C271.851 98.3905 271.958 98.7806 271.958 99.2101C271.958 99.5172 271.902 99.8176 271.791 100.111C271.682 100.402 271.492 100.727 271.22 101.086C270.951 101.442 270.577 101.877 270.099 102.39L268.223 104.397V104.462H272.105V105.359H266.837Z" fill="white"/>
<path d="M278.732 100.443C278.212 100.443 277.748 100.372 277.342 100.231C276.936 100.09 276.593 99.884 276.312 99.6116C276.032 99.3409 275.818 99.0098 275.671 98.6183C275.524 98.2269 275.451 97.7817 275.451 97.2826C275.451 96.79 275.524 96.3431 275.671 95.9419C275.82 95.5407 276.036 95.1965 276.32 94.9095C276.603 94.6208 276.95 94.399 277.359 94.244C277.77 94.0891 278.238 94.0116 278.764 94.0116C279.25 94.0116 279.683 94.0826 280.065 94.2245C280.448 94.3664 280.773 94.5686 281.039 94.8312C281.306 95.0922 281.509 95.4029 281.648 95.7633C281.788 96.1221 281.858 96.5193 281.856 96.9547C281.858 97.2548 281.831 97.5305 281.778 97.7817C281.724 98.0328 281.639 98.2522 281.523 98.4398C281.409 98.6257 281.259 98.7733 281.073 98.8826C280.887 98.9902 280.662 99.0514 280.398 99.0661C280.209 99.0807 280.055 99.0669 279.938 99.0245C279.82 98.9821 279.731 98.9193 279.669 98.8361C279.608 98.7513 279.569 98.6526 279.551 98.5401H279.522C279.483 98.6379 279.406 98.7268 279.292 98.8067C279.178 98.885 279.038 98.9462 278.874 98.9902C278.711 99.0326 278.537 99.0481 278.353 99.0367C278.16 99.0253 277.977 98.9804 277.805 98.9021C277.633 98.8239 277.481 98.7105 277.347 98.5621C277.215 98.4137 277.111 98.2302 277.034 98.0116C276.959 97.7931 276.921 97.5403 276.919 97.2532C276.921 96.9694 276.961 96.7223 277.039 96.5119C277.119 96.3015 277.224 96.1246 277.354 95.981C277.487 95.8375 277.633 95.725 277.795 95.6434C277.956 95.5619 278.119 95.5097 278.282 95.4869C278.466 95.4591 278.64 95.4591 278.805 95.4869C278.97 95.5146 279.109 95.5594 279.221 95.6214C279.335 95.6834 279.406 95.7503 279.434 95.822H279.468V95.548H280.234V97.9358C280.236 98.0483 280.261 98.1356 280.31 98.1976C280.359 98.2595 280.425 98.2905 280.508 98.2905C280.62 98.2905 280.714 98.2408 280.789 98.1413C280.866 98.0418 280.923 97.8893 280.961 97.6838C281 97.4783 281.019 97.2165 281.019 96.8985C281.019 96.5918 280.978 96.3227 280.897 96.0911C280.817 95.8579 280.704 95.6597 280.559 95.4966C280.416 95.3319 280.249 95.1982 280.058 95.0954C279.867 94.9927 279.66 94.9176 279.436 94.8703C279.215 94.823 278.986 94.7994 278.751 94.7994C278.345 94.7994 277.991 94.8614 277.687 94.9853C277.384 95.1076 277.131 95.2797 276.929 95.5015C276.726 95.7233 276.575 95.9835 276.474 96.282C276.374 96.5788 276.324 96.9025 276.322 97.2532C276.324 97.6398 276.377 97.9823 276.483 98.2807C276.591 98.5776 276.749 98.8271 276.958 99.0294C277.167 99.2316 277.425 99.3849 277.731 99.4893C278.038 99.5937 278.39 99.6459 278.788 99.6459C278.976 99.6459 279.159 99.632 279.339 99.6043C279.518 99.5782 279.68 99.5456 279.825 99.5064C279.971 99.4689 280.087 99.4322 280.175 99.3963L280.417 100.106C280.315 100.165 280.175 100.219 279.999 100.27C279.825 100.322 279.627 100.364 279.407 100.394C279.188 100.427 278.963 100.443 278.732 100.443ZM278.619 98.2318C278.818 98.2318 278.976 98.1935 279.094 98.1168C279.213 98.0402 279.298 97.9268 279.348 97.7768C279.4 97.6251 279.425 97.4383 279.422 97.2165C279.42 97.0208 279.395 96.8552 279.346 96.7199C279.299 96.5829 279.216 96.4793 279.099 96.4092C278.983 96.3374 278.821 96.3015 278.614 96.3015C278.433 96.3015 278.279 96.3399 278.152 96.4165C278.026 96.4932 277.93 96.6008 277.863 96.7394C277.798 96.8765 277.765 97.0379 277.763 97.2239C277.765 97.3967 277.792 97.5607 277.846 97.7156C277.9 97.8689 277.989 97.9937 278.113 98.0899C278.237 98.1845 278.406 98.2318 278.619 98.2318Z" fill="white"/>
</g>
</svg>
