<svg width="360" height="56" viewBox="0 0 360 56" fill="none" xmlns="http://www.w3.org/2000/svg">
<g filter="url(#filter0_d_102_3)">
<mask id="mask0_102_3" style="mask-type:alpha" maskUnits="userSpaceOnUse" x="-63" y="0" width="512" height="57">
<rect x="-63" width="512" height="56.2116" fill="#D9D9D9"/>
</mask>
<g mask="url(#mask0_102_3)">
<path d="M-490.067 17.2629C-490.067 17.2629 -453.979 2.73856 -404.243 1.47905C-345.884 0.00114082 -346.537 16.9279 -287.523 17.2629C-225.886 17.6127 -223.888 1.61076 -162.22 1.47905C-99.4822 1.34506 -96.1555 17.7527 -33.4837 17.2629C25.4993 16.8019 24.2833 2.03169 83.237 1.47905C146.685 0.884279 151.002 17.3951 214.548 17.2629C277.017 17.1328 279.962 1.67245 342.426 1.47905C406.508 1.28064 411.637 18.2414 475.453 17.2629C532.211 16.3926 528.789 2.70017 585.307 1.47905C652.402 0.0294053 661.838 16.998 729.492 17.2629C799.675 17.5376 811.206 1.29812 881.4 1.47905C949.904 1.65562 959.747 16.6552 1028.16 17.2629C1102.84 17.9263 1119.81 -0.317546 1193.8 1.47905C1258.18 3.04233 1319.96 19.3768 1319.96 19.3768V26.9293V56.2116H-490.067V17.2629Z" fill="#A5BBF8"/>
<path d="M144.332 34.9991H143.597C143.583 34.904 143.556 34.8196 143.514 34.7457C143.473 34.6707 143.42 34.607 143.355 34.5544C143.29 34.5018 143.215 34.4615 143.13 34.4335C143.046 34.4055 142.955 34.3916 142.856 34.3916C142.678 34.3916 142.523 34.4357 142.391 34.5241C142.259 34.6114 142.157 34.739 142.084 34.9068C142.012 35.0736 141.975 35.2761 141.975 35.5144C141.975 35.7595 142.012 35.9654 142.084 36.1321C142.158 36.2988 142.261 36.4247 142.393 36.5097C142.525 36.5948 142.678 36.6373 142.851 36.6373C142.949 36.6373 143.039 36.6244 143.122 36.5987C143.205 36.573 143.28 36.5355 143.345 36.4862C143.41 36.4359 143.463 36.3749 143.506 36.3033C143.55 36.2317 143.58 36.15 143.597 36.0582L144.332 36.0616C144.313 36.2194 144.265 36.3716 144.189 36.5181C144.114 36.6636 144.013 36.794 143.885 36.9092C143.759 37.0233 143.608 37.114 143.432 37.1811C143.258 37.2471 143.06 37.2802 142.84 37.2802C142.533 37.2802 142.259 37.2108 142.017 37.072C141.777 36.9333 141.586 36.7324 141.446 36.4695C141.308 36.2065 141.238 35.8882 141.238 35.5144C141.238 35.1396 141.309 34.8207 141.45 34.5577C141.591 34.2948 141.782 34.0945 142.024 33.9568C142.266 33.8181 142.537 33.7487 142.84 33.7487C143.039 33.7487 143.223 33.7767 143.393 33.8326C143.565 33.8886 143.716 33.9703 143.848 34.0777C143.98 34.184 144.088 34.3143 144.171 34.4688C144.255 34.6232 144.308 34.8 144.332 34.9991ZM146.004 37.2835C145.744 37.2835 145.518 37.2281 145.328 37.1173C145.139 37.0054 144.993 36.8499 144.89 36.6507C144.787 36.4504 144.735 36.2183 144.735 35.9542C144.735 35.6879 144.787 35.4551 144.89 35.2559C144.993 35.0557 145.139 34.9001 145.328 34.7893C145.518 34.6774 145.744 34.6215 146.004 34.6215C146.265 34.6215 146.49 34.6774 146.679 34.7893C146.869 34.9001 147.016 35.0557 147.119 35.2559C147.222 35.4551 147.273 35.6879 147.273 35.9542C147.273 36.2183 147.222 36.4504 147.119 36.6507C147.016 36.8499 146.869 37.0054 146.679 37.1173C146.49 37.2281 146.265 37.2835 146.004 37.2835ZM146.008 36.7296C146.126 36.7296 146.225 36.6961 146.305 36.6289C146.384 36.5607 146.444 36.4678 146.484 36.3503C146.526 36.2328 146.546 36.0991 146.546 35.9491C146.546 35.7992 146.526 35.6655 146.484 35.548C146.444 35.4305 146.384 35.3376 146.305 35.2694C146.225 35.2011 146.126 35.167 146.008 35.167C145.888 35.167 145.787 35.2011 145.706 35.2694C145.625 35.3376 145.564 35.4305 145.523 35.548C145.482 35.6655 145.462 35.7992 145.462 35.9491C145.462 36.0991 145.482 36.2328 145.523 36.3503C145.564 36.4678 145.625 36.5607 145.706 36.6289C145.787 36.6961 145.888 36.7296 146.008 36.7296ZM148.688 37.2751C148.492 37.2751 148.315 37.2248 148.156 37.1241C147.998 37.0222 147.873 36.8728 147.78 36.6759C147.688 36.4779 147.642 36.235 147.642 35.9475C147.642 35.6521 147.69 35.4064 147.785 35.2106C147.88 35.0137 148.007 34.8665 148.164 34.7692C148.323 34.6707 148.497 34.6215 148.686 34.6215C148.831 34.6215 148.951 34.6461 149.047 34.6953C149.145 34.7435 149.223 34.8039 149.282 34.8766C149.343 34.9482 149.389 35.0187 149.42 35.0881H149.442V33.7957H150.155V37.2332H149.45V36.8203H149.42C149.386 36.8919 149.339 36.9629 149.277 37.0334C149.217 37.1028 149.138 37.1604 149.041 37.2063C148.944 37.2522 148.827 37.2751 148.688 37.2751ZM148.915 36.7061C149.03 36.7061 149.127 36.6748 149.207 36.6121C149.287 36.5483 149.349 36.4594 149.391 36.3453C149.435 36.2311 149.457 36.0974 149.457 35.9441C149.457 35.7908 149.436 35.6577 149.393 35.5446C149.351 35.4316 149.289 35.3443 149.208 35.2828C149.128 35.2213 149.03 35.1905 148.915 35.1905C148.797 35.1905 148.698 35.2224 148.618 35.2862C148.537 35.3499 148.476 35.4383 148.435 35.5514C148.393 35.6644 148.373 35.7953 148.373 35.9441C148.373 36.0941 148.393 36.2266 148.435 36.3419C148.477 36.456 148.538 36.5456 148.618 36.6105C148.698 36.6742 148.797 36.7061 148.915 36.7061ZM151.918 37.2835C151.653 37.2835 151.424 37.2298 151.233 37.1224C151.043 37.0138 150.896 36.8605 150.793 36.6625C150.69 36.4633 150.639 36.2278 150.639 35.9559C150.639 35.6907 150.69 35.4579 150.793 35.2576C150.896 35.0573 151.041 34.9012 151.228 34.7893C151.416 34.6774 151.636 34.6215 151.889 34.6215C152.059 34.6215 152.218 34.6489 152.364 34.7037C152.512 34.7575 152.641 34.8386 152.75 34.9471C152.861 35.0557 152.947 35.1922 153.009 35.3567C153.07 35.52 153.101 35.7114 153.101 35.9307V36.1271H150.924V35.684H152.428C152.428 35.581 152.406 35.4898 152.361 35.4104C152.316 35.3309 152.254 35.2688 152.175 35.2241C152.096 35.1782 152.005 35.1552 151.901 35.1552C151.793 35.1552 151.696 35.1804 151.612 35.2308C151.53 35.28 151.465 35.3466 151.418 35.4305C151.371 35.5133 151.347 35.6056 151.346 35.7074V36.1287C151.346 36.2563 151.369 36.3665 151.416 36.4594C151.464 36.5523 151.532 36.6239 151.619 36.6742C151.706 36.7246 151.81 36.7498 151.93 36.7498C152.009 36.7498 152.082 36.7386 152.148 36.7162C152.214 36.6938 152.27 36.6602 152.317 36.6155C152.364 36.5707 152.4 36.5159 152.425 36.451L153.086 36.4946C153.052 36.6535 152.984 36.7923 152.88 36.9109C152.777 37.0284 152.643 37.1201 152.48 37.1862C152.318 37.2511 152.13 37.2835 151.918 37.2835ZM154.518 37.2751C154.322 37.2751 154.145 37.2248 153.986 37.1241C153.828 37.0222 153.703 36.8728 153.61 36.6759C153.518 36.4779 153.472 36.235 153.472 35.9475C153.472 35.6521 153.52 35.4064 153.615 35.2106C153.71 35.0137 153.836 34.8665 153.994 34.7692C154.153 34.6707 154.327 34.6215 154.516 34.6215C154.66 34.6215 154.781 34.6461 154.877 34.6953C154.974 34.7435 155.053 34.8039 155.112 34.8766C155.172 34.9482 155.218 35.0187 155.25 35.0881H155.271V33.7957H155.985V37.2332H155.28V36.8203H155.25C155.216 36.8919 155.168 36.9629 155.107 37.0334C155.046 37.1028 154.968 37.1604 154.87 37.2063C154.774 37.2522 154.657 37.2751 154.518 37.2751ZM154.744 36.7061C154.86 36.7061 154.957 36.6748 155.036 36.6121C155.117 36.5483 155.179 36.4594 155.221 36.3453C155.265 36.2311 155.286 36.0974 155.286 35.9441C155.286 35.7908 155.265 35.6577 155.223 35.5446C155.18 35.4316 155.119 35.3443 155.038 35.2828C154.958 35.2213 154.86 35.1905 154.744 35.1905C154.627 35.1905 154.528 35.2224 154.447 35.2862C154.367 35.3499 154.306 35.4383 154.264 35.5514C154.223 35.6644 154.202 35.7953 154.202 35.9441C154.202 36.0941 154.223 36.2266 154.264 36.3419C154.307 36.456 154.368 36.5456 154.447 36.6105C154.528 36.6742 154.627 36.7061 154.744 36.7061ZM157.68 37.2332V33.7957H158.395V35.0881H158.417C158.448 35.0187 158.493 34.9482 158.553 34.8766C158.613 34.8039 158.691 34.7435 158.788 34.6953C158.885 34.6461 159.006 34.6215 159.15 34.6215C159.338 34.6215 159.512 34.6707 159.671 34.7692C159.829 34.8665 159.956 35.0137 160.052 35.2106C160.147 35.4064 160.194 35.6521 160.194 35.9475C160.194 36.235 160.148 36.4779 160.055 36.6759C159.963 36.8728 159.838 37.0222 159.679 37.1241C159.521 37.2248 159.344 37.2751 159.149 37.2751C159.01 37.2751 158.892 37.2522 158.794 37.2063C158.698 37.1604 158.619 37.1028 158.558 37.0334C158.496 36.9629 158.449 36.8919 158.417 36.8203H158.385V37.2332H157.68ZM158.38 35.9441C158.38 36.0974 158.401 36.2311 158.444 36.3453C158.486 36.4594 158.548 36.5483 158.628 36.6121C158.709 36.6748 158.807 36.7061 158.922 36.7061C159.038 36.7061 159.137 36.6742 159.217 36.6105C159.298 36.5456 159.359 36.456 159.4 36.3419C159.443 36.2266 159.464 36.0941 159.464 35.9441C159.464 35.7953 159.443 35.6644 159.402 35.5514C159.361 35.4383 159.3 35.3499 159.219 35.2862C159.139 35.2224 159.039 35.1905 158.922 35.1905C158.806 35.1905 158.707 35.2213 158.627 35.2828C158.547 35.3443 158.486 35.4316 158.444 35.5446C158.401 35.6577 158.38 35.7908 158.38 35.9441ZM161.03 38.1999C160.939 38.1999 160.854 38.1927 160.775 38.1781C160.696 38.1647 160.631 38.1473 160.58 38.1261L160.741 37.5923C160.825 37.6181 160.9 37.6321 160.968 37.6343C161.036 37.6365 161.095 37.6209 161.144 37.5873C161.194 37.5537 161.235 37.4967 161.266 37.4161L161.308 37.307L160.383 34.6551H161.135L161.669 36.5483H161.696L162.235 34.6551H162.992L161.99 37.5118C161.942 37.6505 161.876 37.7714 161.793 37.8743C161.712 37.9784 161.608 38.0584 161.483 38.1143C161.358 38.1714 161.206 38.1999 161.03 38.1999ZM165.058 37.2332H164.279L165.465 33.7957H166.402L167.587 37.2332H166.808L165.947 34.5812H165.92L165.058 37.2332ZM165.009 35.882H166.848V36.4493H165.009V35.882ZM168.702 33.7957V37.2332H167.987V33.7957H168.702ZM169.275 37.2332V34.6551H169.99V37.2332H169.275ZM169.634 34.3227C169.528 34.3227 169.437 34.2875 169.361 34.217C169.286 34.1454 169.248 34.0598 169.248 33.9602C169.248 33.8617 169.286 33.7772 169.361 33.7067C169.437 33.6351 169.528 33.5993 169.634 33.5993C169.741 33.5993 169.831 33.6351 169.906 33.7067C169.982 33.7772 170.02 33.8617 170.02 33.9602C170.02 34.0598 169.982 34.1454 169.906 34.217C169.831 34.2875 169.741 34.3227 169.634 34.3227ZM170.563 37.2332V34.6551H171.256V35.1049H171.283C171.33 34.9449 171.409 34.824 171.52 34.7423C171.63 34.6595 171.758 34.6181 171.902 34.6181C171.938 34.6181 171.977 34.6204 172.018 34.6249C172.059 34.6293 172.096 34.6355 172.127 34.6433V35.2778C172.094 35.2677 172.047 35.2587 171.988 35.2509C171.929 35.2431 171.874 35.2392 171.825 35.2392C171.72 35.2392 171.626 35.2621 171.543 35.308C171.461 35.3527 171.396 35.4154 171.348 35.496C171.301 35.5765 171.278 35.6694 171.278 35.7746V37.2332H170.563ZM173.552 37.2835C173.287 37.2835 173.058 37.2298 172.867 37.1224C172.677 37.0138 172.53 36.8605 172.427 36.6625C172.324 36.4633 172.273 36.2278 172.273 35.9559C172.273 35.6907 172.324 35.4579 172.427 35.2576C172.53 35.0573 172.675 34.9012 172.862 34.7893C173.05 34.6774 173.27 34.6215 173.523 34.6215C173.693 34.6215 173.852 34.6489 173.998 34.7037C174.146 34.7575 174.275 34.8386 174.384 34.9471C174.495 35.0557 174.581 35.1922 174.643 35.3567C174.704 35.52 174.735 35.7114 174.735 35.9307V36.1271H172.558V35.684H174.062C174.062 35.581 174.04 35.4898 173.995 35.4104C173.95 35.3309 173.888 35.2688 173.809 35.2241C173.73 35.1782 173.639 35.1552 173.535 35.1552C173.426 35.1552 173.33 35.1804 173.246 35.2308C173.163 35.28 173.099 35.3466 173.052 35.4305C173.005 35.5133 172.98 35.6056 172.979 35.7074V36.1287C172.979 36.2563 173.003 36.3665 173.05 36.4594C173.098 36.5523 173.166 36.6239 173.253 36.6742C173.34 36.7246 173.444 36.7498 173.563 36.7498C173.643 36.7498 173.716 36.7386 173.782 36.7162C173.848 36.6938 173.904 36.6602 173.951 36.6155C173.998 36.5707 174.034 36.5159 174.059 36.451L174.72 36.4946C174.686 36.6535 174.618 36.7923 174.513 36.9109C174.411 37.0284 174.277 37.1201 174.114 37.1862C173.952 37.2511 173.764 37.2835 173.552 37.2835ZM175.188 37.2332V36.8068L176.45 35.2442V35.2257H175.232V34.6551H177.311V35.12L176.126 36.644V36.6625H177.355V37.2332H175.188ZM178.637 37.2818C178.472 37.2818 178.326 37.2533 178.197 37.1962C178.069 37.138 177.967 37.0524 177.892 36.9394C177.818 36.8253 177.781 36.6832 177.781 36.5131C177.781 36.3699 177.807 36.2496 177.86 36.1522C177.912 36.0549 177.984 35.9766 178.075 35.9173C178.165 35.8579 178.268 35.8132 178.384 35.783C178.5 35.7528 178.622 35.7315 178.749 35.7192C178.899 35.7035 179.02 35.689 179.112 35.6756C179.204 35.661 179.27 35.6398 179.312 35.6118C179.353 35.5838 179.374 35.5424 179.374 35.4876V35.4775C179.374 35.3712 179.34 35.289 179.273 35.2308C179.207 35.1726 179.113 35.1435 178.991 35.1435C178.862 35.1435 178.76 35.172 178.684 35.2291C178.608 35.285 178.558 35.3555 178.533 35.4406L177.872 35.3869C177.905 35.2302 177.971 35.0948 178.07 34.9807C178.168 34.8654 178.295 34.777 178.451 34.7155C178.607 34.6528 178.789 34.6215 178.994 34.6215C179.138 34.6215 179.275 34.6383 179.406 34.6719C179.538 34.7054 179.655 34.7575 179.757 34.8279C179.859 34.8984 179.941 34.9891 180 35.0999C180.059 35.2095 180.089 35.341 180.089 35.4943V37.2332H179.411V36.8756H179.391C179.349 36.9562 179.294 37.0273 179.224 37.0888C179.155 37.1492 179.072 37.1968 178.974 37.2315C178.877 37.265 178.765 37.2818 178.637 37.2818ZM178.842 36.7884C178.947 36.7884 179.04 36.7677 179.12 36.7263C179.201 36.6837 179.264 36.6267 179.31 36.5551C179.356 36.4834 179.379 36.4023 179.379 36.3117V36.0381C179.356 36.0526 179.326 36.0661 179.287 36.0784C179.248 36.0896 179.205 36.1002 179.157 36.1103C179.109 36.1192 179.061 36.1276 179.013 36.1355C178.965 36.1422 178.921 36.1483 178.882 36.1539C178.798 36.1662 178.725 36.1858 178.662 36.2127C178.6 36.2395 178.551 36.2759 178.516 36.3218C178.481 36.3665 178.464 36.4225 178.464 36.4896C178.464 36.587 178.499 36.6614 178.57 36.7128C178.641 36.7632 178.732 36.7884 178.842 36.7884ZM181.751 37.2332V33.7957H182.478V35.3113H182.523L183.76 33.7957H184.631L183.356 35.3348L184.646 37.2332H183.777L182.835 35.8199L182.478 36.2563V37.2332H181.751ZM185.731 37.2818C185.567 37.2818 185.42 37.2533 185.292 37.1962C185.163 37.138 185.061 37.0524 184.986 36.9394C184.912 36.8253 184.875 36.6832 184.875 36.5131C184.875 36.3699 184.902 36.2496 184.954 36.1522C185.007 36.0549 185.078 35.9766 185.169 35.9173C185.26 35.8579 185.363 35.8132 185.478 35.783C185.594 35.7528 185.716 35.7315 185.844 35.7192C185.994 35.7035 186.115 35.689 186.206 35.6756C186.298 35.661 186.365 35.6398 186.406 35.6118C186.447 35.5838 186.468 35.5424 186.468 35.4876V35.4775C186.468 35.3712 186.435 35.289 186.367 35.2308C186.301 35.1726 186.207 35.1435 186.085 35.1435C185.957 35.1435 185.854 35.172 185.778 35.2291C185.702 35.285 185.652 35.3555 185.627 35.4406L184.966 35.3869C185 35.2302 185.066 35.0948 185.164 34.9807C185.263 34.8654 185.39 34.777 185.545 34.7155C185.702 34.6528 185.883 34.6215 186.089 34.6215C186.232 34.6215 186.369 34.6383 186.5 34.6719C186.632 34.7054 186.749 34.7575 186.851 34.8279C186.954 34.8984 187.035 34.9891 187.094 35.0999C187.154 35.2095 187.183 35.341 187.183 35.4943V37.2332H186.505V36.8756H186.485C186.444 36.9562 186.388 37.0273 186.319 37.0888C186.249 37.1492 186.166 37.1968 186.069 37.2315C185.971 37.265 185.859 37.2818 185.731 37.2818ZM185.936 36.7884C186.041 36.7884 186.134 36.7677 186.215 36.7263C186.295 36.6837 186.359 36.6267 186.404 36.5551C186.45 36.4834 186.473 36.4023 186.473 36.3117V36.0381C186.451 36.0526 186.42 36.0661 186.381 36.0784C186.343 36.0896 186.3 36.1002 186.252 36.1103C186.204 36.1192 186.155 36.1276 186.107 36.1355C186.059 36.1422 186.016 36.1483 185.976 36.1539C185.892 36.1662 185.819 36.1858 185.757 36.2127C185.694 36.2395 185.645 36.2759 185.61 36.3218C185.576 36.3665 185.558 36.4225 185.558 36.4896C185.558 36.587 185.594 36.6614 185.664 36.7128C185.736 36.7632 185.826 36.7884 185.936 36.7884ZM190.049 34.6551L189.148 37.2332H188.342L187.441 34.6551H188.196L188.732 36.4997H188.758L189.292 34.6551H190.049ZM191.497 37.2835C191.236 37.2835 191.011 37.2281 190.82 37.1173C190.631 37.0054 190.485 36.8499 190.382 36.6507C190.279 36.4504 190.228 36.2183 190.228 35.9542C190.228 35.6879 190.279 35.4551 190.382 35.2559C190.485 35.0557 190.631 34.9001 190.82 34.7893C191.011 34.6774 191.236 34.6215 191.497 34.6215C191.758 34.6215 191.982 34.6774 192.172 34.7893C192.362 34.9001 192.508 35.0557 192.611 35.2559C192.714 35.4551 192.766 35.6879 192.766 35.9542C192.766 36.2183 192.714 36.4504 192.611 36.6507C192.508 36.8499 192.362 37.0054 192.172 37.1173C191.982 37.2281 191.758 37.2835 191.497 37.2835ZM191.5 36.7296C191.619 36.7296 191.718 36.6961 191.797 36.6289C191.877 36.5607 191.937 36.4678 191.977 36.3503C192.018 36.2328 192.039 36.0991 192.039 35.9491C192.039 35.7992 192.018 35.6655 191.977 35.548C191.937 35.4305 191.877 35.3376 191.797 35.2694C191.718 35.2011 191.619 35.167 191.5 35.167C191.38 35.167 191.28 35.2011 191.198 35.2694C191.117 35.3376 191.056 35.4305 191.015 35.548C190.975 35.6655 190.955 35.7992 190.955 35.9491C190.955 36.0991 190.975 36.2328 191.015 36.3503C191.056 36.4678 191.117 36.5607 191.198 36.6289C191.28 36.6961 191.38 36.7296 191.5 36.7296ZM194.884 36.1355V34.6551H195.599V37.2332H194.912V36.7649H194.886C194.827 36.9159 194.731 37.0373 194.595 37.1291C194.461 37.2208 194.297 37.2667 194.103 37.2667C193.931 37.2667 193.779 37.2276 193.649 37.1492C193.518 37.0709 193.415 36.9596 193.341 36.8152C193.269 36.6709 193.232 36.498 193.231 36.2966V34.6551H193.946V36.169C193.947 36.3212 193.988 36.4415 194.068 36.5299C194.149 36.6183 194.257 36.6625 194.392 36.6625C194.478 36.6625 194.559 36.6429 194.634 36.6037C194.709 36.5635 194.769 36.5042 194.815 36.4258C194.862 36.3475 194.885 36.2507 194.884 36.1355ZM198.316 35.3902L197.661 35.4305C197.65 35.3746 197.626 35.3242 197.589 35.2794C197.552 35.2336 197.504 35.1972 197.443 35.1703C197.384 35.1424 197.313 35.1284 197.23 35.1284C197.119 35.1284 197.026 35.1519 196.95 35.1989C196.874 35.2448 196.836 35.3063 196.836 35.3835C196.836 35.4451 196.86 35.4971 196.909 35.5396C196.959 35.5821 197.043 35.6163 197.163 35.642L197.629 35.736C197.88 35.7875 198.067 35.8703 198.19 35.9844C198.313 36.0985 198.375 36.2485 198.375 36.4342C198.375 36.6032 198.325 36.7514 198.225 36.879C198.127 37.0066 197.991 37.1062 197.819 37.1778C197.648 37.2483 197.45 37.2835 197.227 37.2835C196.885 37.2835 196.613 37.2125 196.411 37.0703C196.209 36.9271 196.091 36.7324 196.057 36.4862L196.76 36.4493C196.781 36.5534 196.833 36.6328 196.914 36.6877C196.996 36.7414 197.101 36.7682 197.228 36.7682C197.354 36.7682 197.454 36.7442 197.53 36.6961C197.608 36.6468 197.647 36.5836 197.648 36.5064C197.647 36.4415 197.619 36.3883 197.566 36.3469C197.512 36.3044 197.429 36.272 197.317 36.2496L196.871 36.1606C196.619 36.1103 196.432 36.023 196.308 35.8988C196.187 35.7746 196.126 35.6163 196.126 35.4238C196.126 35.2582 196.17 35.1155 196.26 34.9958C196.35 34.8761 196.477 34.7837 196.641 34.7188C196.805 34.6539 196.998 34.6215 197.218 34.6215C197.544 34.6215 197.8 34.6903 197.987 34.8279C198.175 34.9656 198.285 35.153 198.316 35.3902ZM199.266 38.1999C199.176 38.1999 199.091 38.1927 199.011 38.1781C198.933 38.1647 198.868 38.1473 198.816 38.1261L198.978 37.5923C199.062 37.6181 199.137 37.6321 199.204 37.6343C199.272 37.6365 199.331 37.6209 199.38 37.5873C199.431 37.5537 199.472 37.4967 199.503 37.4161L199.545 37.307L198.62 34.6551H199.372L199.906 36.5483H199.933L200.471 34.6551H201.228L200.226 37.5118C200.178 37.6505 200.113 37.7714 200.03 37.8743C199.948 37.9784 199.845 38.0584 199.719 38.1143C199.594 38.1714 199.443 38.1999 199.266 38.1999ZM203.403 35.7427V37.2332H202.688V34.6551H203.37V35.1099H203.4C203.457 34.96 203.553 34.8414 203.687 34.7541C203.821 34.6657 203.984 34.6215 204.175 34.6215C204.354 34.6215 204.51 34.6607 204.644 34.739C204.777 34.8173 204.88 34.9292 204.954 35.0747C205.028 35.219 205.065 35.3913 205.065 35.5916V37.2332H204.35V35.7192C204.351 35.5614 204.311 35.4383 204.229 35.3499C204.147 35.2604 204.035 35.2157 203.892 35.2157C203.795 35.2157 203.71 35.2364 203.637 35.2778C203.564 35.3192 203.507 35.3796 203.465 35.459C203.425 35.5374 203.404 35.6319 203.403 35.7427ZM206.803 37.2835C206.538 37.2835 206.31 37.2298 206.119 37.1224C205.928 37.0138 205.782 36.8605 205.679 36.6625C205.576 36.4633 205.524 36.2278 205.524 35.9559C205.524 35.6907 205.576 35.4579 205.679 35.2576C205.782 35.0573 205.927 34.9012 206.114 34.7893C206.302 34.6774 206.522 34.6215 206.775 34.6215C206.945 34.6215 207.103 34.6489 207.25 34.7037C207.398 34.7575 207.526 34.8386 207.636 34.9471C207.747 35.0557 207.833 35.1922 207.894 35.3567C207.956 35.52 207.987 35.7114 207.987 35.9307V36.1271H205.81V35.684H207.314C207.314 35.581 207.291 35.4898 207.246 35.4104C207.202 35.3309 207.14 35.2688 207.06 35.2241C206.982 35.1782 206.891 35.1552 206.787 35.1552C206.678 35.1552 206.582 35.1804 206.498 35.2308C206.415 35.28 206.35 35.3466 206.303 35.4305C206.256 35.5133 206.232 35.6056 206.231 35.7074V36.1287C206.231 36.2563 206.255 36.3665 206.302 36.4594C206.35 36.5523 206.417 36.6239 206.505 36.6742C206.592 36.7246 206.695 36.7498 206.815 36.7498C206.895 36.7498 206.967 36.7386 207.033 36.7162C207.099 36.6938 207.156 36.6602 207.203 36.6155C207.25 36.5707 207.286 36.5159 207.31 36.451L207.972 36.4946C207.938 36.6535 207.869 36.7923 207.765 36.9109C207.662 37.0284 207.529 37.1201 207.366 37.1862C207.203 37.2511 207.016 37.2835 206.803 37.2835ZM208.44 37.2332V36.8068L209.702 35.2442V35.2257H208.483V34.6551H210.563V35.12L209.378 36.644V36.6625H210.607V37.2332H208.44ZM211.868 35.7427V37.2332H211.153V33.7957H211.848V35.1099H211.879C211.937 34.9577 212.031 34.8386 212.161 34.7524C212.29 34.6651 212.453 34.6215 212.649 34.6215C212.828 34.6215 212.984 34.6607 213.117 34.739C213.252 34.8162 213.356 34.9275 213.429 35.073C213.504 35.2173 213.541 35.3902 213.54 35.5916V37.2332H212.825V35.7192C212.826 35.5603 212.786 35.4367 212.704 35.3483C212.624 35.2599 212.511 35.2157 212.365 35.2157C212.268 35.2157 212.182 35.2364 212.107 35.2778C212.033 35.3192 211.975 35.3796 211.932 35.459C211.891 35.5374 211.87 35.6319 211.868 35.7427ZM214.838 37.2818C214.674 37.2818 214.527 37.2533 214.398 37.1962C214.27 37.138 214.168 37.0524 214.093 36.9394C214.019 36.8253 213.982 36.6832 213.982 36.5131C213.982 36.3699 214.008 36.2496 214.061 36.1522C214.114 36.0549 214.185 35.9766 214.276 35.9173C214.366 35.8579 214.469 35.8132 214.585 35.783C214.701 35.7528 214.823 35.7315 214.951 35.7192C215.1 35.7035 215.221 35.689 215.313 35.6756C215.405 35.661 215.471 35.6398 215.513 35.6118C215.554 35.5838 215.575 35.5424 215.575 35.4876V35.4775C215.575 35.3712 215.541 35.289 215.474 35.2308C215.408 35.1726 215.314 35.1435 215.192 35.1435C215.064 35.1435 214.961 35.172 214.885 35.2291C214.809 35.285 214.759 35.3555 214.734 35.4406L214.073 35.3869C214.106 35.2302 214.172 35.0948 214.271 34.9807C214.369 34.8654 214.496 34.777 214.652 34.7155C214.808 34.6528 214.99 34.6215 215.196 34.6215C215.339 34.6215 215.476 34.6383 215.607 34.6719C215.739 34.7054 215.856 34.7575 215.958 34.8279C216.061 34.8984 216.142 34.9891 216.201 35.0999C216.26 35.2095 216.29 35.341 216.29 35.4943V37.2332H215.612V36.8756H215.592C215.55 36.9562 215.495 37.0273 215.426 37.0888C215.356 37.1492 215.273 37.1968 215.175 37.2315C215.078 37.265 214.966 37.2818 214.838 37.2818ZM215.043 36.7884C215.148 36.7884 215.241 36.7677 215.321 36.7263C215.402 36.6837 215.465 36.6267 215.511 36.5551C215.557 36.4834 215.58 36.4023 215.58 36.3117V36.0381C215.558 36.0526 215.527 36.0661 215.488 36.0784C215.45 36.0896 215.406 36.1002 215.358 36.1103C215.31 36.1192 215.262 36.1276 215.214 36.1355C215.166 36.1422 215.122 36.1483 215.083 36.1539C214.999 36.1662 214.926 36.1858 214.863 36.2127C214.801 36.2395 214.752 36.2759 214.717 36.3218C214.683 36.3665 214.665 36.4225 214.665 36.4896C214.665 36.587 214.7 36.6614 214.771 36.7128C214.843 36.7632 214.933 36.7884 215.043 36.7884ZM217.795 37.2751C217.599 37.2751 217.421 37.2248 217.263 37.1241C217.105 37.0222 216.979 36.8728 216.887 36.6759C216.795 36.4779 216.749 36.235 216.749 35.9475C216.749 35.6521 216.797 35.4064 216.892 35.2106C216.987 35.0137 217.113 34.8665 217.271 34.7692C217.43 34.6707 217.604 34.6215 217.793 34.6215C217.937 34.6215 218.058 34.6461 218.154 34.6953C218.251 34.7435 218.33 34.8039 218.389 34.8766C218.449 34.9482 218.495 35.0187 218.526 35.0881H218.548V33.7957H219.262V37.2332H218.557V36.8203H218.526C218.493 36.8919 218.445 36.9629 218.384 37.0334C218.323 37.1028 218.244 37.1604 218.147 37.2063C218.051 37.2522 217.933 37.2751 217.795 37.2751ZM218.021 36.7061C218.136 36.7061 218.234 36.6748 218.313 36.6121C218.394 36.5483 218.455 36.4594 218.498 36.3453C218.542 36.2311 218.563 36.0974 218.563 35.9441C218.563 35.7908 218.542 35.6577 218.5 35.5446C218.457 35.4316 218.396 35.3443 218.315 35.2828C218.234 35.2213 218.136 35.1905 218.021 35.1905C217.904 35.1905 217.805 35.2224 217.724 35.2862C217.644 35.3499 217.583 35.4383 217.541 35.5514C217.5 35.6644 217.479 35.7953 217.479 35.9441C217.479 36.0941 217.5 36.2266 217.541 36.3419C217.584 36.456 217.645 36.5456 217.724 36.6105C217.805 36.6742 217.904 36.7061 218.021 36.7061Z" fill="white"/>
<path d="M159.629 41.9853H159.317L160.219 39.53H160.526L161.427 41.9853H161.115L160.382 39.9184H160.363L159.629 41.9853ZM159.744 41.0262H161V41.2899H159.744V41.0262ZM162.054 39.53V41.9853H161.771V39.53H162.054ZM162.855 39.53V41.9853H162.572V39.53H162.855ZM164.361 41.9853V39.53H165.191C165.383 39.53 165.54 39.5627 165.663 39.6283C165.786 39.693 165.878 39.7821 165.937 39.8956C165.996 40.0091 166.025 40.1382 166.025 40.2829C166.025 40.4275 165.996 40.5558 165.937 40.6677C165.878 40.7796 165.787 40.8675 165.665 40.9315C165.542 40.9946 165.386 41.0262 165.196 41.0262H164.524V40.7576H165.186C165.317 40.7576 165.423 40.7384 165.503 40.7001C165.583 40.6617 165.642 40.6074 165.678 40.537C165.715 40.4659 165.733 40.3812 165.733 40.2829C165.733 40.1845 165.715 40.0986 165.678 40.0251C165.641 39.9516 165.582 39.8948 165.502 39.8549C165.421 39.8141 165.314 39.7937 165.181 39.7937H164.659V41.9853H164.361ZM165.517 40.8823L166.121 41.9853H165.776L165.181 40.8823H165.517ZM166.483 41.9853V40.1438H166.765V41.9853H166.483ZM166.626 39.8369C166.571 39.8369 166.524 39.8181 166.484 39.7805C166.445 39.743 166.425 39.6978 166.425 39.645C166.425 39.5923 166.445 39.5471 166.484 39.5096C166.524 39.472 166.571 39.4532 166.626 39.4532C166.682 39.4532 166.729 39.472 166.768 39.5096C166.808 39.5471 166.828 39.5923 166.828 39.645C166.828 39.6978 166.808 39.743 166.768 39.7805C166.729 39.8181 166.682 39.8369 166.626 39.8369ZM168.027 42.7142C167.89 42.7142 167.773 42.6966 167.675 42.6614C167.576 42.6271 167.494 42.5815 167.429 42.5248C167.364 42.4688 167.312 42.4089 167.274 42.3449L167.499 42.1867C167.525 42.2203 167.557 42.2586 167.597 42.3018C167.636 42.3457 167.689 42.3837 167.757 42.4157C167.826 42.4484 167.916 42.4648 168.027 42.4648C168.176 42.4648 168.298 42.4289 168.395 42.3569C168.492 42.285 168.54 42.1723 168.54 42.0188V41.6448H168.516C168.495 41.6784 168.466 41.7199 168.427 41.7695C168.39 41.8182 168.336 41.8618 168.264 41.9002C168.194 41.9377 168.099 41.9565 167.979 41.9565C167.83 41.9565 167.697 41.9213 167.579 41.851C167.461 41.7807 167.368 41.6784 167.299 41.5441C167.231 41.4098 167.197 41.2468 167.197 41.0549C167.197 40.8663 167.231 40.7021 167.297 40.5622C167.363 40.4215 167.456 40.3128 167.574 40.2361C167.692 40.1586 167.829 40.1198 167.984 40.1198C168.104 40.1198 168.199 40.1398 168.269 40.1798C168.34 40.2189 168.395 40.2637 168.432 40.314C168.471 40.3636 168.5 40.4043 168.521 40.4363H168.55V40.1438H168.823V42.038C168.823 42.1963 168.787 42.325 168.715 42.4241C168.644 42.524 168.548 42.5971 168.427 42.6435C168.308 42.6906 168.174 42.7142 168.027 42.7142ZM168.017 41.7023C168.131 41.7023 168.227 41.6764 168.305 41.6244C168.383 41.5725 168.443 41.4977 168.484 41.4002C168.525 41.3027 168.545 41.186 168.545 41.0501C168.545 40.9175 168.525 40.8004 168.485 40.6989C168.445 40.5974 168.386 40.5178 168.308 40.4603C168.229 40.4027 168.133 40.374 168.017 40.374C167.898 40.374 167.798 40.4043 167.718 40.4651C167.639 40.5258 167.579 40.6074 167.539 40.7097C167.5 40.812 167.48 40.9255 167.48 41.0501C167.48 41.178 167.5 41.2911 167.54 41.3894C167.581 41.4869 167.641 41.5637 167.72 41.6196C167.8 41.6748 167.899 41.7023 168.017 41.7023ZM169.624 40.8775V41.9853H169.341V39.53H169.624V40.4315H169.648C169.691 40.3364 169.756 40.2609 169.842 40.2049C169.929 40.1482 170.045 40.1198 170.19 40.1198C170.315 40.1198 170.425 40.145 170.519 40.1953C170.614 40.2449 170.687 40.3212 170.739 40.4243C170.792 40.5266 170.818 40.6569 170.818 40.8152V41.9853H170.535V40.8343C170.535 40.6881 170.497 40.575 170.421 40.4951C170.346 40.4143 170.242 40.374 170.108 40.374C170.016 40.374 169.932 40.3936 169.859 40.4327C169.786 40.4719 169.729 40.529 169.686 40.6042C169.645 40.6793 169.624 40.7704 169.624 40.8775ZM172.136 40.1438V40.3836H171.182V40.1438H172.136ZM171.46 39.7026H171.743V41.4578C171.743 41.5377 171.755 41.5976 171.778 41.6376C171.802 41.6768 171.832 41.7031 171.869 41.7167C171.907 41.7295 171.946 41.7359 171.988 41.7359C172.019 41.7359 172.045 41.7343 172.065 41.7311C172.085 41.7271 172.101 41.7239 172.113 41.7215L172.17 41.9757C172.151 41.9829 172.124 41.9901 172.09 41.9973C172.055 42.0053 172.012 42.0093 171.959 42.0093C171.879 42.0093 171.801 41.9921 171.724 41.9577C171.648 41.9233 171.585 41.871 171.535 41.8006C171.485 41.7303 171.46 41.6416 171.46 41.5345V39.7026ZM173.834 40.5562L173.579 40.6281C173.563 40.5858 173.54 40.5446 173.509 40.5046C173.478 40.4639 173.437 40.4303 173.384 40.4039C173.331 40.3776 173.264 40.3644 173.181 40.3644C173.069 40.3644 172.975 40.3904 172.9 40.4423C172.825 40.4935 172.788 40.5586 172.788 40.6377C172.788 40.7081 172.814 40.7636 172.865 40.8044C172.916 40.8451 172.996 40.8791 173.105 40.9063L173.378 40.9734C173.543 41.0134 173.665 41.0745 173.746 41.1568C173.827 41.2384 173.867 41.3435 173.867 41.4722C173.867 41.5777 173.837 41.672 173.776 41.7551C173.716 41.8382 173.632 41.9038 173.524 41.9517C173.416 41.9997 173.291 42.0236 173.148 42.0236C172.96 42.0236 172.804 41.9829 172.681 41.9014C172.558 41.8198 172.48 41.7007 172.448 41.5441L172.716 41.4769C172.742 41.5761 172.79 41.6504 172.861 41.6999C172.933 41.7495 173.027 41.7743 173.143 41.7743C173.275 41.7743 173.38 41.7463 173.457 41.6903C173.535 41.6336 173.575 41.5657 173.575 41.4865C173.575 41.4226 173.552 41.369 173.507 41.3259C173.463 41.2819 173.394 41.2492 173.301 41.2276L172.994 41.1556C172.826 41.1157 172.702 41.0537 172.623 40.9698C172.544 40.8851 172.505 40.7792 172.505 40.6521C172.505 40.5482 172.534 40.4563 172.593 40.3764C172.652 40.2964 172.732 40.2337 172.834 40.1881C172.936 40.1426 173.052 40.1198 173.181 40.1198C173.364 40.1198 173.507 40.1598 173.611 40.2397C173.715 40.3196 173.79 40.4251 173.834 40.5562ZM175.281 41.9853V39.53H176.111C176.302 39.53 176.46 39.5627 176.583 39.6283C176.706 39.693 176.797 39.7821 176.856 39.8956C176.915 40.0091 176.945 40.1382 176.945 40.2829C176.945 40.4275 176.915 40.5558 176.856 40.6677C176.797 40.7796 176.706 40.8675 176.584 40.9315C176.462 40.9946 176.306 41.0262 176.115 41.0262H175.444V40.7576H176.106C176.237 40.7576 176.342 40.7384 176.422 40.7001C176.503 40.6617 176.561 40.6074 176.597 40.537C176.634 40.4659 176.652 40.3812 176.652 40.2829C176.652 40.1845 176.634 40.0986 176.597 40.0251C176.56 39.9516 176.502 39.8948 176.421 39.8549C176.34 39.8141 176.234 39.7937 176.101 39.7937H175.578V41.9853H175.281ZM176.437 40.8823L177.041 41.9853H176.696L176.101 40.8823H176.437ZM178.154 42.0236C177.977 42.0236 177.824 41.9845 177.695 41.9061C177.567 41.827 177.469 41.7167 177.399 41.5753C177.33 41.433 177.296 41.2675 177.296 41.0789C177.296 40.8903 177.33 40.724 177.399 40.5802C177.469 40.4355 177.565 40.3228 177.689 40.2421C177.814 40.1606 177.959 40.1198 178.126 40.1198C178.221 40.1198 178.316 40.1358 178.41 40.1678C178.503 40.1997 178.588 40.2517 178.665 40.3236C178.742 40.3948 178.803 40.4891 178.848 40.6066C178.894 40.724 178.917 40.8687 178.917 41.0406V41.1604H177.497V40.9159H178.629C178.629 40.812 178.608 40.7192 178.567 40.6377C178.526 40.5562 178.468 40.4919 178.392 40.4447C178.317 40.3975 178.228 40.374 178.126 40.374C178.013 40.374 177.915 40.4019 177.833 40.4579C177.751 40.513 177.689 40.585 177.645 40.6737C177.601 40.7624 177.579 40.8575 177.579 40.959V41.1221C177.579 41.2611 177.603 41.379 177.651 41.4757C177.7 41.5717 177.767 41.6448 177.853 41.6951C177.94 41.7447 178.04 41.7695 178.154 41.7695C178.229 41.7695 178.296 41.7591 178.356 41.7383C178.416 41.7167 178.469 41.6848 178.513 41.6424C178.557 41.5992 178.591 41.5457 178.615 41.4817L178.888 41.5585C178.859 41.6512 178.811 41.7327 178.743 41.803C178.675 41.8726 178.591 41.9269 178.491 41.9661C178.391 42.0045 178.279 42.0236 178.154 42.0236ZM180.652 40.5562L180.397 40.6281C180.381 40.5858 180.358 40.5446 180.327 40.5046C180.296 40.4639 180.255 40.4303 180.202 40.4039C180.149 40.3776 180.082 40.3644 179.999 40.3644C179.887 40.3644 179.793 40.3904 179.718 40.4423C179.643 40.4935 179.606 40.5586 179.606 40.6377C179.606 40.7081 179.632 40.7636 179.683 40.8044C179.734 40.8451 179.814 40.8791 179.923 40.9063L180.196 40.9734C180.361 41.0134 180.483 41.0745 180.564 41.1568C180.645 41.2384 180.685 41.3435 180.685 41.4722C180.685 41.5777 180.655 41.672 180.594 41.7551C180.534 41.8382 180.45 41.9038 180.342 41.9517C180.234 41.9997 180.109 42.0236 179.966 42.0236C179.778 42.0236 179.623 41.9829 179.499 41.9014C179.376 41.8198 179.298 41.7007 179.266 41.5441L179.534 41.4769C179.56 41.5761 179.608 41.6504 179.679 41.6999C179.751 41.7495 179.845 41.7743 179.961 41.7743C180.093 41.7743 180.198 41.7463 180.275 41.6903C180.353 41.6336 180.393 41.5657 180.393 41.4865C180.393 41.4226 180.37 41.369 180.325 41.3259C180.281 41.2819 180.212 41.2492 180.119 41.2276L179.812 41.1556C179.644 41.1157 179.52 41.0537 179.441 40.9698C179.362 40.8851 179.323 40.7792 179.323 40.6521C179.323 40.5482 179.352 40.4563 179.411 40.3764C179.47 40.2964 179.55 40.2337 179.652 40.1881C179.754 40.1426 179.87 40.1198 179.999 40.1198C180.182 40.1198 180.325 40.1598 180.429 40.2397C180.533 40.3196 180.608 40.4251 180.652 40.5562ZM181.883 42.0236C181.706 42.0236 181.553 41.9845 181.424 41.9061C181.296 41.827 181.197 41.7167 181.128 41.5753C181.059 41.433 181.025 41.2675 181.025 41.0789C181.025 40.8903 181.059 40.724 181.128 40.5802C181.197 40.4355 181.294 40.3228 181.418 40.2421C181.543 40.1606 181.688 40.1198 181.854 40.1198C181.95 40.1198 182.045 40.1358 182.139 40.1678C182.232 40.1997 182.317 40.2517 182.394 40.3236C182.471 40.3948 182.532 40.4891 182.577 40.6066C182.623 40.724 182.646 40.8687 182.646 41.0406V41.1604H181.226V40.9159H182.358C182.358 40.812 182.337 40.7192 182.296 40.6377C182.255 40.5562 182.196 40.4919 182.121 40.4447C182.045 40.3975 181.957 40.374 181.854 40.374C181.742 40.374 181.644 40.4019 181.562 40.4579C181.48 40.513 181.418 40.585 181.374 40.6737C181.33 40.7624 181.308 40.8575 181.308 40.959V41.1221C181.308 41.2611 181.332 41.379 181.38 41.4757C181.428 41.5717 181.496 41.6448 181.582 41.6951C181.669 41.7447 181.769 41.7695 181.883 41.7695C181.957 41.7695 182.025 41.7591 182.085 41.7383C182.145 41.7167 182.198 41.6848 182.242 41.6424C182.286 41.5992 182.32 41.5457 182.344 41.4817L182.617 41.5585C182.588 41.6512 182.54 41.7327 182.472 41.803C182.404 41.8726 182.32 41.9269 182.22 41.9661C182.12 42.0045 182.008 42.0236 181.883 42.0236ZM183.076 41.9853V40.1438H183.349V40.4219H183.369C183.402 40.3308 183.463 40.2569 183.551 40.2001C183.639 40.1434 183.738 40.115 183.848 40.115C183.869 40.115 183.895 40.1154 183.926 40.1162C183.957 40.117 183.981 40.1182 183.997 40.1198V40.4075C183.987 40.4051 183.965 40.4015 183.931 40.3967C183.897 40.3912 183.862 40.3884 183.824 40.3884C183.735 40.3884 183.655 40.4071 183.584 40.4447C183.515 40.4815 183.46 40.5326 183.419 40.5982C183.379 40.6629 183.359 40.7368 183.359 40.82V41.9853H183.076ZM185.894 40.1438L185.213 41.9853H184.925L184.244 40.1438H184.551L185.06 41.6112H185.079L185.587 40.1438H185.894ZM186.974 42.0236C186.796 42.0236 186.643 41.9845 186.514 41.9061C186.387 41.827 186.288 41.7167 186.218 41.5753C186.15 41.433 186.115 41.2675 186.115 41.0789C186.115 40.8903 186.15 40.724 186.218 40.5802C186.288 40.4355 186.385 40.3228 186.508 40.2421C186.633 40.1606 186.779 40.1198 186.945 40.1198C187.041 40.1198 187.135 40.1358 187.229 40.1678C187.323 40.1997 187.408 40.2517 187.484 40.3236C187.561 40.3948 187.622 40.4891 187.668 40.6066C187.713 40.724 187.736 40.8687 187.736 41.0406V41.1604H186.317V40.9159H187.448C187.448 40.812 187.428 40.7192 187.386 40.6377C187.345 40.5562 187.287 40.4919 187.211 40.4447C187.136 40.3975 187.047 40.374 186.945 40.374C186.832 40.374 186.735 40.4019 186.652 40.4579C186.571 40.513 186.508 40.585 186.464 40.6737C186.42 40.7624 186.398 40.8575 186.398 40.959V41.1221C186.398 41.2611 186.422 41.379 186.47 41.4757C186.519 41.5717 186.586 41.6448 186.673 41.6951C186.759 41.7447 186.859 41.7695 186.974 41.7695C187.048 41.7695 187.115 41.7591 187.175 41.7383C187.236 41.7167 187.288 41.6848 187.332 41.6424C187.376 41.5992 187.41 41.5457 187.434 41.4817L187.707 41.5585C187.679 41.6512 187.63 41.7327 187.562 41.803C187.494 41.8726 187.41 41.9269 187.311 41.9661C187.211 42.0045 187.098 42.0236 186.974 42.0236ZM188.862 42.0236C188.708 42.0236 188.573 41.9849 188.455 41.9073C188.338 41.829 188.246 41.7187 188.18 41.5765C188.113 41.4334 188.08 41.2643 188.08 41.0693C188.08 40.8759 188.113 40.7081 188.18 40.5658C188.246 40.4235 188.338 40.3136 188.457 40.2361C188.575 40.1586 188.712 40.1198 188.867 40.1198C188.987 40.1198 189.081 40.1398 189.151 40.1798C189.221 40.2189 189.275 40.2637 189.311 40.314C189.349 40.3636 189.378 40.4043 189.399 40.4363H189.423V39.53H189.706V41.9853H189.433V41.7023H189.399C189.378 41.7359 189.349 41.7783 189.31 41.8294C189.272 41.8798 189.217 41.9249 189.146 41.9649C189.075 42.0041 188.98 42.0236 188.862 42.0236ZM188.9 41.7695C189.014 41.7695 189.11 41.7399 189.188 41.6808C189.266 41.6208 189.326 41.5381 189.367 41.4326C189.407 41.3263 189.428 41.2036 189.428 41.0645C189.428 40.9271 189.408 40.8068 189.368 40.7037C189.328 40.5998 189.269 40.519 189.19 40.4615C189.112 40.4031 189.015 40.374 188.9 40.374C188.78 40.374 188.68 40.4047 188.601 40.4663C188.521 40.527 188.462 40.6098 188.422 40.7145C188.383 40.8184 188.363 40.935 188.363 41.0645C188.363 41.1956 188.383 41.3147 188.423 41.4218C188.464 41.5281 188.524 41.6128 188.603 41.676C188.683 41.7383 188.782 41.7695 188.9 41.7695ZM191.208 41.9853V41.7695L192.019 40.8823C192.114 40.7784 192.192 40.6881 192.254 40.6113C192.315 40.5338 192.361 40.4611 192.39 40.3932C192.421 40.3244 192.436 40.2525 192.436 40.1774C192.436 40.091 192.415 40.0163 192.373 39.9532C192.333 39.89 192.277 39.8413 192.206 39.8069C192.134 39.7725 192.055 39.7553 191.966 39.7553C191.871 39.7553 191.789 39.7749 191.719 39.8141C191.649 39.8525 191.595 39.9064 191.557 39.9759C191.519 40.0455 191.501 40.127 191.501 40.2205H191.218C191.218 40.0766 191.251 39.9504 191.317 39.8417C191.384 39.733 191.474 39.6482 191.588 39.5875C191.703 39.5268 191.832 39.4964 191.975 39.4964C192.119 39.4964 192.247 39.5268 192.358 39.5875C192.469 39.6482 192.556 39.7302 192.619 39.8333C192.682 39.9364 192.714 40.0511 192.714 40.1774C192.714 40.2677 192.698 40.356 192.665 40.4423C192.633 40.5278 192.577 40.6233 192.497 40.7288C192.418 40.8335 192.308 40.9614 192.167 41.1125L191.616 41.7023V41.7215H192.757V41.9853H191.208ZM194.053 42.0188C193.872 42.0188 193.719 41.9697 193.591 41.8714C193.464 41.7723 193.367 41.6288 193.3 41.441C193.233 41.2524 193.199 41.0246 193.199 40.7576C193.199 40.4923 193.233 40.2657 193.3 40.0778C193.368 39.8892 193.466 39.7454 193.593 39.6462C193.721 39.5463 193.874 39.4964 194.053 39.4964C194.232 39.4964 194.385 39.5463 194.512 39.6462C194.64 39.7454 194.738 39.8892 194.805 40.0778C194.873 40.2657 194.907 40.4923 194.907 40.7576C194.907 41.0246 194.873 41.2524 194.806 41.441C194.739 41.6288 194.642 41.7723 194.515 41.8714C194.388 41.9697 194.234 42.0188 194.053 42.0188ZM194.053 41.7551C194.232 41.7551 194.371 41.6688 194.47 41.4961C194.569 41.3235 194.619 41.0773 194.619 40.7576C194.619 40.545 194.596 40.364 194.551 40.2145C194.506 40.0651 194.441 39.9512 194.356 39.8728C194.272 39.7945 194.171 39.7553 194.053 39.7553C193.876 39.7553 193.737 39.8429 193.637 40.0179C193.537 40.1921 193.487 40.4387 193.487 40.7576C193.487 40.9702 193.51 41.1508 193.554 41.2995C193.599 41.4482 193.663 41.5613 193.747 41.6388C193.832 41.7163 193.934 41.7551 194.053 41.7551ZM195.362 41.9853V41.7695L196.173 40.8823C196.268 40.7784 196.346 40.6881 196.408 40.6113C196.469 40.5338 196.515 40.4611 196.544 40.3932C196.575 40.3244 196.59 40.2525 196.59 40.1774C196.59 40.091 196.569 40.0163 196.528 39.9532C196.487 39.89 196.431 39.8413 196.36 39.8069C196.289 39.7725 196.209 39.7553 196.12 39.7553C196.026 39.7553 195.943 39.7749 195.873 39.8141C195.803 39.8525 195.749 39.9064 195.711 39.9759C195.674 40.0455 195.655 40.127 195.655 40.2205H195.372C195.372 40.0766 195.405 39.9504 195.471 39.8417C195.538 39.733 195.628 39.6482 195.742 39.5875C195.857 39.5268 195.986 39.4964 196.13 39.4964C196.273 39.4964 196.401 39.5268 196.512 39.5875C196.623 39.6482 196.71 39.7302 196.773 39.8333C196.836 39.9364 196.868 40.0511 196.868 40.1774C196.868 40.2677 196.852 40.356 196.819 40.4423C196.787 40.5278 196.731 40.6233 196.651 40.7288C196.572 40.8335 196.462 40.9614 196.321 41.1125L195.77 41.7023V41.7215H196.911V41.9853H195.362ZM197.406 41.9853V41.7695L198.217 40.8823C198.312 40.7784 198.39 40.6881 198.452 40.6113C198.513 40.5338 198.559 40.4611 198.588 40.3932C198.619 40.3244 198.634 40.2525 198.634 40.1774C198.634 40.091 198.613 40.0163 198.572 39.9532C198.531 39.89 198.475 39.8413 198.404 39.8069C198.333 39.7725 198.253 39.7553 198.164 39.7553C198.07 39.7553 197.987 39.7749 197.917 39.8141C197.848 39.8525 197.794 39.9064 197.755 39.9759C197.718 40.0455 197.699 40.127 197.699 40.2205H197.416C197.416 40.0766 197.449 39.9504 197.515 39.8417C197.582 39.733 197.672 39.6482 197.786 39.5875C197.901 39.5268 198.031 39.4964 198.174 39.4964C198.318 39.4964 198.445 39.5268 198.556 39.5875C198.667 39.6482 198.754 39.7302 198.817 39.8333C198.881 39.9364 198.912 40.0511 198.912 40.1774C198.912 40.2677 198.896 40.356 198.863 40.4423C198.831 40.5278 198.775 40.6233 198.695 40.7288C198.616 40.8335 198.506 40.9614 198.365 41.1125L197.814 41.7023V41.7215H198.955V41.9853H197.406Z" fill="white"/>
<path d="M200.83 41.4097C200.678 41.4097 200.541 41.3888 200.422 41.3471C200.303 41.3059 200.202 41.2452 200.119 41.1651C200.037 41.0855 199.974 40.9882 199.931 40.8731C199.887 40.758 199.866 40.627 199.866 40.4803C199.866 40.3355 199.887 40.2041 199.931 40.0861C199.974 39.9681 200.038 39.867 200.121 39.7826C200.205 39.6977 200.307 39.6325 200.427 39.5869C200.548 39.5413 200.685 39.5186 200.84 39.5186C200.983 39.5186 201.11 39.5394 201.223 39.5811C201.335 39.6229 201.431 39.6823 201.509 39.7595C201.587 39.8363 201.647 39.9276 201.688 40.0336C201.729 40.1391 201.75 40.2559 201.749 40.3839C201.75 40.4722 201.742 40.5532 201.726 40.627C201.71 40.7009 201.685 40.7654 201.651 40.8205C201.618 40.8752 201.574 40.9186 201.519 40.9507C201.464 40.9824 201.398 41.0004 201.32 41.0047C201.265 41.009 201.22 41.0049 201.185 40.9925C201.151 40.98 201.124 40.9615 201.106 40.9371C201.088 40.9121 201.077 40.8831 201.071 40.85H201.063C201.051 40.8788 201.029 40.9049 200.995 40.9284C200.962 40.9515 200.921 40.9694 200.872 40.9824C200.824 40.9949 200.773 40.9994 200.719 40.9961C200.662 40.9927 200.609 40.9795 200.558 40.9565C200.508 40.9335 200.463 40.9002 200.423 40.8565C200.385 40.8129 200.354 40.7589 200.331 40.6947C200.309 40.6304 200.298 40.5561 200.297 40.4717C200.298 40.3882 200.31 40.3156 200.333 40.2537C200.356 40.1919 200.387 40.1398 200.426 40.0976C200.464 40.0554 200.508 40.0223 200.555 39.9984C200.602 39.9744 200.65 39.959 200.698 39.9523C200.752 39.9442 200.804 39.9442 200.852 39.9523C200.901 39.9605 200.941 39.9737 200.974 39.9919C201.008 40.0101 201.029 40.0298 201.037 40.0509H201.047V39.9703H201.272V40.6724C201.273 40.7055 201.28 40.7311 201.294 40.7493C201.309 40.7676 201.328 40.7767 201.353 40.7767C201.386 40.7767 201.413 40.762 201.435 40.7328C201.458 40.7035 201.475 40.6587 201.486 40.5983C201.497 40.5379 201.503 40.4609 201.503 40.3674C201.503 40.2772 201.491 40.1981 201.467 40.13C201.444 40.0614 201.411 40.0031 201.368 39.9552C201.326 39.9068 201.276 39.8674 201.22 39.8372C201.164 39.807 201.103 39.7849 201.038 39.771C200.972 39.7571 200.905 39.7502 200.836 39.7502C200.717 39.7502 200.613 39.7684 200.523 39.8049C200.434 39.8408 200.36 39.8914 200.3 39.9566C200.241 40.0218 200.196 40.0983 200.167 40.1861C200.137 40.2734 200.122 40.3686 200.122 40.4717C200.122 40.5853 200.138 40.686 200.169 40.7738C200.201 40.8611 200.248 40.9344 200.309 40.9939C200.37 41.0534 200.446 41.0985 200.536 41.1291C200.626 41.1598 200.73 41.1752 200.847 41.1752C200.902 41.1752 200.956 41.1711 201.009 41.163C201.062 41.1553 201.109 41.1457 201.152 41.1342C201.195 41.1231 201.229 41.1124 201.255 41.1018L201.326 41.3104C201.296 41.3277 201.255 41.3437 201.203 41.3586C201.152 41.374 201.094 41.3862 201.029 41.3953C200.965 41.4049 200.899 41.4097 200.83 41.4097ZM200.797 40.7594C200.856 40.7594 200.902 40.7481 200.937 40.7256C200.972 40.7031 200.997 40.6697 201.012 40.6256C201.027 40.581 201.034 40.5261 201.033 40.4609C201.033 40.4033 201.025 40.3547 201.011 40.3149C200.997 40.2746 200.973 40.2441 200.938 40.2235C200.904 40.2024 200.857 40.1919 200.796 40.1919C200.743 40.1919 200.697 40.2031 200.66 40.2257C200.623 40.2482 200.595 40.2798 200.575 40.3206C200.556 40.3609 200.546 40.4084 200.546 40.463C200.546 40.5139 200.554 40.5621 200.57 40.6076C200.586 40.6527 200.612 40.6894 200.649 40.7177C200.685 40.7455 200.735 40.7594 200.797 40.7594Z" fill="white"/>
</g>
</g>
<defs>
<filter id="filter0_d_102_3" x="-67" y="1.35449" width="520" height="62.8571" filterUnits="userSpaceOnUse" color-interpolation-filters="sRGB">
<feFlood flood-opacity="0" result="BackgroundImageFix"/>
<feColorMatrix in="SourceAlpha" type="matrix" values="0 0 0 0 0 0 0 0 0 0 0 0 0 0 0 0 0 0 127 0" result="hardAlpha"/>
<feOffset dy="4"/>
<feGaussianBlur stdDeviation="2"/>
<feComposite in2="hardAlpha" operator="out"/>
<feColorMatrix type="matrix" values="0 0 0 0 0 0 0 0 0 0 0 0 0 0 0 0 0 0 0.25 0"/>
<feBlend mode="normal" in2="BackgroundImageFix" result="effect1_dropShadow_102_3"/>
<feBlend mode="normal" in="SourceGraphic" in2="effect1_dropShadow_102_3" result="shape"/>
</filter>
</defs>
</svg>
