<svg width="1328" height="674" viewBox="0 0 1328 674" fill="none" xmlns="http://www.w3.org/2000/svg">
<g clip-path="url(#clip0_281_922)">
<rect width="1328" height="674" fill="white"/>
<g filter="url(#filter0_b_281_922)">
<rect width="1684" height="674" fill="#A6BCFA"/>
</g>
<circle cx="1145" cy="522" r="63.5" stroke="white" stroke-width="25"/>
<path d="M181.285 97.909L193.455 110.08L141.769 161.766L129.598 149.595L181.285 97.909ZM141.251 96.4071L196.148 151.305L183.046 164.407L128.148 109.51L141.251 96.4071Z" fill="white"/>
<g opacity="0.3">
<path fill-rule="evenodd" clip-rule="evenodd" d="M940.997 99.5448C940.997 97.0346 939.087 94.9999 936.732 94.9999C934.376 94.9999 932.466 97.0346 932.466 99.5448C932.466 102.055 934.376 104.09 936.732 104.09C939.087 104.09 940.997 102.055 940.997 99.5448" fill="white"/>
<path fill-rule="evenodd" clip-rule="evenodd" d="M903.981 99.5448C903.981 97.0346 902.072 94.9999 899.716 94.9999C897.36 94.9999 895.45 97.0346 895.45 99.5448C895.45 102.055 897.36 104.09 899.716 104.09C902.072 104.09 903.981 102.055 903.981 99.5448" fill="white"/>
<path fill-rule="evenodd" clip-rule="evenodd" d="M866.965 99.5448C866.965 97.0346 865.056 94.9999 862.7 94.9999C860.344 94.9999 858.434 97.0346 858.434 99.5448C858.434 102.055 860.344 104.09 862.7 104.09C865.056 104.09 866.965 102.055 866.965 99.5448" fill="white"/>
<path fill-rule="evenodd" clip-rule="evenodd" d="M829.949 99.5448C829.949 97.0346 828.039 94.9999 825.684 94.9999C823.328 94.9999 821.418 97.0346 821.418 99.5448C821.418 102.055 823.328 104.09 825.684 104.09C828.039 104.09 829.949 102.055 829.949 99.5448" fill="white"/>
<path fill-rule="evenodd" clip-rule="evenodd" d="M792.933 99.5448C792.933 97.0346 791.023 94.9999 788.668 94.9999C786.312 94.9999 784.402 97.0346 784.402 99.5448C784.402 102.055 786.312 104.09 788.668 104.09C791.023 104.09 792.933 102.055 792.933 99.5448" fill="white"/>
<path fill-rule="evenodd" clip-rule="evenodd" d="M755.917 99.5448C755.917 97.0346 754.007 94.9999 751.652 94.9999C749.296 94.9999 747.386 97.0346 747.386 99.5448C747.386 102.055 749.296 104.09 751.652 104.09C754.007 104.09 755.917 102.055 755.917 99.5448" fill="white"/>
<path fill-rule="evenodd" clip-rule="evenodd" d="M718.901 99.5448C718.901 97.0346 716.991 94.9999 714.636 94.9999C712.28 94.9999 710.37 97.0346 710.37 99.5448C710.37 102.055 712.28 104.09 714.636 104.09C716.991 104.09 718.901 102.055 718.901 99.5448" fill="white"/>
<path fill-rule="evenodd" clip-rule="evenodd" d="M681.885 99.5448C681.885 97.0346 679.975 94.9999 677.62 94.9999C675.264 94.9999 673.354 97.0346 673.354 99.5448C673.354 102.055 675.264 104.09 677.62 104.09C679.975 104.09 681.885 102.055 681.885 99.5448" fill="white"/>
<path fill-rule="evenodd" clip-rule="evenodd" d="M644.87 99.5448C644.87 97.0346 642.959 94.9999 640.604 94.9999C638.248 94.9999 636.339 97.0346 636.339 99.5448C636.339 102.055 638.248 104.09 640.604 104.09C642.959 104.09 644.87 102.055 644.87 99.5448" fill="white"/>
<path fill-rule="evenodd" clip-rule="evenodd" d="M607.854 99.5448C607.854 97.0346 605.943 94.9999 603.587 94.9999C601.232 94.9999 599.322 97.0346 599.322 99.5448C599.322 102.055 601.232 104.09 603.587 104.09C605.943 104.09 607.854 102.055 607.854 99.5448" fill="white"/>
<path fill-rule="evenodd" clip-rule="evenodd" d="M570.837 99.5448C570.837 97.0346 568.928 94.9999 566.572 94.9999C564.216 94.9999 562.306 97.0346 562.306 99.5448C562.306 102.055 564.216 104.09 566.572 104.09C568.928 104.09 570.837 102.055 570.837 99.5448" fill="white"/>
<path fill-rule="evenodd" clip-rule="evenodd" d="M533.821 99.5448C533.821 97.0346 531.912 94.9999 529.556 94.9999C527.2 94.9999 525.29 97.0346 525.29 99.5448C525.29 102.055 527.2 104.09 529.556 104.09C531.912 104.09 533.821 102.055 533.821 99.5448" fill="white"/>
<path fill-rule="evenodd" clip-rule="evenodd" d="M496.805 99.5448C496.805 97.0346 494.896 94.9999 492.54 94.9999C490.184 94.9999 488.274 97.0346 488.274 99.5448C488.274 102.055 490.184 104.09 492.54 104.09C494.896 104.09 496.805 102.055 496.805 99.5448" fill="white"/>
<path fill-rule="evenodd" clip-rule="evenodd" d="M459.79 99.5448C459.79 97.0346 457.879 94.9999 455.524 94.9999C453.168 94.9999 451.258 97.0346 451.258 99.5448C451.258 102.055 453.168 104.09 455.524 104.09C457.879 104.09 459.79 102.055 459.79 99.5448" fill="white"/>
<path fill-rule="evenodd" clip-rule="evenodd" d="M422.773 99.5448C422.773 97.0346 420.863 94.9999 418.508 94.9999C416.152 94.9999 414.242 97.0346 414.242 99.5448C414.242 102.055 416.152 104.09 418.508 104.09C420.863 104.09 422.773 102.055 422.773 99.5448" fill="white"/>
<path fill-rule="evenodd" clip-rule="evenodd" d="M391.599 99.5448C391.599 97.0346 389.689 94.9999 387.334 94.9999C384.978 94.9999 383.068 97.0346 383.068 99.5448C383.068 102.055 384.978 104.09 387.334 104.09C389.689 104.09 391.599 102.055 391.599 99.5448" fill="white"/>
<path fill-rule="evenodd" clip-rule="evenodd" d="M360.425 99.5448C360.425 97.0346 358.515 94.9999 356.159 94.9999C353.803 94.9999 351.894 97.0346 351.894 99.5448C351.894 102.055 353.803 104.09 356.159 104.09C358.515 104.09 360.425 102.055 360.425 99.5448" fill="white"/>
<path fill-rule="evenodd" clip-rule="evenodd" d="M940.997 138.986C940.997 136.475 939.087 134.441 936.732 134.441C934.376 134.441 932.466 136.475 932.466 138.986C932.466 141.496 934.376 143.531 936.732 143.531C939.087 143.531 940.997 141.496 940.997 138.986" fill="white"/>
<path fill-rule="evenodd" clip-rule="evenodd" d="M903.981 138.986C903.981 136.475 902.072 134.441 899.716 134.441C897.36 134.441 895.45 136.475 895.45 138.986C895.45 141.496 897.36 143.531 899.716 143.531C902.072 143.531 903.981 141.496 903.981 138.986" fill="white"/>
<path fill-rule="evenodd" clip-rule="evenodd" d="M866.965 138.986C866.965 136.475 865.056 134.441 862.7 134.441C860.344 134.441 858.434 136.475 858.434 138.986C858.434 141.496 860.344 143.531 862.7 143.531C865.056 143.531 866.965 141.496 866.965 138.986" fill="white"/>
<path fill-rule="evenodd" clip-rule="evenodd" d="M829.949 138.986C829.949 136.475 828.039 134.441 825.684 134.441C823.328 134.441 821.418 136.475 821.418 138.986C821.418 141.496 823.328 143.531 825.684 143.531C828.039 143.531 829.949 141.496 829.949 138.986" fill="white"/>
<path fill-rule="evenodd" clip-rule="evenodd" d="M792.933 138.986C792.933 136.475 791.023 134.441 788.668 134.441C786.312 134.441 784.402 136.475 784.402 138.986C784.402 141.496 786.312 143.531 788.668 143.531C791.023 143.531 792.933 141.496 792.933 138.986" fill="white"/>
<path fill-rule="evenodd" clip-rule="evenodd" d="M755.917 138.986C755.917 136.475 754.007 134.441 751.652 134.441C749.296 134.441 747.386 136.475 747.386 138.986C747.386 141.496 749.296 143.531 751.652 143.531C754.007 143.531 755.917 141.496 755.917 138.986" fill="white"/>
<path fill-rule="evenodd" clip-rule="evenodd" d="M718.901 138.986C718.901 136.475 716.991 134.441 714.636 134.441C712.28 134.441 710.37 136.475 710.37 138.986C710.37 141.496 712.28 143.531 714.636 143.531C716.991 143.531 718.901 141.496 718.901 138.986" fill="white"/>
<path fill-rule="evenodd" clip-rule="evenodd" d="M681.885 138.986C681.885 136.475 679.975 134.441 677.62 134.441C675.264 134.441 673.354 136.475 673.354 138.986C673.354 141.496 675.264 143.531 677.62 143.531C679.975 143.531 681.885 141.496 681.885 138.986" fill="white"/>
<path fill-rule="evenodd" clip-rule="evenodd" d="M644.87 138.986C644.87 136.475 642.959 134.441 640.604 134.441C638.248 134.441 636.339 136.475 636.339 138.986C636.339 141.496 638.248 143.531 640.604 143.531C642.959 143.531 644.87 141.496 644.87 138.986" fill="white"/>
<path fill-rule="evenodd" clip-rule="evenodd" d="M607.854 138.986C607.854 136.475 605.943 134.441 603.587 134.441C601.232 134.441 599.322 136.475 599.322 138.986C599.322 141.496 601.232 143.531 603.587 143.531C605.943 143.531 607.854 141.496 607.854 138.986" fill="white"/>
<path fill-rule="evenodd" clip-rule="evenodd" d="M570.837 138.986C570.837 136.475 568.928 134.441 566.572 134.441C564.216 134.441 562.306 136.475 562.306 138.986C562.306 141.496 564.216 143.531 566.572 143.531C568.928 143.531 570.837 141.496 570.837 138.986" fill="white"/>
<path fill-rule="evenodd" clip-rule="evenodd" d="M533.821 138.986C533.821 136.475 531.912 134.441 529.556 134.441C527.2 134.441 525.29 136.475 525.29 138.986C525.29 141.496 527.2 143.531 529.556 143.531C531.912 143.531 533.821 141.496 533.821 138.986" fill="white"/>
<path fill-rule="evenodd" clip-rule="evenodd" d="M496.805 138.986C496.805 136.475 494.896 134.441 492.54 134.441C490.184 134.441 488.274 136.475 488.274 138.986C488.274 141.496 490.184 143.531 492.54 143.531C494.896 143.531 496.805 141.496 496.805 138.986" fill="white"/>
<path fill-rule="evenodd" clip-rule="evenodd" d="M459.79 138.986C459.79 136.475 457.879 134.441 455.524 134.441C453.168 134.441 451.258 136.475 451.258 138.986C451.258 141.496 453.168 143.531 455.524 143.531C457.879 143.531 459.79 141.496 459.79 138.986" fill="white"/>
<path fill-rule="evenodd" clip-rule="evenodd" d="M422.773 138.986C422.773 136.475 420.863 134.441 418.508 134.441C416.152 134.441 414.242 136.475 414.242 138.986C414.242 141.496 416.152 143.531 418.508 143.531C420.863 143.531 422.773 141.496 422.773 138.986" fill="white"/>
<path fill-rule="evenodd" clip-rule="evenodd" d="M391.599 138.986C391.599 136.475 389.689 134.441 387.334 134.441C384.978 134.441 383.068 136.475 383.068 138.986C383.068 141.496 384.978 143.531 387.334 143.531C389.689 143.531 391.599 141.496 391.599 138.986" fill="white"/>
<path fill-rule="evenodd" clip-rule="evenodd" d="M360.425 138.986C360.425 136.475 358.515 134.441 356.159 134.441C353.803 134.441 351.894 136.475 351.894 138.986C351.894 141.496 353.803 143.531 356.159 143.531C358.515 143.531 360.425 141.496 360.425 138.986" fill="white"/>
<path fill-rule="evenodd" clip-rule="evenodd" d="M940.997 178.426C940.997 175.916 939.087 173.881 936.732 173.881C934.376 173.881 932.466 175.916 932.466 178.426C932.466 180.936 934.376 182.971 936.732 182.971C939.087 182.971 940.997 180.936 940.997 178.426" fill="white"/>
<path fill-rule="evenodd" clip-rule="evenodd" d="M903.981 178.426C903.981 175.916 902.072 173.881 899.716 173.881C897.36 173.881 895.45 175.916 895.45 178.426C895.45 180.936 897.36 182.971 899.716 182.971C902.072 182.971 903.981 180.936 903.981 178.426" fill="white"/>
<path fill-rule="evenodd" clip-rule="evenodd" d="M866.965 178.426C866.965 175.916 865.056 173.881 862.7 173.881C860.344 173.881 858.434 175.916 858.434 178.426C858.434 180.936 860.344 182.971 862.7 182.971C865.056 182.971 866.965 180.936 866.965 178.426" fill="white"/>
<path fill-rule="evenodd" clip-rule="evenodd" d="M829.949 178.426C829.949 175.916 828.039 173.881 825.684 173.881C823.328 173.881 821.418 175.916 821.418 178.426C821.418 180.936 823.328 182.971 825.684 182.971C828.039 182.971 829.949 180.936 829.949 178.426" fill="white"/>
<path fill-rule="evenodd" clip-rule="evenodd" d="M792.933 178.426C792.933 175.916 791.023 173.881 788.668 173.881C786.312 173.881 784.402 175.916 784.402 178.426C784.402 180.936 786.312 182.971 788.668 182.971C791.023 182.971 792.933 180.936 792.933 178.426" fill="white"/>
<path fill-rule="evenodd" clip-rule="evenodd" d="M755.917 178.426C755.917 175.916 754.007 173.881 751.652 173.881C749.296 173.881 747.386 175.916 747.386 178.426C747.386 180.936 749.296 182.971 751.652 182.971C754.007 182.971 755.917 180.936 755.917 178.426" fill="white"/>
<path fill-rule="evenodd" clip-rule="evenodd" d="M718.901 178.426C718.901 175.916 716.991 173.881 714.636 173.881C712.28 173.881 710.37 175.916 710.37 178.426C710.37 180.936 712.28 182.971 714.636 182.971C716.991 182.971 718.901 180.936 718.901 178.426" fill="white"/>
<path fill-rule="evenodd" clip-rule="evenodd" d="M681.885 178.426C681.885 175.916 679.975 173.881 677.62 173.881C675.264 173.881 673.354 175.916 673.354 178.426C673.354 180.936 675.264 182.971 677.62 182.971C679.975 182.971 681.885 180.936 681.885 178.426" fill="white"/>
<path fill-rule="evenodd" clip-rule="evenodd" d="M644.87 178.426C644.87 175.916 642.959 173.881 640.604 173.881C638.248 173.881 636.339 175.916 636.339 178.426C636.339 180.936 638.248 182.971 640.604 182.971C642.959 182.971 644.87 180.936 644.87 178.426" fill="white"/>
<path fill-rule="evenodd" clip-rule="evenodd" d="M607.854 178.426C607.854 175.916 605.943 173.881 603.587 173.881C601.232 173.881 599.322 175.916 599.322 178.426C599.322 180.936 601.232 182.971 603.587 182.971C605.943 182.971 607.854 180.936 607.854 178.426" fill="white"/>
<path fill-rule="evenodd" clip-rule="evenodd" d="M570.837 178.426C570.837 175.916 568.928 173.881 566.572 173.881C564.216 173.881 562.306 175.916 562.306 178.426C562.306 180.936 564.216 182.971 566.572 182.971C568.928 182.971 570.837 180.936 570.837 178.426" fill="white"/>
<path fill-rule="evenodd" clip-rule="evenodd" d="M533.821 178.426C533.821 175.916 531.912 173.881 529.556 173.881C527.2 173.881 525.29 175.916 525.29 178.426C525.29 180.936 527.2 182.971 529.556 182.971C531.912 182.971 533.821 180.936 533.821 178.426" fill="white"/>
<path fill-rule="evenodd" clip-rule="evenodd" d="M496.805 178.426C496.805 175.916 494.896 173.881 492.54 173.881C490.184 173.881 488.274 175.916 488.274 178.426C488.274 180.936 490.184 182.971 492.54 182.971C494.896 182.971 496.805 180.936 496.805 178.426" fill="white"/>
<path fill-rule="evenodd" clip-rule="evenodd" d="M459.79 178.426C459.79 175.916 457.879 173.881 455.524 173.881C453.168 173.881 451.258 175.916 451.258 178.426C451.258 180.936 453.168 182.971 455.524 182.971C457.879 182.971 459.79 180.936 459.79 178.426" fill="white"/>
<path fill-rule="evenodd" clip-rule="evenodd" d="M422.773 178.426C422.773 175.916 420.863 173.881 418.508 173.881C416.152 173.881 414.242 175.916 414.242 178.426C414.242 180.936 416.152 182.971 418.508 182.971C420.863 182.971 422.773 180.936 422.773 178.426" fill="white"/>
<path fill-rule="evenodd" clip-rule="evenodd" d="M391.599 178.426C391.599 175.916 389.689 173.881 387.334 173.881C384.978 173.881 383.068 175.916 383.068 178.426C383.068 180.936 384.978 182.971 387.334 182.971C389.689 182.971 391.599 180.936 391.599 178.426" fill="white"/>
<path fill-rule="evenodd" clip-rule="evenodd" d="M360.425 178.426C360.425 175.916 358.515 173.881 356.159 173.881C353.803 173.881 351.894 175.916 351.894 178.426C351.894 180.936 353.803 182.971 356.159 182.971C358.515 182.971 360.425 180.936 360.425 178.426" fill="white"/>
<path fill-rule="evenodd" clip-rule="evenodd" d="M940.997 217.867C940.997 215.357 939.087 213.322 936.732 213.322C934.376 213.322 932.466 215.357 932.466 217.867C932.466 220.377 934.376 222.412 936.732 222.412C939.087 222.412 940.997 220.377 940.997 217.867" fill="white"/>
<path fill-rule="evenodd" clip-rule="evenodd" d="M903.981 217.867C903.981 215.357 902.072 213.322 899.716 213.322C897.36 213.322 895.45 215.357 895.45 217.867C895.45 220.377 897.36 222.412 899.716 222.412C902.072 222.412 903.981 220.377 903.981 217.867" fill="white"/>
<path fill-rule="evenodd" clip-rule="evenodd" d="M866.965 217.867C866.965 215.357 865.056 213.322 862.7 213.322C860.344 213.322 858.434 215.357 858.434 217.867C858.434 220.377 860.344 222.412 862.7 222.412C865.056 222.412 866.965 220.377 866.965 217.867" fill="white"/>
<path fill-rule="evenodd" clip-rule="evenodd" d="M829.949 217.867C829.949 215.357 828.039 213.322 825.684 213.322C823.328 213.322 821.418 215.357 821.418 217.867C821.418 220.377 823.328 222.412 825.684 222.412C828.039 222.412 829.949 220.377 829.949 217.867" fill="white"/>
<path fill-rule="evenodd" clip-rule="evenodd" d="M792.933 217.867C792.933 215.357 791.023 213.322 788.668 213.322C786.312 213.322 784.402 215.357 784.402 217.867C784.402 220.377 786.312 222.412 788.668 222.412C791.023 222.412 792.933 220.377 792.933 217.867" fill="white"/>
<path fill-rule="evenodd" clip-rule="evenodd" d="M755.917 217.867C755.917 215.357 754.007 213.322 751.652 213.322C749.296 213.322 747.386 215.357 747.386 217.867C747.386 220.377 749.296 222.412 751.652 222.412C754.007 222.412 755.917 220.377 755.917 217.867" fill="white"/>
<path fill-rule="evenodd" clip-rule="evenodd" d="M718.901 217.867C718.901 215.357 716.991 213.322 714.636 213.322C712.28 213.322 710.37 215.357 710.37 217.867C710.37 220.377 712.28 222.412 714.636 222.412C716.991 222.412 718.901 220.377 718.901 217.867" fill="white"/>
<path fill-rule="evenodd" clip-rule="evenodd" d="M681.885 217.867C681.885 215.357 679.975 213.322 677.62 213.322C675.264 213.322 673.354 215.357 673.354 217.867C673.354 220.377 675.264 222.412 677.62 222.412C679.975 222.412 681.885 220.377 681.885 217.867" fill="white"/>
<path fill-rule="evenodd" clip-rule="evenodd" d="M644.87 217.867C644.87 215.357 642.959 213.322 640.604 213.322C638.248 213.322 636.339 215.357 636.339 217.867C636.339 220.377 638.248 222.412 640.604 222.412C642.959 222.412 644.87 220.377 644.87 217.867" fill="white"/>
<path fill-rule="evenodd" clip-rule="evenodd" d="M607.854 217.867C607.854 215.357 605.943 213.322 603.587 213.322C601.232 213.322 599.322 215.357 599.322 217.867C599.322 220.377 601.232 222.412 603.587 222.412C605.943 222.412 607.854 220.377 607.854 217.867" fill="white"/>
<path fill-rule="evenodd" clip-rule="evenodd" d="M570.837 217.867C570.837 215.357 568.928 213.322 566.572 213.322C564.216 213.322 562.306 215.357 562.306 217.867C562.306 220.377 564.216 222.412 566.572 222.412C568.928 222.412 570.837 220.377 570.837 217.867" fill="white"/>
<path fill-rule="evenodd" clip-rule="evenodd" d="M533.821 217.867C533.821 215.357 531.912 213.322 529.556 213.322C527.2 213.322 525.29 215.357 525.29 217.867C525.29 220.377 527.2 222.412 529.556 222.412C531.912 222.412 533.821 220.377 533.821 217.867" fill="white"/>
<path fill-rule="evenodd" clip-rule="evenodd" d="M496.805 217.867C496.805 215.357 494.896 213.322 492.54 213.322C490.184 213.322 488.274 215.357 488.274 217.867C488.274 220.377 490.184 222.412 492.54 222.412C494.896 222.412 496.805 220.377 496.805 217.867" fill="white"/>
<path fill-rule="evenodd" clip-rule="evenodd" d="M459.79 217.867C459.79 215.357 457.879 213.322 455.524 213.322C453.168 213.322 451.258 215.357 451.258 217.867C451.258 220.377 453.168 222.412 455.524 222.412C457.879 222.412 459.79 220.377 459.79 217.867" fill="white"/>
<path fill-rule="evenodd" clip-rule="evenodd" d="M422.773 217.867C422.773 215.357 420.863 213.322 418.508 213.322C416.152 213.322 414.242 215.357 414.242 217.867C414.242 220.377 416.152 222.412 418.508 222.412C420.863 222.412 422.773 220.377 422.773 217.867" fill="white"/>
<path fill-rule="evenodd" clip-rule="evenodd" d="M391.599 217.867C391.599 215.357 389.689 213.322 387.334 213.322C384.978 213.322 383.068 215.357 383.068 217.867C383.068 220.377 384.978 222.412 387.334 222.412C389.689 222.412 391.599 220.377 391.599 217.867" fill="white"/>
<path fill-rule="evenodd" clip-rule="evenodd" d="M360.425 217.867C360.425 215.357 358.515 213.322 356.159 213.322C353.803 213.322 351.894 215.357 351.894 217.867C351.894 220.377 353.803 222.412 356.159 222.412C358.515 222.412 360.425 220.377 360.425 217.867" fill="white"/>
<path fill-rule="evenodd" clip-rule="evenodd" d="M940.997 257.307C940.997 254.797 939.087 252.762 936.732 252.762C934.376 252.762 932.466 254.797 932.466 257.307C932.466 259.818 934.376 261.852 936.732 261.852C939.087 261.852 940.997 259.818 940.997 257.307" fill="white"/>
<path fill-rule="evenodd" clip-rule="evenodd" d="M903.981 257.307C903.981 254.797 902.072 252.762 899.716 252.762C897.36 252.762 895.45 254.797 895.45 257.307C895.45 259.818 897.36 261.852 899.716 261.852C902.072 261.852 903.981 259.818 903.981 257.307" fill="white"/>
<path fill-rule="evenodd" clip-rule="evenodd" d="M866.965 257.307C866.965 254.797 865.056 252.762 862.7 252.762C860.344 252.762 858.434 254.797 858.434 257.307C858.434 259.818 860.344 261.852 862.7 261.852C865.056 261.852 866.965 259.818 866.965 257.307" fill="white"/>
<path fill-rule="evenodd" clip-rule="evenodd" d="M829.949 257.307C829.949 254.797 828.039 252.762 825.684 252.762C823.328 252.762 821.418 254.797 821.418 257.307C821.418 259.818 823.328 261.852 825.684 261.852C828.039 261.852 829.949 259.818 829.949 257.307" fill="white"/>
<path fill-rule="evenodd" clip-rule="evenodd" d="M792.933 257.307C792.933 254.797 791.023 252.762 788.668 252.762C786.312 252.762 784.402 254.797 784.402 257.307C784.402 259.818 786.312 261.852 788.668 261.852C791.023 261.852 792.933 259.818 792.933 257.307" fill="white"/>
<path fill-rule="evenodd" clip-rule="evenodd" d="M755.917 257.307C755.917 254.797 754.007 252.762 751.652 252.762C749.296 252.762 747.386 254.797 747.386 257.307C747.386 259.818 749.296 261.852 751.652 261.852C754.007 261.852 755.917 259.818 755.917 257.307" fill="white"/>
<path fill-rule="evenodd" clip-rule="evenodd" d="M718.901 257.307C718.901 254.797 716.991 252.762 714.636 252.762C712.28 252.762 710.37 254.797 710.37 257.307C710.37 259.818 712.28 261.852 714.636 261.852C716.991 261.852 718.901 259.818 718.901 257.307" fill="white"/>
<path fill-rule="evenodd" clip-rule="evenodd" d="M681.885 257.307C681.885 254.797 679.975 252.762 677.62 252.762C675.264 252.762 673.354 254.797 673.354 257.307C673.354 259.818 675.264 261.852 677.62 261.852C679.975 261.852 681.885 259.818 681.885 257.307" fill="white"/>
<path fill-rule="evenodd" clip-rule="evenodd" d="M644.87 257.307C644.87 254.797 642.959 252.762 640.604 252.762C638.248 252.762 636.339 254.797 636.339 257.307C636.339 259.818 638.248 261.852 640.604 261.852C642.959 261.852 644.87 259.818 644.87 257.307" fill="white"/>
<path fill-rule="evenodd" clip-rule="evenodd" d="M607.854 257.307C607.854 254.797 605.943 252.762 603.587 252.762C601.232 252.762 599.322 254.797 599.322 257.307C599.322 259.818 601.232 261.852 603.587 261.852C605.943 261.852 607.854 259.818 607.854 257.307" fill="white"/>
<path fill-rule="evenodd" clip-rule="evenodd" d="M570.837 257.307C570.837 254.797 568.928 252.762 566.572 252.762C564.216 252.762 562.306 254.797 562.306 257.307C562.306 259.818 564.216 261.852 566.572 261.852C568.928 261.852 570.837 259.818 570.837 257.307" fill="white"/>
<path fill-rule="evenodd" clip-rule="evenodd" d="M533.821 257.307C533.821 254.797 531.912 252.762 529.556 252.762C527.2 252.762 525.29 254.797 525.29 257.307C525.29 259.818 527.2 261.852 529.556 261.852C531.912 261.852 533.821 259.818 533.821 257.307" fill="white"/>
<path fill-rule="evenodd" clip-rule="evenodd" d="M496.805 257.307C496.805 254.797 494.896 252.762 492.54 252.762C490.184 252.762 488.274 254.797 488.274 257.307C488.274 259.818 490.184 261.852 492.54 261.852C494.896 261.852 496.805 259.818 496.805 257.307" fill="white"/>
<path fill-rule="evenodd" clip-rule="evenodd" d="M459.79 257.307C459.79 254.797 457.879 252.762 455.524 252.762C453.168 252.762 451.258 254.797 451.258 257.307C451.258 259.818 453.168 261.852 455.524 261.852C457.879 261.852 459.79 259.818 459.79 257.307" fill="white"/>
<path fill-rule="evenodd" clip-rule="evenodd" d="M422.773 257.307C422.773 254.797 420.863 252.762 418.508 252.762C416.152 252.762 414.242 254.797 414.242 257.307C414.242 259.818 416.152 261.852 418.508 261.852C420.863 261.852 422.773 259.818 422.773 257.307" fill="white"/>
<path fill-rule="evenodd" clip-rule="evenodd" d="M391.599 257.307C391.599 254.797 389.689 252.762 387.334 252.762C384.978 252.762 383.068 254.797 383.068 257.307C383.068 259.818 384.978 261.852 387.334 261.852C389.689 261.852 391.599 259.818 391.599 257.307" fill="white"/>
<path fill-rule="evenodd" clip-rule="evenodd" d="M360.425 257.307C360.425 254.797 358.515 252.762 356.159 252.762C353.803 252.762 351.894 254.797 351.894 257.307C351.894 259.818 353.803 261.852 356.159 261.852C358.515 261.852 360.425 259.818 360.425 257.307" fill="white"/>
<path fill-rule="evenodd" clip-rule="evenodd" d="M940.997 296.748C940.997 294.238 939.087 292.203 936.732 292.203C934.376 292.203 932.466 294.238 932.466 296.748C932.466 299.258 934.376 301.293 936.732 301.293C939.087 301.293 940.997 299.258 940.997 296.748" fill="white"/>
<path fill-rule="evenodd" clip-rule="evenodd" d="M903.981 296.748C903.981 294.238 902.072 292.203 899.716 292.203C897.36 292.203 895.45 294.238 895.45 296.748C895.45 299.258 897.36 301.293 899.716 301.293C902.072 301.293 903.981 299.258 903.981 296.748" fill="white"/>
<path fill-rule="evenodd" clip-rule="evenodd" d="M866.965 296.748C866.965 294.238 865.056 292.203 862.7 292.203C860.344 292.203 858.434 294.238 858.434 296.748C858.434 299.258 860.344 301.293 862.7 301.293C865.056 301.293 866.965 299.258 866.965 296.748" fill="white"/>
<path fill-rule="evenodd" clip-rule="evenodd" d="M829.949 296.748C829.949 294.238 828.039 292.203 825.684 292.203C823.328 292.203 821.418 294.238 821.418 296.748C821.418 299.258 823.328 301.293 825.684 301.293C828.039 301.293 829.949 299.258 829.949 296.748" fill="white"/>
<path fill-rule="evenodd" clip-rule="evenodd" d="M792.933 296.748C792.933 294.238 791.023 292.203 788.668 292.203C786.312 292.203 784.402 294.238 784.402 296.748C784.402 299.258 786.312 301.293 788.668 301.293C791.023 301.293 792.933 299.258 792.933 296.748" fill="white"/>
<path fill-rule="evenodd" clip-rule="evenodd" d="M755.917 296.748C755.917 294.238 754.007 292.203 751.652 292.203C749.296 292.203 747.386 294.238 747.386 296.748C747.386 299.258 749.296 301.293 751.652 301.293C754.007 301.293 755.917 299.258 755.917 296.748" fill="white"/>
<path fill-rule="evenodd" clip-rule="evenodd" d="M718.901 296.748C718.901 294.238 716.991 292.203 714.636 292.203C712.28 292.203 710.37 294.238 710.37 296.748C710.37 299.258 712.28 301.293 714.636 301.293C716.991 301.293 718.901 299.258 718.901 296.748" fill="white"/>
<path fill-rule="evenodd" clip-rule="evenodd" d="M681.885 296.748C681.885 294.238 679.975 292.203 677.62 292.203C675.264 292.203 673.354 294.238 673.354 296.748C673.354 299.258 675.264 301.293 677.62 301.293C679.975 301.293 681.885 299.258 681.885 296.748" fill="white"/>
<path fill-rule="evenodd" clip-rule="evenodd" d="M644.87 296.748C644.87 294.238 642.959 292.203 640.604 292.203C638.248 292.203 636.339 294.238 636.339 296.748C636.339 299.258 638.248 301.293 640.604 301.293C642.959 301.293 644.87 299.258 644.87 296.748" fill="white"/>
<path fill-rule="evenodd" clip-rule="evenodd" d="M607.854 296.748C607.854 294.238 605.943 292.203 603.587 292.203C601.232 292.203 599.322 294.238 599.322 296.748C599.322 299.258 601.232 301.293 603.587 301.293C605.943 301.293 607.854 299.258 607.854 296.748" fill="white"/>
<path fill-rule="evenodd" clip-rule="evenodd" d="M570.837 296.748C570.837 294.238 568.928 292.203 566.572 292.203C564.216 292.203 562.306 294.238 562.306 296.748C562.306 299.258 564.216 301.293 566.572 301.293C568.928 301.293 570.837 299.258 570.837 296.748" fill="white"/>
<path fill-rule="evenodd" clip-rule="evenodd" d="M533.821 296.748C533.821 294.238 531.912 292.203 529.556 292.203C527.2 292.203 525.29 294.238 525.29 296.748C525.29 299.258 527.2 301.293 529.556 301.293C531.912 301.293 533.821 299.258 533.821 296.748" fill="white"/>
<path fill-rule="evenodd" clip-rule="evenodd" d="M496.805 296.748C496.805 294.238 494.896 292.203 492.54 292.203C490.184 292.203 488.274 294.238 488.274 296.748C488.274 299.258 490.184 301.293 492.54 301.293C494.896 301.293 496.805 299.258 496.805 296.748" fill="white"/>
<path fill-rule="evenodd" clip-rule="evenodd" d="M459.79 296.748C459.79 294.238 457.879 292.203 455.524 292.203C453.168 292.203 451.258 294.238 451.258 296.748C451.258 299.258 453.168 301.293 455.524 301.293C457.879 301.293 459.79 299.258 459.79 296.748" fill="white"/>
<path fill-rule="evenodd" clip-rule="evenodd" d="M422.773 296.748C422.773 294.238 420.863 292.203 418.508 292.203C416.152 292.203 414.242 294.238 414.242 296.748C414.242 299.258 416.152 301.293 418.508 301.293C420.863 301.293 422.773 299.258 422.773 296.748" fill="white"/>
<path fill-rule="evenodd" clip-rule="evenodd" d="M391.599 296.748C391.599 294.238 389.689 292.203 387.334 292.203C384.978 292.203 383.068 294.238 383.068 296.748C383.068 299.258 384.978 301.293 387.334 301.293C389.689 301.293 391.599 299.258 391.599 296.748" fill="white"/>
<path fill-rule="evenodd" clip-rule="evenodd" d="M360.425 296.748C360.425 294.238 358.515 292.203 356.159 292.203C353.803 292.203 351.894 294.238 351.894 296.748C351.894 299.258 353.803 301.293 356.159 301.293C358.515 301.293 360.425 299.258 360.425 296.748" fill="white"/>
<path fill-rule="evenodd" clip-rule="evenodd" d="M940.997 336.189C940.997 333.679 939.087 331.644 936.732 331.644C934.376 331.644 932.466 333.679 932.466 336.189C932.466 338.699 934.376 340.734 936.732 340.734C939.087 340.734 940.997 338.699 940.997 336.189" fill="white"/>
<path fill-rule="evenodd" clip-rule="evenodd" d="M903.981 336.189C903.981 333.679 902.072 331.644 899.716 331.644C897.36 331.644 895.45 333.679 895.45 336.189C895.45 338.699 897.36 340.734 899.716 340.734C902.072 340.734 903.981 338.699 903.981 336.189" fill="white"/>
<path fill-rule="evenodd" clip-rule="evenodd" d="M866.965 336.189C866.965 333.679 865.056 331.644 862.7 331.644C860.344 331.644 858.434 333.679 858.434 336.189C858.434 338.699 860.344 340.734 862.7 340.734C865.056 340.734 866.965 338.699 866.965 336.189" fill="white"/>
<path fill-rule="evenodd" clip-rule="evenodd" d="M829.949 336.189C829.949 333.679 828.039 331.644 825.684 331.644C823.328 331.644 821.418 333.679 821.418 336.189C821.418 338.699 823.328 340.734 825.684 340.734C828.039 340.734 829.949 338.699 829.949 336.189" fill="white"/>
<path fill-rule="evenodd" clip-rule="evenodd" d="M792.933 336.189C792.933 333.679 791.023 331.644 788.668 331.644C786.312 331.644 784.402 333.679 784.402 336.189C784.402 338.699 786.312 340.734 788.668 340.734C791.023 340.734 792.933 338.699 792.933 336.189" fill="white"/>
<path fill-rule="evenodd" clip-rule="evenodd" d="M755.917 336.189C755.917 333.679 754.007 331.644 751.652 331.644C749.296 331.644 747.386 333.679 747.386 336.189C747.386 338.699 749.296 340.734 751.652 340.734C754.007 340.734 755.917 338.699 755.917 336.189" fill="white"/>
<path fill-rule="evenodd" clip-rule="evenodd" d="M718.901 336.189C718.901 333.679 716.991 331.644 714.636 331.644C712.28 331.644 710.37 333.679 710.37 336.189C710.37 338.699 712.28 340.734 714.636 340.734C716.991 340.734 718.901 338.699 718.901 336.189" fill="white"/>
<path fill-rule="evenodd" clip-rule="evenodd" d="M681.885 336.189C681.885 333.679 679.975 331.644 677.62 331.644C675.264 331.644 673.354 333.679 673.354 336.189C673.354 338.699 675.264 340.734 677.62 340.734C679.975 340.734 681.885 338.699 681.885 336.189" fill="white"/>
<path fill-rule="evenodd" clip-rule="evenodd" d="M644.87 336.189C644.87 333.679 642.959 331.644 640.604 331.644C638.248 331.644 636.339 333.679 636.339 336.189C636.339 338.699 638.248 340.734 640.604 340.734C642.959 340.734 644.87 338.699 644.87 336.189" fill="white"/>
<path fill-rule="evenodd" clip-rule="evenodd" d="M607.854 336.189C607.854 333.679 605.943 331.644 603.587 331.644C601.232 331.644 599.322 333.679 599.322 336.189C599.322 338.699 601.232 340.734 603.587 340.734C605.943 340.734 607.854 338.699 607.854 336.189" fill="white"/>
<path fill-rule="evenodd" clip-rule="evenodd" d="M570.837 336.189C570.837 333.679 568.928 331.644 566.572 331.644C564.216 331.644 562.306 333.679 562.306 336.189C562.306 338.699 564.216 340.734 566.572 340.734C568.928 340.734 570.837 338.699 570.837 336.189" fill="white"/>
<path fill-rule="evenodd" clip-rule="evenodd" d="M533.821 336.189C533.821 333.679 531.912 331.644 529.556 331.644C527.2 331.644 525.29 333.679 525.29 336.189C525.29 338.699 527.2 340.734 529.556 340.734C531.912 340.734 533.821 338.699 533.821 336.189" fill="white"/>
<path fill-rule="evenodd" clip-rule="evenodd" d="M496.805 336.189C496.805 333.679 494.896 331.644 492.54 331.644C490.184 331.644 488.274 333.679 488.274 336.189C488.274 338.699 490.184 340.734 492.54 340.734C494.896 340.734 496.805 338.699 496.805 336.189" fill="white"/>
<path fill-rule="evenodd" clip-rule="evenodd" d="M459.79 336.189C459.79 333.679 457.879 331.644 455.524 331.644C453.168 331.644 451.258 333.679 451.258 336.189C451.258 338.699 453.168 340.734 455.524 340.734C457.879 340.734 459.79 338.699 459.79 336.189" fill="white"/>
<path fill-rule="evenodd" clip-rule="evenodd" d="M422.773 336.189C422.773 333.679 420.863 331.644 418.508 331.644C416.152 331.644 414.242 333.679 414.242 336.189C414.242 338.699 416.152 340.734 418.508 340.734C420.863 340.734 422.773 338.699 422.773 336.189" fill="white"/>
<path fill-rule="evenodd" clip-rule="evenodd" d="M391.599 336.189C391.599 333.679 389.689 331.644 387.334 331.644C384.978 331.644 383.068 333.679 383.068 336.189C383.068 338.699 384.978 340.734 387.334 340.734C389.689 340.734 391.599 338.699 391.599 336.189" fill="white"/>
<path fill-rule="evenodd" clip-rule="evenodd" d="M360.425 336.189C360.425 333.679 358.515 331.644 356.159 331.644C353.803 331.644 351.894 333.679 351.894 336.189C351.894 338.699 353.803 340.734 356.159 340.734C358.515 340.734 360.425 338.699 360.425 336.189" fill="white"/>
<path fill-rule="evenodd" clip-rule="evenodd" d="M940.997 375.629C940.997 373.12 939.087 371.084 936.732 371.084C934.376 371.084 932.466 373.12 932.466 375.629C932.466 378.14 934.376 380.174 936.732 380.174C939.087 380.174 940.997 378.14 940.997 375.629" fill="white"/>
<path fill-rule="evenodd" clip-rule="evenodd" d="M903.981 375.629C903.981 373.12 902.072 371.084 899.716 371.084C897.36 371.084 895.45 373.12 895.45 375.629C895.45 378.14 897.36 380.174 899.716 380.174C902.072 380.174 903.981 378.14 903.981 375.629" fill="white"/>
<path fill-rule="evenodd" clip-rule="evenodd" d="M866.965 375.629C866.965 373.12 865.056 371.084 862.7 371.084C860.344 371.084 858.434 373.12 858.434 375.629C858.434 378.14 860.344 380.174 862.7 380.174C865.056 380.174 866.965 378.14 866.965 375.629" fill="white"/>
<path fill-rule="evenodd" clip-rule="evenodd" d="M829.949 375.629C829.949 373.12 828.039 371.084 825.684 371.084C823.328 371.084 821.418 373.12 821.418 375.629C821.418 378.14 823.328 380.174 825.684 380.174C828.039 380.174 829.949 378.14 829.949 375.629" fill="white"/>
<path fill-rule="evenodd" clip-rule="evenodd" d="M792.933 375.629C792.933 373.12 791.023 371.084 788.668 371.084C786.312 371.084 784.402 373.12 784.402 375.629C784.402 378.14 786.312 380.174 788.668 380.174C791.023 380.174 792.933 378.14 792.933 375.629" fill="white"/>
<path fill-rule="evenodd" clip-rule="evenodd" d="M755.917 375.629C755.917 373.12 754.007 371.084 751.652 371.084C749.296 371.084 747.386 373.12 747.386 375.629C747.386 378.14 749.296 380.174 751.652 380.174C754.007 380.174 755.917 378.14 755.917 375.629" fill="white"/>
<path fill-rule="evenodd" clip-rule="evenodd" d="M718.901 375.629C718.901 373.12 716.991 371.084 714.636 371.084C712.28 371.084 710.37 373.12 710.37 375.629C710.37 378.14 712.28 380.174 714.636 380.174C716.991 380.174 718.901 378.14 718.901 375.629" fill="white"/>
<path fill-rule="evenodd" clip-rule="evenodd" d="M681.885 375.629C681.885 373.12 679.975 371.084 677.62 371.084C675.264 371.084 673.354 373.12 673.354 375.629C673.354 378.14 675.264 380.174 677.62 380.174C679.975 380.174 681.885 378.14 681.885 375.629" fill="white"/>
<path fill-rule="evenodd" clip-rule="evenodd" d="M644.87 375.629C644.87 373.12 642.959 371.084 640.604 371.084C638.248 371.084 636.339 373.12 636.339 375.629C636.339 378.14 638.248 380.174 640.604 380.174C642.959 380.174 644.87 378.14 644.87 375.629" fill="white"/>
<path fill-rule="evenodd" clip-rule="evenodd" d="M607.854 375.629C607.854 373.12 605.943 371.084 603.587 371.084C601.232 371.084 599.322 373.12 599.322 375.629C599.322 378.14 601.232 380.174 603.587 380.174C605.943 380.174 607.854 378.14 607.854 375.629" fill="white"/>
<path fill-rule="evenodd" clip-rule="evenodd" d="M570.837 375.629C570.837 373.12 568.928 371.084 566.572 371.084C564.216 371.084 562.306 373.12 562.306 375.629C562.306 378.14 564.216 380.174 566.572 380.174C568.928 380.174 570.837 378.14 570.837 375.629" fill="white"/>
<path fill-rule="evenodd" clip-rule="evenodd" d="M533.821 375.629C533.821 373.12 531.912 371.084 529.556 371.084C527.2 371.084 525.29 373.12 525.29 375.629C525.29 378.14 527.2 380.174 529.556 380.174C531.912 380.174 533.821 378.14 533.821 375.629" fill="white"/>
<path fill-rule="evenodd" clip-rule="evenodd" d="M496.805 375.629C496.805 373.12 494.896 371.084 492.54 371.084C490.184 371.084 488.274 373.12 488.274 375.629C488.274 378.14 490.184 380.174 492.54 380.174C494.896 380.174 496.805 378.14 496.805 375.629" fill="white"/>
<path fill-rule="evenodd" clip-rule="evenodd" d="M459.79 375.629C459.79 373.12 457.879 371.084 455.524 371.084C453.168 371.084 451.258 373.12 451.258 375.629C451.258 378.14 453.168 380.174 455.524 380.174C457.879 380.174 459.79 378.14 459.79 375.629" fill="white"/>
<path fill-rule="evenodd" clip-rule="evenodd" d="M422.773 375.629C422.773 373.12 420.863 371.084 418.508 371.084C416.152 371.084 414.242 373.12 414.242 375.629C414.242 378.14 416.152 380.174 418.508 380.174C420.863 380.174 422.773 378.14 422.773 375.629" fill="white"/>
<path fill-rule="evenodd" clip-rule="evenodd" d="M391.599 375.629C391.599 373.12 389.689 371.084 387.334 371.084C384.978 371.084 383.068 373.12 383.068 375.629C383.068 378.14 384.978 380.174 387.334 380.174C389.689 380.174 391.599 378.14 391.599 375.629" fill="white"/>
<path fill-rule="evenodd" clip-rule="evenodd" d="M360.425 375.629C360.425 373.12 358.515 371.084 356.159 371.084C353.803 371.084 351.894 373.12 351.894 375.629C351.894 378.14 353.803 380.174 356.159 380.174C358.515 380.174 360.425 378.14 360.425 375.629" fill="white"/>
<path fill-rule="evenodd" clip-rule="evenodd" d="M940.997 415.07C940.997 412.56 939.087 410.525 936.732 410.525C934.376 410.525 932.466 412.56 932.466 415.07C932.466 417.58 934.376 419.615 936.732 419.615C939.087 419.615 940.997 417.58 940.997 415.07" fill="white"/>
<path fill-rule="evenodd" clip-rule="evenodd" d="M903.981 415.07C903.981 412.56 902.072 410.525 899.716 410.525C897.36 410.525 895.45 412.56 895.45 415.07C895.45 417.58 897.36 419.615 899.716 419.615C902.072 419.615 903.981 417.58 903.981 415.07" fill="white"/>
<path fill-rule="evenodd" clip-rule="evenodd" d="M866.965 415.07C866.965 412.56 865.056 410.525 862.7 410.525C860.344 410.525 858.434 412.56 858.434 415.07C858.434 417.58 860.344 419.615 862.7 419.615C865.056 419.615 866.965 417.58 866.965 415.07" fill="white"/>
<path fill-rule="evenodd" clip-rule="evenodd" d="M829.949 415.07C829.949 412.56 828.039 410.525 825.684 410.525C823.328 410.525 821.418 412.56 821.418 415.07C821.418 417.58 823.328 419.615 825.684 419.615C828.039 419.615 829.949 417.58 829.949 415.07" fill="white"/>
<path fill-rule="evenodd" clip-rule="evenodd" d="M792.933 415.07C792.933 412.56 791.023 410.525 788.668 410.525C786.312 410.525 784.402 412.56 784.402 415.07C784.402 417.58 786.312 419.615 788.668 419.615C791.023 419.615 792.933 417.58 792.933 415.07" fill="white"/>
<path fill-rule="evenodd" clip-rule="evenodd" d="M755.917 415.07C755.917 412.56 754.007 410.525 751.652 410.525C749.296 410.525 747.386 412.56 747.386 415.07C747.386 417.58 749.296 419.615 751.652 419.615C754.007 419.615 755.917 417.58 755.917 415.07" fill="white"/>
<path fill-rule="evenodd" clip-rule="evenodd" d="M718.901 415.07C718.901 412.56 716.991 410.525 714.636 410.525C712.28 410.525 710.37 412.56 710.37 415.07C710.37 417.58 712.28 419.615 714.636 419.615C716.991 419.615 718.901 417.58 718.901 415.07" fill="white"/>
<path fill-rule="evenodd" clip-rule="evenodd" d="M681.885 415.07C681.885 412.56 679.975 410.525 677.62 410.525C675.264 410.525 673.354 412.56 673.354 415.07C673.354 417.58 675.264 419.615 677.62 419.615C679.975 419.615 681.885 417.58 681.885 415.07" fill="white"/>
<path fill-rule="evenodd" clip-rule="evenodd" d="M644.87 415.07C644.87 412.56 642.959 410.525 640.604 410.525C638.248 410.525 636.339 412.56 636.339 415.07C636.339 417.58 638.248 419.615 640.604 419.615C642.959 419.615 644.87 417.58 644.87 415.07" fill="white"/>
<path fill-rule="evenodd" clip-rule="evenodd" d="M607.854 415.07C607.854 412.56 605.943 410.525 603.587 410.525C601.232 410.525 599.322 412.56 599.322 415.07C599.322 417.58 601.232 419.615 603.587 419.615C605.943 419.615 607.854 417.58 607.854 415.07" fill="white"/>
<path fill-rule="evenodd" clip-rule="evenodd" d="M570.837 415.07C570.837 412.56 568.928 410.525 566.572 410.525C564.216 410.525 562.306 412.56 562.306 415.07C562.306 417.58 564.216 419.615 566.572 419.615C568.928 419.615 570.837 417.58 570.837 415.07" fill="white"/>
<path fill-rule="evenodd" clip-rule="evenodd" d="M533.821 415.07C533.821 412.56 531.912 410.525 529.556 410.525C527.2 410.525 525.29 412.56 525.29 415.07C525.29 417.58 527.2 419.615 529.556 419.615C531.912 419.615 533.821 417.58 533.821 415.07" fill="white"/>
<path fill-rule="evenodd" clip-rule="evenodd" d="M496.805 415.07C496.805 412.56 494.896 410.525 492.54 410.525C490.184 410.525 488.274 412.56 488.274 415.07C488.274 417.58 490.184 419.615 492.54 419.615C494.896 419.615 496.805 417.58 496.805 415.07" fill="white"/>
<path fill-rule="evenodd" clip-rule="evenodd" d="M459.79 415.07C459.79 412.56 457.879 410.525 455.524 410.525C453.168 410.525 451.258 412.56 451.258 415.07C451.258 417.58 453.168 419.615 455.524 419.615C457.879 419.615 459.79 417.58 459.79 415.07" fill="white"/>
<path fill-rule="evenodd" clip-rule="evenodd" d="M422.773 415.07C422.773 412.56 420.863 410.525 418.508 410.525C416.152 410.525 414.242 412.56 414.242 415.07C414.242 417.58 416.152 419.615 418.508 419.615C420.863 419.615 422.773 417.58 422.773 415.07" fill="white"/>
<path fill-rule="evenodd" clip-rule="evenodd" d="M391.599 415.07C391.599 412.56 389.689 410.525 387.334 410.525C384.978 410.525 383.068 412.56 383.068 415.07C383.068 417.58 384.978 419.615 387.334 419.615C389.689 419.615 391.599 417.58 391.599 415.07" fill="white"/>
<path fill-rule="evenodd" clip-rule="evenodd" d="M360.425 415.07C360.425 412.56 358.515 410.525 356.159 410.525C353.803 410.525 351.894 412.56 351.894 415.07C351.894 417.58 353.803 419.615 356.159 419.615C358.515 419.615 360.425 417.58 360.425 415.07" fill="white"/>
<path fill-rule="evenodd" clip-rule="evenodd" d="M940.997 454.511C940.997 452.001 939.087 449.966 936.732 449.966C934.376 449.966 932.466 452.001 932.466 454.511C932.466 457.021 934.376 459.056 936.732 459.056C939.087 459.056 940.997 457.021 940.997 454.511" fill="white"/>
<path fill-rule="evenodd" clip-rule="evenodd" d="M903.981 454.511C903.981 452.001 902.072 449.966 899.716 449.966C897.36 449.966 895.45 452.001 895.45 454.511C895.45 457.021 897.36 459.056 899.716 459.056C902.072 459.056 903.981 457.021 903.981 454.511" fill="white"/>
<path fill-rule="evenodd" clip-rule="evenodd" d="M866.965 454.511C866.965 452.001 865.056 449.966 862.7 449.966C860.344 449.966 858.434 452.001 858.434 454.511C858.434 457.021 860.344 459.056 862.7 459.056C865.056 459.056 866.965 457.021 866.965 454.511" fill="white"/>
<path fill-rule="evenodd" clip-rule="evenodd" d="M829.949 454.511C829.949 452.001 828.039 449.966 825.684 449.966C823.328 449.966 821.418 452.001 821.418 454.511C821.418 457.021 823.328 459.056 825.684 459.056C828.039 459.056 829.949 457.021 829.949 454.511" fill="white"/>
<path fill-rule="evenodd" clip-rule="evenodd" d="M792.933 454.511C792.933 452.001 791.023 449.966 788.668 449.966C786.312 449.966 784.402 452.001 784.402 454.511C784.402 457.021 786.312 459.056 788.668 459.056C791.023 459.056 792.933 457.021 792.933 454.511" fill="white"/>
<path fill-rule="evenodd" clip-rule="evenodd" d="M755.917 454.511C755.917 452.001 754.007 449.966 751.652 449.966C749.296 449.966 747.386 452.001 747.386 454.511C747.386 457.021 749.296 459.056 751.652 459.056C754.007 459.056 755.917 457.021 755.917 454.511" fill="white"/>
<path fill-rule="evenodd" clip-rule="evenodd" d="M718.901 454.511C718.901 452.001 716.991 449.966 714.636 449.966C712.28 449.966 710.37 452.001 710.37 454.511C710.37 457.021 712.28 459.056 714.636 459.056C716.991 459.056 718.901 457.021 718.901 454.511" fill="white"/>
<path fill-rule="evenodd" clip-rule="evenodd" d="M681.885 454.511C681.885 452.001 679.975 449.966 677.62 449.966C675.264 449.966 673.354 452.001 673.354 454.511C673.354 457.021 675.264 459.056 677.62 459.056C679.975 459.056 681.885 457.021 681.885 454.511" fill="white"/>
<path fill-rule="evenodd" clip-rule="evenodd" d="M644.87 454.511C644.87 452.001 642.959 449.966 640.604 449.966C638.248 449.966 636.339 452.001 636.339 454.511C636.339 457.021 638.248 459.056 640.604 459.056C642.959 459.056 644.87 457.021 644.87 454.511" fill="white"/>
<path fill-rule="evenodd" clip-rule="evenodd" d="M607.854 454.511C607.854 452.001 605.943 449.966 603.587 449.966C601.232 449.966 599.322 452.001 599.322 454.511C599.322 457.021 601.232 459.056 603.587 459.056C605.943 459.056 607.854 457.021 607.854 454.511" fill="white"/>
<path fill-rule="evenodd" clip-rule="evenodd" d="M570.837 454.511C570.837 452.001 568.928 449.966 566.572 449.966C564.216 449.966 562.306 452.001 562.306 454.511C562.306 457.021 564.216 459.056 566.572 459.056C568.928 459.056 570.837 457.021 570.837 454.511" fill="white"/>
<path fill-rule="evenodd" clip-rule="evenodd" d="M533.821 454.511C533.821 452.001 531.912 449.966 529.556 449.966C527.2 449.966 525.29 452.001 525.29 454.511C525.29 457.021 527.2 459.056 529.556 459.056C531.912 459.056 533.821 457.021 533.821 454.511" fill="white"/>
<path fill-rule="evenodd" clip-rule="evenodd" d="M496.805 454.511C496.805 452.001 494.896 449.966 492.54 449.966C490.184 449.966 488.274 452.001 488.274 454.511C488.274 457.021 490.184 459.056 492.54 459.056C494.896 459.056 496.805 457.021 496.805 454.511" fill="white"/>
<path fill-rule="evenodd" clip-rule="evenodd" d="M459.79 454.511C459.79 452.001 457.879 449.966 455.524 449.966C453.168 449.966 451.258 452.001 451.258 454.511C451.258 457.021 453.168 459.056 455.524 459.056C457.879 459.056 459.79 457.021 459.79 454.511" fill="white"/>
<path fill-rule="evenodd" clip-rule="evenodd" d="M422.773 454.511C422.773 452.001 420.863 449.966 418.508 449.966C416.152 449.966 414.242 452.001 414.242 454.511C414.242 457.021 416.152 459.056 418.508 459.056C420.863 459.056 422.773 457.021 422.773 454.511" fill="white"/>
<path fill-rule="evenodd" clip-rule="evenodd" d="M391.599 454.511C391.599 452.001 389.689 449.966 387.334 449.966C384.978 449.966 383.068 452.001 383.068 454.511C383.068 457.021 384.978 459.056 387.334 459.056C389.689 459.056 391.599 457.021 391.599 454.511" fill="white"/>
<path fill-rule="evenodd" clip-rule="evenodd" d="M360.425 454.511C360.425 452.001 358.515 449.966 356.159 449.966C353.803 449.966 351.894 452.001 351.894 454.511C351.894 457.021 353.803 459.056 356.159 459.056C358.515 459.056 360.425 457.021 360.425 454.511" fill="white"/>
<path fill-rule="evenodd" clip-rule="evenodd" d="M940.997 493.952C940.997 491.441 939.087 489.406 936.732 489.406C934.376 489.406 932.466 491.441 932.466 493.952C932.466 496.461 934.376 498.497 936.732 498.497C939.087 498.497 940.997 496.461 940.997 493.952" fill="white"/>
<path fill-rule="evenodd" clip-rule="evenodd" d="M903.981 493.952C903.981 491.441 902.072 489.406 899.716 489.406C897.36 489.406 895.45 491.441 895.45 493.952C895.45 496.461 897.36 498.497 899.716 498.497C902.072 498.497 903.981 496.461 903.981 493.952" fill="white"/>
<path fill-rule="evenodd" clip-rule="evenodd" d="M866.965 493.952C866.965 491.441 865.056 489.406 862.7 489.406C860.344 489.406 858.434 491.441 858.434 493.952C858.434 496.461 860.344 498.497 862.7 498.497C865.056 498.497 866.965 496.461 866.965 493.952" fill="white"/>
<path fill-rule="evenodd" clip-rule="evenodd" d="M829.949 493.952C829.949 491.441 828.039 489.406 825.684 489.406C823.328 489.406 821.418 491.441 821.418 493.952C821.418 496.461 823.328 498.497 825.684 498.497C828.039 498.497 829.949 496.461 829.949 493.952" fill="white"/>
<path fill-rule="evenodd" clip-rule="evenodd" d="M792.933 493.952C792.933 491.441 791.023 489.406 788.668 489.406C786.312 489.406 784.402 491.441 784.402 493.952C784.402 496.461 786.312 498.497 788.668 498.497C791.023 498.497 792.933 496.461 792.933 493.952" fill="white"/>
<path fill-rule="evenodd" clip-rule="evenodd" d="M755.917 493.952C755.917 491.441 754.007 489.406 751.652 489.406C749.296 489.406 747.386 491.441 747.386 493.952C747.386 496.461 749.296 498.497 751.652 498.497C754.007 498.497 755.917 496.461 755.917 493.952" fill="white"/>
<path fill-rule="evenodd" clip-rule="evenodd" d="M718.901 493.952C718.901 491.441 716.991 489.406 714.636 489.406C712.28 489.406 710.37 491.441 710.37 493.952C710.37 496.461 712.28 498.497 714.636 498.497C716.991 498.497 718.901 496.461 718.901 493.952" fill="white"/>
<path fill-rule="evenodd" clip-rule="evenodd" d="M681.885 493.952C681.885 491.441 679.975 489.406 677.62 489.406C675.264 489.406 673.354 491.441 673.354 493.952C673.354 496.461 675.264 498.497 677.62 498.497C679.975 498.497 681.885 496.461 681.885 493.952" fill="white"/>
<path fill-rule="evenodd" clip-rule="evenodd" d="M644.87 493.952C644.87 491.441 642.959 489.406 640.604 489.406C638.248 489.406 636.339 491.441 636.339 493.952C636.339 496.461 638.248 498.497 640.604 498.497C642.959 498.497 644.87 496.461 644.87 493.952" fill="white"/>
<path fill-rule="evenodd" clip-rule="evenodd" d="M607.854 493.952C607.854 491.441 605.943 489.406 603.587 489.406C601.232 489.406 599.322 491.441 599.322 493.952C599.322 496.461 601.232 498.497 603.587 498.497C605.943 498.497 607.854 496.461 607.854 493.952" fill="white"/>
<path fill-rule="evenodd" clip-rule="evenodd" d="M570.837 493.952C570.837 491.441 568.928 489.406 566.572 489.406C564.216 489.406 562.306 491.441 562.306 493.952C562.306 496.461 564.216 498.497 566.572 498.497C568.928 498.497 570.837 496.461 570.837 493.952" fill="white"/>
<path fill-rule="evenodd" clip-rule="evenodd" d="M533.821 493.952C533.821 491.441 531.912 489.406 529.556 489.406C527.2 489.406 525.29 491.441 525.29 493.952C525.29 496.461 527.2 498.497 529.556 498.497C531.912 498.497 533.821 496.461 533.821 493.952" fill="white"/>
<path fill-rule="evenodd" clip-rule="evenodd" d="M496.805 493.952C496.805 491.441 494.896 489.406 492.54 489.406C490.184 489.406 488.274 491.441 488.274 493.952C488.274 496.461 490.184 498.497 492.54 498.497C494.896 498.497 496.805 496.461 496.805 493.952" fill="white"/>
<path fill-rule="evenodd" clip-rule="evenodd" d="M459.79 493.952C459.79 491.441 457.879 489.406 455.524 489.406C453.168 489.406 451.258 491.441 451.258 493.952C451.258 496.461 453.168 498.497 455.524 498.497C457.879 498.497 459.79 496.461 459.79 493.952" fill="white"/>
<path fill-rule="evenodd" clip-rule="evenodd" d="M422.773 493.952C422.773 491.441 420.863 489.406 418.508 489.406C416.152 489.406 414.242 491.441 414.242 493.952C414.242 496.461 416.152 498.497 418.508 498.497C420.863 498.497 422.773 496.461 422.773 493.952" fill="white"/>
<path fill-rule="evenodd" clip-rule="evenodd" d="M391.599 493.952C391.599 491.441 389.689 489.406 387.334 489.406C384.978 489.406 383.068 491.441 383.068 493.952C383.068 496.461 384.978 498.497 387.334 498.497C389.689 498.497 391.599 496.461 391.599 493.952" fill="white"/>
<path fill-rule="evenodd" clip-rule="evenodd" d="M360.425 493.952C360.425 491.441 358.515 489.406 356.159 489.406C353.803 489.406 351.894 491.441 351.894 493.952C351.894 496.461 353.803 498.497 356.159 498.497C358.515 498.497 360.425 496.461 360.425 493.952" fill="white"/>
<path fill-rule="evenodd" clip-rule="evenodd" d="M940.997 533.392C940.997 530.882 939.087 528.847 936.732 528.847C934.376 528.847 932.466 530.882 932.466 533.392C932.466 535.902 934.376 537.937 936.732 537.937C939.087 537.937 940.997 535.902 940.997 533.392" fill="white"/>
<path fill-rule="evenodd" clip-rule="evenodd" d="M903.981 533.392C903.981 530.882 902.072 528.847 899.716 528.847C897.36 528.847 895.45 530.882 895.45 533.392C895.45 535.902 897.36 537.937 899.716 537.937C902.072 537.937 903.981 535.902 903.981 533.392" fill="white"/>
<path fill-rule="evenodd" clip-rule="evenodd" d="M866.965 533.392C866.965 530.882 865.056 528.847 862.7 528.847C860.344 528.847 858.434 530.882 858.434 533.392C858.434 535.902 860.344 537.937 862.7 537.937C865.056 537.937 866.965 535.902 866.965 533.392" fill="white"/>
<path fill-rule="evenodd" clip-rule="evenodd" d="M829.949 533.392C829.949 530.882 828.039 528.847 825.684 528.847C823.328 528.847 821.418 530.882 821.418 533.392C821.418 535.902 823.328 537.937 825.684 537.937C828.039 537.937 829.949 535.902 829.949 533.392" fill="white"/>
<path fill-rule="evenodd" clip-rule="evenodd" d="M792.933 533.392C792.933 530.882 791.023 528.847 788.668 528.847C786.312 528.847 784.402 530.882 784.402 533.392C784.402 535.902 786.312 537.937 788.668 537.937C791.023 537.937 792.933 535.902 792.933 533.392" fill="white"/>
<path fill-rule="evenodd" clip-rule="evenodd" d="M755.917 533.392C755.917 530.882 754.007 528.847 751.652 528.847C749.296 528.847 747.386 530.882 747.386 533.392C747.386 535.902 749.296 537.937 751.652 537.937C754.007 537.937 755.917 535.902 755.917 533.392" fill="white"/>
<path fill-rule="evenodd" clip-rule="evenodd" d="M718.901 533.392C718.901 530.882 716.991 528.847 714.636 528.847C712.28 528.847 710.37 530.882 710.37 533.392C710.37 535.902 712.28 537.937 714.636 537.937C716.991 537.937 718.901 535.902 718.901 533.392" fill="white"/>
<path fill-rule="evenodd" clip-rule="evenodd" d="M681.885 533.392C681.885 530.882 679.975 528.847 677.62 528.847C675.264 528.847 673.354 530.882 673.354 533.392C673.354 535.902 675.264 537.937 677.62 537.937C679.975 537.937 681.885 535.902 681.885 533.392" fill="white"/>
<path fill-rule="evenodd" clip-rule="evenodd" d="M644.87 533.392C644.87 530.882 642.959 528.847 640.604 528.847C638.248 528.847 636.339 530.882 636.339 533.392C636.339 535.902 638.248 537.937 640.604 537.937C642.959 537.937 644.87 535.902 644.87 533.392" fill="white"/>
<path fill-rule="evenodd" clip-rule="evenodd" d="M607.854 533.392C607.854 530.882 605.943 528.847 603.587 528.847C601.232 528.847 599.322 530.882 599.322 533.392C599.322 535.902 601.232 537.937 603.587 537.937C605.943 537.937 607.854 535.902 607.854 533.392" fill="white"/>
<path fill-rule="evenodd" clip-rule="evenodd" d="M570.837 533.392C570.837 530.882 568.928 528.847 566.572 528.847C564.216 528.847 562.306 530.882 562.306 533.392C562.306 535.902 564.216 537.937 566.572 537.937C568.928 537.937 570.837 535.902 570.837 533.392" fill="white"/>
<path fill-rule="evenodd" clip-rule="evenodd" d="M533.821 533.392C533.821 530.882 531.912 528.847 529.556 528.847C527.2 528.847 525.29 530.882 525.29 533.392C525.29 535.902 527.2 537.937 529.556 537.937C531.912 537.937 533.821 535.902 533.821 533.392" fill="white"/>
<path fill-rule="evenodd" clip-rule="evenodd" d="M496.805 533.392C496.805 530.882 494.896 528.847 492.54 528.847C490.184 528.847 488.274 530.882 488.274 533.392C488.274 535.902 490.184 537.937 492.54 537.937C494.896 537.937 496.805 535.902 496.805 533.392" fill="white"/>
<path fill-rule="evenodd" clip-rule="evenodd" d="M459.79 533.392C459.79 530.882 457.879 528.847 455.524 528.847C453.168 528.847 451.258 530.882 451.258 533.392C451.258 535.902 453.168 537.937 455.524 537.937C457.879 537.937 459.79 535.902 459.79 533.392" fill="white"/>
<path fill-rule="evenodd" clip-rule="evenodd" d="M422.773 533.392C422.773 530.882 420.863 528.847 418.508 528.847C416.152 528.847 414.242 530.882 414.242 533.392C414.242 535.902 416.152 537.937 418.508 537.937C420.863 537.937 422.773 535.902 422.773 533.392" fill="white"/>
<path fill-rule="evenodd" clip-rule="evenodd" d="M391.599 533.392C391.599 530.882 389.689 528.847 387.334 528.847C384.978 528.847 383.068 530.882 383.068 533.392C383.068 535.902 384.978 537.937 387.334 537.937C389.689 537.937 391.599 535.902 391.599 533.392" fill="white"/>
<path fill-rule="evenodd" clip-rule="evenodd" d="M360.425 533.392C360.425 530.882 358.515 528.847 356.159 528.847C353.803 528.847 351.894 530.882 351.894 533.392C351.894 535.902 353.803 537.937 356.159 537.937C358.515 537.937 360.425 535.902 360.425 533.392" fill="white"/>
<path fill-rule="evenodd" clip-rule="evenodd" d="M940.997 572.833C940.997 570.323 939.087 568.288 936.732 568.288C934.376 568.288 932.466 570.323 932.466 572.833C932.466 575.342 934.376 577.378 936.732 577.378C939.087 577.378 940.997 575.342 940.997 572.833" fill="white"/>
<path fill-rule="evenodd" clip-rule="evenodd" d="M903.981 572.833C903.981 570.323 902.072 568.288 899.716 568.288C897.36 568.288 895.45 570.323 895.45 572.833C895.45 575.342 897.36 577.378 899.716 577.378C902.072 577.378 903.981 575.342 903.981 572.833" fill="white"/>
<path fill-rule="evenodd" clip-rule="evenodd" d="M866.965 572.833C866.965 570.323 865.056 568.288 862.7 568.288C860.344 568.288 858.434 570.323 858.434 572.833C858.434 575.342 860.344 577.378 862.7 577.378C865.056 577.378 866.965 575.342 866.965 572.833" fill="white"/>
<path fill-rule="evenodd" clip-rule="evenodd" d="M829.949 572.833C829.949 570.323 828.039 568.288 825.684 568.288C823.328 568.288 821.418 570.323 821.418 572.833C821.418 575.342 823.328 577.378 825.684 577.378C828.039 577.378 829.949 575.342 829.949 572.833" fill="white"/>
<path fill-rule="evenodd" clip-rule="evenodd" d="M792.933 572.833C792.933 570.323 791.023 568.288 788.668 568.288C786.312 568.288 784.402 570.323 784.402 572.833C784.402 575.342 786.312 577.378 788.668 577.378C791.023 577.378 792.933 575.342 792.933 572.833" fill="white"/>
<path fill-rule="evenodd" clip-rule="evenodd" d="M755.917 572.833C755.917 570.323 754.007 568.288 751.652 568.288C749.296 568.288 747.386 570.323 747.386 572.833C747.386 575.342 749.296 577.378 751.652 577.378C754.007 577.378 755.917 575.342 755.917 572.833" fill="white"/>
<path fill-rule="evenodd" clip-rule="evenodd" d="M718.901 572.833C718.901 570.323 716.991 568.288 714.636 568.288C712.28 568.288 710.37 570.323 710.37 572.833C710.37 575.342 712.28 577.378 714.636 577.378C716.991 577.378 718.901 575.342 718.901 572.833" fill="white"/>
<path fill-rule="evenodd" clip-rule="evenodd" d="M681.885 572.833C681.885 570.323 679.975 568.288 677.62 568.288C675.264 568.288 673.354 570.323 673.354 572.833C673.354 575.342 675.264 577.378 677.62 577.378C679.975 577.378 681.885 575.342 681.885 572.833" fill="white"/>
<path fill-rule="evenodd" clip-rule="evenodd" d="M644.87 572.833C644.87 570.323 642.959 568.288 640.604 568.288C638.248 568.288 636.339 570.323 636.339 572.833C636.339 575.342 638.248 577.378 640.604 577.378C642.959 577.378 644.87 575.342 644.87 572.833" fill="white"/>
<path fill-rule="evenodd" clip-rule="evenodd" d="M607.854 572.833C607.854 570.323 605.943 568.288 603.587 568.288C601.232 568.288 599.322 570.323 599.322 572.833C599.322 575.342 601.232 577.378 603.587 577.378C605.943 577.378 607.854 575.342 607.854 572.833" fill="white"/>
<path fill-rule="evenodd" clip-rule="evenodd" d="M570.837 572.833C570.837 570.323 568.928 568.288 566.572 568.288C564.216 568.288 562.306 570.323 562.306 572.833C562.306 575.342 564.216 577.378 566.572 577.378C568.928 577.378 570.837 575.342 570.837 572.833" fill="white"/>
<path fill-rule="evenodd" clip-rule="evenodd" d="M533.821 572.833C533.821 570.323 531.912 568.288 529.556 568.288C527.2 568.288 525.29 570.323 525.29 572.833C525.29 575.342 527.2 577.378 529.556 577.378C531.912 577.378 533.821 575.342 533.821 572.833" fill="white"/>
<path fill-rule="evenodd" clip-rule="evenodd" d="M496.805 572.833C496.805 570.323 494.896 568.288 492.54 568.288C490.184 568.288 488.274 570.323 488.274 572.833C488.274 575.342 490.184 577.378 492.54 577.378C494.896 577.378 496.805 575.342 496.805 572.833" fill="white"/>
<path fill-rule="evenodd" clip-rule="evenodd" d="M459.79 572.833C459.79 570.323 457.879 568.288 455.524 568.288C453.168 568.288 451.258 570.323 451.258 572.833C451.258 575.342 453.168 577.378 455.524 577.378C457.879 577.378 459.79 575.342 459.79 572.833" fill="white"/>
<path fill-rule="evenodd" clip-rule="evenodd" d="M422.773 572.833C422.773 570.323 420.863 568.288 418.508 568.288C416.152 568.288 414.242 570.323 414.242 572.833C414.242 575.342 416.152 577.378 418.508 577.378C420.863 577.378 422.773 575.342 422.773 572.833" fill="white"/>
<path fill-rule="evenodd" clip-rule="evenodd" d="M391.599 572.833C391.599 570.323 389.689 568.288 387.334 568.288C384.978 568.288 383.068 570.323 383.068 572.833C383.068 575.342 384.978 577.378 387.334 577.378C389.689 577.378 391.599 575.342 391.599 572.833" fill="white"/>
<path fill-rule="evenodd" clip-rule="evenodd" d="M360.425 572.833C360.425 570.323 358.515 568.288 356.159 568.288C353.803 568.288 351.894 570.323 351.894 572.833C351.894 575.342 353.803 577.378 356.159 577.378C358.515 577.378 360.425 575.342 360.425 572.833" fill="white"/>
</g>
</g>
<defs>
<filter id="filter0_b_281_922" x="-18" y="-18" width="1720" height="710" filterUnits="userSpaceOnUse" color-interpolation-filters="sRGB">
<feFlood flood-opacity="0" result="BackgroundImageFix"/>
<feGaussianBlur in="BackgroundImage" stdDeviation="9"/>
<feComposite in2="SourceAlpha" operator="in" result="effect1_backgroundBlur_281_922"/>
<feBlend mode="normal" in="SourceGraphic" in2="effect1_backgroundBlur_281_922" result="shape"/>
</filter>
<clipPath id="clip0_281_922">
<rect width="1328" height="674" fill="white"/>
</clipPath>
</defs>
</svg>
